# Blender v3.0.0 OBJ File: ''
# www.blender.org
mtllib Bricks.mtl
o Bricks_Cube.001
v -0.957125 0.008244 0.295548
v -0.957125 0.008244 0.054663
v -0.485479 0.006848 0.092331
v -0.485479 0.006848 0.257880
v -0.485479 0.325287 0.241477
v -0.485479 0.325287 0.108734
v -1.080750 0.325429 0.104914
v -0.950794 0.326356 0.079897
v -0.934521 0.313393 0.063809
v -1.014359 0.318545 0.047785
v -1.060016 0.318545 0.047785
v -0.950794 0.326356 0.270314
v -0.506213 0.318545 0.047785
v -0.511919 0.032747 0.032308
v -0.934521 0.018073 0.032308
v -0.934521 0.294676 0.046556
v -0.784866 0.318545 0.047785
v -0.934521 0.294680 0.046556
v -1.080750 0.325429 0.245297
v -1.072559 0.013588 0.060333
v -1.072559 0.013588 0.289878
v -1.049686 0.035506 0.032308
v 0.129802 0.004425 0.723958
v -0.056262 0.003029 0.288930
v 0.090283 0.003029 0.211917
v 0.343036 0.004425 0.611898
v -0.041742 0.321468 0.281299
v 0.075763 0.321468 0.219548
v 0.356063 0.321610 0.744709
v 0.396989 0.314726 0.699780
v 0.324424 0.309574 0.596144
v 0.317753 0.322537 0.618032
v 0.149194 0.322537 0.706614
v 0.139361 0.314726 0.209548
v 0.268989 0.314726 0.456214
v 0.339697 0.290857 0.588118
v 0.352309 0.014254 0.581490
v 0.155716 0.028928 0.207400
v 0.339697 0.290861 0.588118
v 0.231795 0.321610 0.810015
v 0.188522 0.009769 0.823503
v 0.391716 0.009769 0.716719
v 0.405884 0.031687 0.683435
v 0.393303 0.063509 0.365474
v 0.139678 0.295915 0.182343
v 0.220669 0.297452 0.037976
v 0.511261 0.065748 0.155210
v 0.308745 0.543176 0.260959
v 0.373638 0.544408 0.145287
v 0.733718 0.236844 0.339624
v 0.743607 0.244360 0.279550
v 0.711567 0.271889 0.261869
v 0.644988 0.315748 0.243413
v 0.655282 0.316177 0.267695
v 0.562089 0.314408 0.433814
v 0.414574 0.527071 0.097972
v 0.550522 0.410262 0.172996
v 0.643680 0.300908 0.222679
v 0.511501 0.087462 0.129867
v 0.282201 0.302826 0.003522
v 0.592274 0.000378 0.206484
v 0.479881 -0.001756 0.406827
v 0.665076 0.235541 0.461979
v 0.601421 0.031996 0.179721
v -0.052911 0.334555 -0.782050
v 0.077800 0.334555 -0.593357
v 0.080931 0.213464 -0.588628
v -0.056237 0.213464 -0.786645
v -0.554196 0.207262 -0.411005
v -0.445766 0.207262 -0.254475
v -0.459233 0.334555 -0.275579
v -0.539172 0.334555 -0.390979
v -0.490265 0.015165 -0.422748
v -0.506180 0.055380 -0.492435
v -0.082522 0.041063 -0.785908
v -0.034140 0.015165 -0.756128
v -0.570188 0.035474 -0.448096
v -0.565864 0.191324 -0.451091
v -0.520531 0.191324 -0.482494
v -0.570188 0.314247 -0.448096
v -0.494711 0.334555 -0.428673
v -0.497802 0.316600 -0.478664
v -0.461290 0.015165 -0.278801
v -0.536878 0.015165 -0.387921
v -0.408316 0.334555 -0.303955
v -0.083625 0.191324 -0.785144
v -0.093681 0.311616 -0.778178
v -0.412301 0.015165 -0.310199
v 0.060129 0.015165 -0.620041
v -0.503065 0.295422 -0.494593
v -0.408454 0.299458 -0.560131
v 0.387277 0.317648 -0.034544
v 0.387277 0.317648 -0.174927
v 0.329263 0.317648 -0.180595
v 0.329263 0.317648 -0.028876
v 0.388223 0.190355 -0.199944
v 0.376582 0.174502 -0.236973
v 0.381818 0.298772 -0.244568
v -0.140415 0.196557 -0.225178
v -0.140415 0.196557 0.015708
v -0.140630 0.317648 0.010037
v -0.140630 0.317648 -0.219508
v 0.387132 -0.001742 -0.038364
v 0.328982 -0.001742 -0.036278
v 0.328982 -0.001742 -0.173193
v 0.387132 -0.001742 -0.171107
v 0.320812 0.174502 -0.238248
v -0.133676 0.174502 -0.247002
v -0.121416 0.296653 -0.247136
v 0.295023 0.280175 -0.244546
v 0.303095 0.037069 -0.244634
v 0.381818 0.016944 -0.244568
v -0.118531 0.022595 -0.247167
v 0.388223 0.190355 -0.009527
v -0.141840 -0.001742 -0.187510
v -0.141840 -0.001742 -0.021961
v -1.060016 0.318545 0.302425
v -1.014359 0.318545 0.302425
v -0.934521 0.313393 0.286402
v -0.506213 0.318545 0.302425
v -0.784866 0.318545 0.302425
v -0.934521 0.294676 0.303655
v -0.934521 0.018073 0.317903
v -0.511919 0.032747 0.317903
v -0.934521 0.294680 0.303655
v -1.049686 0.035506 0.317903
v 0.127384 0.309574 0.699694
v 0.171580 0.314726 0.818238
v -0.086048 0.314726 0.328006
v -0.097094 0.028928 0.340258
v 0.099499 0.014254 0.714348
v 0.112111 0.290857 0.707720
v 0.043580 0.314726 0.574672
v 0.112111 0.290861 0.707720
v 0.153073 0.031687 0.816293
v 0.536006 0.313679 0.437676
v 0.586859 0.269522 0.484163
v 0.618899 0.241993 0.501844
v 0.289866 0.524704 0.320266
v 0.142304 0.300170 0.252892
v 0.371604 0.084807 0.379237
v 0.517766 0.298518 0.447124
v 0.425815 0.407894 0.395290
v 0.461524 0.029341 0.429091
v 0.071003 0.041063 -0.564279
v -0.352655 0.055380 -0.270806
v -0.416663 0.035474 -0.226467
v -0.367006 0.191324 -0.260865
v -0.412339 0.191324 -0.229462
v -0.416663 0.314247 -0.226467
v -0.362602 0.316600 -0.283490
v 0.069900 0.191324 -0.563515
v 0.059845 0.311616 -0.556550
v -0.349540 0.295422 -0.272964
v -0.254929 0.299458 -0.338502
v 0.381818 0.298772 0.035097
v 0.376582 0.174502 0.027502
v 0.320812 0.174502 0.028778
v 0.295023 0.280175 0.035075
v -0.121416 0.296653 0.037665
v -0.133676 0.174502 0.037531
v 0.381818 0.016944 0.035097
v 0.303095 0.037069 0.035163
v -0.118531 0.022595 0.037697
v 0.643682 0.300912 0.222680
v 0.517768 0.298522 0.447125
vn -0.0030 -1.0000 -0.0000
vn 1.0000 -0.0000 0.0000
vn 0.1070 0.8966 -0.4298
vn 0.1581 0.8409 -0.5176
vn -0.0083 0.9812 -0.1928
vn 0.0023 1.0000 0.0000
vn -0.0069 1.0000 0.0000
vn 0.0031 0.0518 -0.9987
vn -0.0011 0.0532 -0.9986
vn -0.0007 0.0525 -0.9986
vn 0.0753 0.3011 -0.9506
vn 0.1879 0.6658 -0.7221
vn -0.9997 -0.0263 -0.0000
vn -0.0071 1.0000 0.0000
vn 0.0015 0.9931 -0.1174
vn 0.0000 0.9939 -0.1099
vn 0.0079 0.9819 -0.1891
vn -0.0751 -0.7723 -0.6308
vn -0.1197 -0.8402 -0.5289
vn -0.0670 -0.7587 -0.6480
vn 0.0315 -0.9132 -0.4062
vn 0.0278 -0.9243 -0.3807
vn 0.0317 -0.9126 -0.4077
vn -0.8148 0.0572 -0.5770
vn -0.9304 -0.0079 -0.3664
vn -0.9405 -0.0158 -0.3394
vn 0.9427 0.0019 -0.3336
vn 0.9217 0.0179 -0.3875
vn 0.9468 -0.0015 -0.3219
vn -0.0462 -0.9989 -0.0000
vn 0.0059 0.0522 -0.9986
vn -0.1015 0.6743 -0.7314
vn -0.0449 0.3304 -0.9428
vn 0.0014 -1.0000 0.0026
vn -0.4652 -0.0000 -0.8852
vn 0.1662 0.9838 -0.0670
vn 0.3902 0.8722 -0.2949
vn 0.1311 0.9908 -0.0324
vn 0.0027 1.0000 0.0064
vn -0.0011 1.0000 -0.0020
vn 0.8843 0.0525 -0.4639
vn 0.8826 0.0518 -0.4673
vn 0.8844 0.0532 -0.4637
vn 0.5898 0.6729 -0.4464
vn 0.8137 0.3239 -0.4827
vn 0.4650 -0.0263 0.8849
vn 0.0033 1.0000 0.0063
vn 0.1637 0.9819 -0.0950
vn 0.0973 0.9939 -0.0511
vn 0.1032 0.9931 -0.0560
vn 0.5239 -0.8402 -0.1401
vn 0.5933 -0.7723 -0.2269
vn 0.6048 -0.7587 -0.2422
vn 0.3241 -0.9243 -0.2017
vn 0.3450 -0.9132 -0.2168
vn 0.3462 -0.9126 -0.2177
vn 0.7572 -0.0079 0.6532
vn 0.8897 0.0572 0.4529
vn 0.7380 -0.0158 0.6746
vn -0.1433 0.0019 -0.9897
vn -0.0857 0.0179 -0.9962
vn -0.0769 0.0204 -0.9968
vn 0.0215 -0.9989 0.0409
vn 0.8812 0.0523 -0.4698
vn 0.8834 0.0527 -0.4656
vn 0.8836 0.0546 -0.4650
vn 0.6947 0.6744 -0.2504
vn 0.8549 0.3304 -0.4000
vn 0.8802 0.0000 -0.4745
vn -0.5182 -0.8012 -0.2992
vn -0.6997 0.6012 -0.3861
vn 0.6110 0.7809 0.1300
vn 0.5804 0.7718 -0.2597
vn 0.6023 0.7847 -0.1466
vn 0.5256 0.7949 0.3032
vn 0.5187 0.8008 0.2995
vn 0.5176 0.0524 -0.8540
vn 0.5144 0.0540 -0.8558
vn 0.5182 0.0524 -0.8537
vn -0.4878 -0.8260 -0.2824
vn 0.6853 -0.6226 0.3778
vn 0.5257 0.7948 0.3034
vn 0.5930 0.7936 0.1365
vn 0.5713 0.7953 0.2029
vn 0.5734 0.7961 0.1936
vn -0.0949 -0.7384 -0.6676
vn -0.0410 -0.6564 -0.7533
vn -0.0312 -0.6405 -0.7673
vn -0.3211 -0.7160 -0.6199
vn -0.3026 -0.7015 -0.6453
vn -0.3012 -0.7003 -0.6471
vn 0.8263 -0.5621 0.0364
vn 0.8828 -0.4383 -0.1689
vn 0.8156 -0.5753 0.0623
vn -0.4950 0.5714 -0.6545
vn -0.4461 0.5725 -0.6879
vn -0.4381 0.5725 -0.6931
vn 0.5124 0.0563 -0.8569
vn 0.5160 0.0538 -0.8549
vn 0.8220 -0.0010 -0.5694
vn 0.8221 0.0039 -0.5693
vn -0.8220 0.0008 0.5694
vn -0.8220 0.0074 0.5694
vn -0.3135 -0.8551 -0.4129
vn -0.2650 -0.8940 -0.3613
vn -0.2607 -0.8971 -0.3567
vn -0.5694 -0.0000 -0.8220
vn -0.1832 0.9438 -0.2750
vn -0.1806 0.9420 -0.2830
vn -0.1671 0.9311 -0.3241
vn -0.8220 -0.0057 0.5694
vn -0.9404 -0.0098 0.3399
vn -0.8914 -0.0148 0.4529
vn -0.8778 -0.0216 0.4786
vn -0.0000 1.0000 -0.0000
vn 0.1281 -0.1260 -0.9837
vn 0.4599 -0.0170 -0.8878
vn 0.5273 0.0082 -0.8496
vn -0.0986 0.0481 -0.9940
vn -0.1140 0.0421 -0.9926
vn -0.1172 0.0409 -0.9923
vn -0.0000 -1.0000 -0.0000
vn -0.1113 -0.9168 -0.3836
vn -0.1194 -0.9239 -0.3636
vn -0.1710 -0.9583 -0.2288
vn -0.4246 0.7044 -0.5688
vn -0.4369 0.6764 -0.5930
vn -0.3465 0.8230 -0.4501
vn 0.8220 0.0040 -0.5694
vn -0.9000 0.0165 0.4356
vn -0.8829 0.0305 0.4686
vn 0.9690 -0.0357 -0.2446
vn 0.9925 0.0084 -0.1220
vn 0.9961 0.0240 -0.0846
vn -1.0000 0.0070 0.0000
vn -1.0000 -0.0018 -0.0000
vn 0.0083 -0.0105 -0.9999
vn 0.0172 -0.0467 -0.9988
vn 0.0192 -0.0548 -0.9983
vn 0.0474 0.8146 -0.5780
vn 0.0378 0.8505 -0.5246
vn 0.0370 0.8534 -0.5199
vn -0.1085 -0.9391 -0.3261
vn -0.1336 -0.9300 -0.3424
vn 0.0089 -0.9689 -0.2471
vn -0.8259 0.0333 -0.5629
vn -0.9098 0.0835 -0.4065
vn -0.8114 0.0259 -0.5840
vn 0.0166 0.0357 -0.9992
vn 0.0087 0.0104 -0.9999
vn 0.0192 0.0439 -0.9988
vn 1.0000 -0.0057 -0.0000
vn 1.0000 0.0008 -0.0000
vn -0.9229 -0.0841 -0.3758
vn -0.9595 -0.0492 -0.2773
vn -0.9145 -0.0907 -0.3943
vn 0.9944 0.0208 -0.1036
vn 0.9658 -0.0454 -0.2553
vn -1.0000 0.0072 0.0000
vn 0.0304 -0.8802 -0.4736
vn 0.0134 -0.9229 -0.3847
vn 0.0329 -0.8732 -0.4863
vn 1.0000 0.0074 0.0000
vn 0.0153 0.0475 -0.9988
vn 0.0197 0.0451 -0.9988
vn 0.0133 0.0486 -0.9987
vn -0.0980 0.9298 -0.3548
vn -0.0896 0.9329 -0.3489
vn 0.0257 0.9643 -0.2634
vn 0.0185 -0.0572 -0.9982
vn 0.0156 -0.0595 -0.9981
vn 0.0129 -0.0615 -0.9980
vn -0.0083 0.9812 0.1928
vn 0.1581 0.8409 0.5176
vn 0.1070 0.8966 0.4298
vn -0.0007 0.0525 0.9986
vn 0.0031 0.0518 0.9987
vn -0.0009 0.0532 0.9986
vn 0.1879 0.6658 0.7221
vn 0.0736 0.3011 0.9507
vn 0.0079 0.9819 0.1891
vn 0.0000 0.9939 0.1099
vn 0.0015 0.9931 0.1174
vn -0.1197 -0.8402 0.5289
vn -0.0751 -0.7723 0.6308
vn -0.0670 -0.7587 0.6480
vn 0.0278 -0.9243 0.3807
vn 0.0315 -0.9132 0.4062
vn 0.0317 -0.9126 0.4077
vn -0.9304 -0.0079 0.3664
vn -0.8148 0.0572 0.5770
vn -0.9405 -0.0158 0.3394
vn 0.9427 0.0019 0.3336
vn 0.9217 0.0179 0.3875
vn 0.9182 0.0204 0.3957
vn 0.0059 0.0522 0.9986
vn -0.0010 0.0531 0.9986
vn -0.1015 0.6743 0.7314
vn -0.0441 0.3304 0.9428
vn 0.0097 0.0000 1.0000
vn -0.4642 0.8722 0.1541
vn -0.1495 0.9838 0.0988
vn -0.1010 0.9908 0.0896
vn -0.8855 0.0518 0.4618
vn -0.8845 0.0527 0.4635
vn -0.8836 0.0525 0.4652
vn -0.8590 0.3239 0.3965
vn -0.7022 0.6729 0.2326
vn -0.1047 0.9931 0.0533
vn -0.0973 0.9939 0.0511
vn -0.1711 0.9819 0.0810
vn -0.5234 -0.7723 0.3599
vn -0.4125 -0.8402 0.3520
vn -0.5425 -0.7587 0.3607
vn -0.3742 -0.9132 0.1611
vn -0.3499 -0.9243 0.1525
vn -0.3757 -0.9126 0.1616
vn -0.1317 0.0572 0.9896
vn 0.1085 -0.0079 0.9941
vn 0.1371 -0.0158 0.9904
vn -0.7339 0.0019 -0.6793
vn -0.7718 0.0179 -0.6356
vn -0.7254 -0.0015 -0.6883
vn -0.8867 0.0523 0.4593
vn -0.8842 0.0546 0.4640
vn -0.6015 0.6729 0.4305
vn -0.8153 0.3304 0.4756
vn -0.6002 0.6743 0.4301
vn 0.1817 0.7767 0.6031
vn 0.0739 0.7622 0.6431
vn 0.4224 0.7773 0.4663
vn -0.4626 0.0355 0.8858
vn -0.4611 0.0352 0.8867
vn -0.4594 0.0338 0.8876
vn 0.4569 0.7939 0.4013
vn 0.4637 0.7932 0.3947
vn 0.4184 0.7902 0.4477
vn -0.6582 -0.6681 0.3470
vn -0.6125 -0.7483 0.2549
vn -0.6652 -0.6525 0.3629
vn -0.7020 -0.7091 0.0666
vn -0.6899 -0.7230 0.0374
vn -0.7029 -0.7080 0.0689
vn 0.3200 -0.4490 0.8343
vn 0.4669 -0.5689 0.6770
vn 0.4835 -0.5816 0.6542
vn -0.8218 0.5652 -0.0721
vn -0.8248 0.5653 -0.0129
vn -0.8207 0.5650 -0.0853
vn -0.4646 0.0378 0.8847
vn 0.2764 -0.8551 0.4386
vn 0.2451 -0.8940 0.3751
vn 0.2796 -0.8507 0.4451
vn 0.5694 -0.0000 0.8220
vn 0.1930 0.9438 0.2682
vn 0.2014 0.9420 0.2686
vn 0.1480 0.9526 0.2656
vn -0.6488 -0.0099 0.7609
vn -0.7373 -0.0148 0.6754
vn -0.5942 0.0070 0.8043
vn 0.9928 -0.0170 -0.1185
vn 0.9660 -0.1260 0.2258
vn 0.9808 0.0082 -0.1951
vn 0.8892 0.0421 0.4556
vn 0.8959 0.0481 0.4416
vn 0.8877 0.0409 0.4585
vn 0.2984 -0.9239 0.2396
vn 0.3201 -0.9168 0.2390
vn 0.1541 -0.9583 0.2405
vn 0.2996 0.8230 0.4826
vn 0.3833 0.7044 0.5974
vn 0.2813 0.8991 0.3354
vn -0.7241 0.0165 0.6894
vn -0.7490 0.0305 0.6618
vn 0.9925 0.0084 0.1220
vn 0.9690 -0.0357 0.2446
vn 0.9961 0.0240 0.0846
vn 0.0172 -0.0467 0.9988
vn 0.0083 -0.0105 0.9999
vn 0.0192 -0.0548 0.9983
vn 0.0378 0.8505 0.5246
vn 0.0474 0.8146 0.5780
vn 0.0370 0.8534 0.5199
vn -0.1336 -0.9300 0.3424
vn -0.1085 -0.9391 0.3261
vn 0.0089 -0.9689 0.2471
vn -0.9098 0.0835 0.4065
vn -0.8259 0.0333 0.5629
vn -0.8114 0.0259 0.5840
vn 0.0166 0.0357 0.9992
vn 0.0087 0.0104 0.9999
vn 0.0060 0.0017 1.0000
vn -0.9595 -0.0492 0.2773
vn -0.9229 -0.0841 0.3758
vn -0.9145 -0.0907 0.3943
vn 0.9658 -0.0454 0.2553
vn 0.9944 0.0208 0.1036
vn 0.0304 -0.8802 0.4736
vn 0.0134 -0.9230 0.3847
vn 0.0114 -0.9274 0.3739
vn 0.0197 0.0451 0.9988
vn 0.0153 0.0475 0.9988
vn 0.0133 0.0486 0.9987
vn -0.0980 0.9298 0.3548
vn -0.0896 0.9329 0.3489
vn -0.1904 0.8881 0.4184
vn 0.0185 -0.0572 0.9982
vn 0.0156 -0.0595 0.9981
vn 0.0228 -0.0539 0.9983
vn 0.0000 0.9928 -0.1196
vn -0.0196 0.9897 -0.1420
vn 0.0000 0.0541 -0.9985
vn -0.0009 0.0532 -0.9986
vn -0.0154 0.0000 -0.9999
vn -0.0980 0.7242 -0.6826
vn -0.0715 0.8194 -0.5688
vn -0.1291 -0.8530 -0.5056
vn 0.0275 -0.9250 -0.3789
vn -0.7973 0.0648 -0.6000
vn 0.9182 0.0204 -0.3957
vn 0.0000 0.0546 -0.9985
vn 0.0005 0.0545 -0.9985
vn 0.0083 0.0000 -1.0000
vn 0.4446 0.8236 -0.3522
vn 0.8839 0.0541 -0.4645
vn 0.8924 0.0000 -0.4512
vn 0.5368 0.8194 -0.2013
vn 0.6499 0.7241 -0.2308
vn 0.5077 -0.8530 -0.1209
vn 0.3226 -0.9250 -0.2006
vn 0.9021 0.0648 0.4267
vn -0.1555 -0.0015 -0.9878
vn 0.5985 0.7804 0.1812
vn 0.5755 0.7944 0.1941
vn 0.5177 0.0541 -0.8539
vn 0.7530 0.6219 -0.2152
vn 0.7796 0.5261 -0.3398
vn -0.1064 -0.7546 -0.6475
vn -0.3227 -0.7172 -0.6176
vn 0.8862 -0.4207 -0.1942
vn -0.5057 0.5709 -0.6467
vn 0.5174 0.0549 -0.8540
vn 0.5179 0.0545 -0.8537
vn -0.3184 -0.8507 -0.4182
vn -0.1966 0.9526 -0.2319
vn -0.9618 0.0071 0.2737
vn 0.0630 -0.1449 -0.9874
vn -0.0946 0.0497 -0.9943
vn -0.0667 -0.8707 -0.4872
vn -0.1203 0.9367 -0.3290
vn -0.2151 0.8991 -0.3812
vn 0.0062 -0.0017 -1.0000
vn 0.0483 0.8112 -0.5828
vn -0.2267 -0.8879 -0.4002
vn -0.9214 0.0921 -0.3776
vn 0.0059 0.0017 -1.0000
vn -0.9658 -0.0417 -0.2561
vn 0.9974 0.0362 -0.0629
vn 0.0114 -0.9274 -0.3739
vn 0.0228 0.0435 -0.9988
vn -0.1904 0.8881 -0.4184
vn 0.0228 -0.0539 -0.9983
vn -0.0196 0.9897 0.1420
vn 0.0000 0.9928 0.1196
vn 0.0000 0.0541 0.9985
vn -0.0183 0.0000 0.9998
vn -0.0715 0.8194 0.5688
vn -0.0980 0.7242 0.6826
vn -0.1291 -0.8530 0.5056
vn 0.0275 -0.9250 0.3789
vn -0.7973 0.0648 0.6000
vn 0.9468 -0.0015 0.3219
vn 0.0004 0.0545 0.9985
vn 0.0000 0.0546 0.9985
vn -0.5423 0.8236 0.1664
vn -0.8839 0.0541 0.4645
vn -0.8835 0.0532 0.4654
vn -0.8776 0.0000 0.4794
vn -0.5587 0.7241 0.4043
vn -0.4702 0.8194 0.3279
vn -0.3875 -0.8530 0.3495
vn -0.3482 -0.9250 0.1519
vn -0.1602 0.0648 0.9849
vn -0.7774 0.0204 -0.6287
vn -0.8915 0.0000 0.4530
vn 0.4584 0.7922 0.4028
vn 0.4595 0.7777 0.4289
vn -0.4593 0.0355 0.8876
vn -0.4588 0.0338 0.8879
vn 0.1116 0.5134 0.8509
vn 0.2032 0.6114 0.7648
vn -0.6012 -0.7640 0.2344
vn -0.6887 -0.7242 0.0348
vn 0.3000 -0.4319 0.8506
vn -0.8250 0.5652 -0.0034
vn -0.4590 0.0360 0.8877
vn -0.4596 0.0363 0.8874
vn 0.2423 -0.8971 0.3694
vn 0.2447 0.9311 0.2704
vn -0.7566 -0.0216 0.6535
vn 0.9466 -0.1449 0.2880
vn 0.8976 0.0497 0.4381
vn 0.4327 -0.8707 0.2337
vn 0.2657 0.9366 0.2282
vn 0.4016 0.6764 0.6174
vn 0.0062 -0.0017 1.0000
vn 0.0483 0.8112 0.5828
vn -0.2267 -0.8879 0.4002
vn -0.9214 0.0921 0.3776
vn 0.0192 0.0439 0.9988
vn -0.9658 -0.0417 0.2561
vn 0.9974 0.0362 0.0629
vn 0.0329 -0.8732 0.4863
vn 0.0229 0.0435 0.9988
vn 0.0257 0.9643 0.2634
vn 0.0129 -0.0615 0.9980
vn 0.5686 0.6509 -0.5029
vn 0.5691 0.2968 -0.7669
vn 0.5685 0.6517 -0.5021
vn 0.7800 0.4846 -0.3959
vn 0.6508 0.2162 -0.7278
vn 0.4612 -0.0226 -0.8870
vn -0.4719 0.6018 -0.6442
vn -0.3226 0.6189 -0.7162
vn -0.3499 0.3109 0.8837
vn -0.1381 0.6383 0.7573
vn 0.0643 0.4710 0.8798
vn -0.2457 0.2316 0.9413
vn 0.4373 0.6018 0.6683
vn 0.5571 0.6188 0.5537
vn 0.4928 -0.0198 -0.8699
vn -0.4746 0.0198 0.8800
vn -0.4606 0.0202 0.8874
usemtl Main.054
s 1
f 2//1 4//1 1//1
f 4//2 6//2 5//2
f 8//3 9//4 10//5
f 5//6 8//7 12//7
f 15//8 16//9 17//10
f 18//11 10//12 9//12
f 7//13 21//13 19//13
f 7//14 12//7 8//7
f 6//15 13//16 17//17
f 22//18 2//19 20//20
f 3//21 15//22 14//23
f 22//24 7//25 11//26
f 6//27 14//28 13//29
f 1//30 20//30 2//30
f 16//9 15//8 22//31
f 17//32 18//33 9//32
f 24//34 26//34 23//34
f 28//35 24//35 27//35
f 30//36 32//37 29//38
f 33//39 28//40 27//40
f 35//41 37//42 38//43
f 30//44 39//45 31//44
f 41//46 29//46 40//46
f 33//39 29//47 32//39
f 35//48 34//49 28//50
f 26//51 43//52 42//53
f 37//54 25//55 38//56
f 29//57 43//58 30//59
f 28//60 38//61 25//62
f 41//63 26//63 42//63
f 43//64 36//65 30//66
f 35//67 39//68 36//69
f 44//70 46//70 47//70
f 48//71 46//71 45//71
f 52//72 53//73 54//74
f 55//75 49//76 48//76
f 57//77 59//78 60//79
f 62//80 47//80 61//80
f 62//81 50//81 63//81
f 54//75 63//82 50//82
f 57//83 56//84 49//85
f 47//86 64//87 61//88
f 59//89 46//90 60//91
f 50//92 64//93 51//94
f 49//95 60//96 46//97
f 64//98 59//78 58//99
f 65//100 67//101 68//101
f 70//102 72//103 69//102
f 73//104 75//105 76//106
f 78//107 74//107 77//107
f 80//108 81//109 82//110
f 70//102 84//111 83//111
f 69//112 77//113 84//114
f 85//115 65//115 81//115
f 86//116 76//117 75//118
f 68//119 87//120 65//121
f 73//122 89//122 88//122
f 78//107 90//107 79//107
f 91//107 87//107 86//107
f 77//123 73//124 84//125
f 84//122 88//122 83//122
f 65//126 87//127 91//128
f 67//101 76//129 68//101
f 80//130 69//112 72//131
f 85//115 72//115 71//115
f 74//107 86//107 75//107
f 93//115 95//115 92//115
f 96//132 98//133 93//134
f 99//135 101//136 102//136
f 104//122 106//122 103//122
f 94//115 101//115 95//115
f 108//137 110//138 107//139
f 109//140 94//141 110//142
f 105//143 112//144 106//145
f 109//146 99//147 102//148
f 111//149 108//150 107//151
f 106//152 114//153 103//152
f 115//154 108//155 113//156
f 106//157 97//158 96//132
f 116//122 105//122 104//122
f 99//135 116//159 100//135
f 105//160 113//161 111//162
f 92//163 96//153 93//163
f 111//164 97//165 112//166
f 98//167 94//168 93//169
f 97//170 110//171 98//172
f 118//173 119//174 12//175
f 121//176 123//177 124//178
f 118//179 125//180 119//179
f 121//181 120//182 5//183
f 1//184 126//185 21//186
f 123//187 4//188 124//189
f 19//190 126//191 117//192
f 5//193 124//194 4//195
f 126//196 123//177 122//197
f 121//198 125//199 122//200
f 33//201 128//202 40//203
f 131//204 132//205 133//206
f 134//207 128//208 127//208
f 27//209 129//210 133//211
f 135//212 23//213 41//214
f 24//215 131//216 130//217
f 135//218 40//219 128//220
f 27//221 130//222 129//223
f 132//205 135//224 128//225
f 133//226 134//227 127//228
f 55//229 136//230 137//231
f 141//232 142//233 143//234
f 48//235 139//236 143//237
f 144//238 44//239 62//240
f 45//241 141//242 140//243
f 144//244 63//245 138//246
f 48//247 140//248 139//249
f 142//233 141//232 144//250
f 88//251 145//252 146//253
f 146//254 149//254 147//254
f 150//255 85//256 71//257
f 70//258 147//259 149//260
f 89//261 152//262 145//263
f 153//264 67//265 66//266
f 149//254 154//254 150//254
f 152//254 153//254 155//254
f 88//267 147//268 83//269
f 155//270 66//271 85//272
f 70//258 150//273 71//274
f 146//254 152//254 148//254
f 156//275 114//276 92//277
f 159//278 161//279 158//280
f 95//281 160//282 159//283
f 162//284 104//285 103//286
f 100//287 160//288 101//289
f 163//290 161//291 164//292
f 161//293 116//294 164//295
f 157//296 103//297 114//276
f 104//298 164//299 116//300
f 157//301 163//302 162//303
f 156//304 95//305 159//306
f 157//307 159//308 158//309
f 2//1 3//1 4//1
f 4//2 3//2 6//2
f 11//310 7//311 10//5
f 7//311 8//3 10//5
f 5//6 6//6 8//7
f 17//10 13//312 14//313
f 14//313 15//8 17//10
f 18//11 16//314 10//12
f 7//13 20//13 21//13
f 7//14 19//14 12//7
f 9//315 8//316 17//17
f 8//316 6//15 17//17
f 22//18 15//317 2//19
f 3//21 2//318 15//22
f 22//24 20//319 7//25
f 6//27 3//320 14//28
f 1//30 21//30 20//30
f 11//321 10//322 22//31
f 10//322 16//9 22//31
f 17//32 16//323 18//33
f 24//34 25//34 26//34
f 28//35 25//35 24//35
f 30//36 31//324 32//37
f 33//39 32//39 28//40
f 38//43 34//325 35//41
f 35//41 36//65 37//42
f 30//44 36//326 39//45
f 41//46 42//46 29//46
f 33//39 40//47 29//47
f 28//50 32//327 35//48
f 32//327 31//328 35//48
f 26//51 37//329 43//52
f 37//54 26//330 25//55
f 29//57 42//331 43//58
f 28//60 34//332 38//61
f 41//63 23//63 26//63
f 43//64 37//42 36//65
f 35//67 31//67 39//68
f 44//70 45//70 46//70
f 48//71 49//71 46//71
f 54//74 50//333 52//72
f 50//333 51//334 52//72
f 55//75 54//75 49//76
f 60//79 56//335 57//77
f 57//77 58//99 59//78
f 62//80 44//80 47//80
f 62//81 61//81 50//81
f 54//75 55//75 63//82
f 49//85 54//336 57//83
f 54//336 53//337 57//83
f 47//86 59//338 64//87
f 59//89 47//339 46//90
f 50//92 61//340 64//93
f 49//95 56//341 60//96
f 58//99 52//342 64//98
f 52//342 51//343 64//98
f 65//100 66//100 67//101
f 70//102 71//103 72//103
f 73//104 74//344 75//105
f 78//107 79//107 74//107
f 80//108 72//345 81//109
f 70//102 69//102 84//111
f 69//112 78//346 77//113
f 85//115 66//115 65//115
f 86//116 68//347 76//117
f 68//119 86//348 87//120
f 73//122 76//122 89//122
f 78//107 80//107 90//107
f 86//107 79//107 91//107
f 79//107 90//107 91//107
f 77//123 74//349 73//124
f 84//122 73//122 88//122
f 91//128 82//350 81//351
f 81//351 65//126 91//128
f 67//101 89//129 76//129
f 80//130 78//346 69//112
f 85//115 81//115 72//115
f 74//107 79//107 86//107
f 93//115 94//115 95//115
f 96//132 97//158 98//133
f 99//135 100//135 101//136
f 104//122 105//122 106//122
f 94//115 102//115 101//115
f 108//137 109//352 110//138
f 109//140 102//353 94//141
f 105//143 111//354 112//144
f 109//146 108//355 99//147
f 111//149 113//356 108//150
f 106//152 96//153 114//153
f 115//154 99//357 108//155
f 106//157 112//358 97//158
f 116//122 115//122 105//122
f 99//135 115//159 116//159
f 105//160 115//359 113//161
f 92//163 114//153 96//153
f 111//164 107//360 97//165
f 98//167 110//361 94//168
f 97//170 107//362 110//171
f 12//175 19//363 118//173
f 19//363 117//364 118//173
f 124//178 120//365 121//176
f 121//176 122//197 123//177
f 118//179 122//366 125//180
f 5//183 12//367 121//181
f 12//367 119//368 121//181
f 1//184 123//369 126//185
f 123//187 1//370 4//188
f 19//190 21//371 126//191
f 5//193 120//372 124//194
f 122//197 118//373 126//196
f 118//373 117//374 126//196
f 121//198 119//198 125//199
f 33//201 127//375 128//202
f 133//206 129//376 130//377
f 130//377 131//204 133//206
f 134//207 132//378 128//208
f 127//379 33//380 133//211
f 33//380 27//209 133//211
f 135//212 131//381 23//213
f 24//215 23//382 131//216
f 135//218 41//383 40//219
f 27//221 24//384 130//222
f 132//205 131//204 135//224
f 133//226 132//385 134//227
f 138//386 63//387 137//231
f 63//387 55//229 137//231
f 143//234 139//388 140//389
f 140//389 141//232 143//234
f 136//390 55//391 143//237
f 55//391 48//235 143//237
f 144//238 141//392 44//239
f 45//241 44//393 141//242
f 144//244 62//394 63//245
f 48//247 45//395 140//248
f 138//396 137//397 144//250
f 137//397 142//233 144//250
f 88//251 89//398 145//252
f 146//254 148//254 149//254
f 150//255 151//399 85//256
f 70//258 83//400 147//259
f 89//261 67//401 152//262
f 153//264 152//402 67//265
f 149//254 148//254 154//254
f 154//254 148//254 155//254
f 148//254 152//254 155//254
f 88//267 146//403 147//268
f 85//272 151//404 155//270
f 155//270 153//405 66//271
f 70//258 149//260 150//273
f 146//254 145//254 152//254
f 156//275 157//296 114//276
f 159//278 160//406 161//279
f 95//281 101//407 160//282
f 162//284 163//408 104//285
f 100//287 161//409 160//288
f 163//290 158//410 161//291
f 161//293 100//411 116//294
f 157//296 162//412 103//297
f 104//298 163//413 164//299
f 157//301 158//414 163//302
f 156//304 92//415 95//305
f 157//307 156//416 159//308
usemtl Highlights.046
f 52//417 165//418 53//419
f 57//420 165//421 58//422
f 91//423 90//423 82//423
f 90//424 80//424 82//424
f 166//425 137//426 136//426
f 143//427 166//428 136//427
f 155//429 151//429 154//429
f 154//430 151//430 150//430
f 52//417 58//431 165//418
f 57//420 53//420 165//421
f 166//425 142//432 137//426
f 143//427 142//433 166//428
