# Blender v3.0.0 OBJ File: ''
# www.blender.org
mtllib Brick.mtl
o Brick_Cube.001
v 0.275163 0.317648 0.055800
v 0.275163 0.317648 -0.084583
v 0.217149 0.317648 -0.090252
v 0.217149 0.317648 0.061468
v 0.276109 0.190355 -0.109600
v 0.264469 0.174502 -0.146630
v 0.269705 0.298772 -0.154224
v -0.252528 0.196557 -0.134835
v -0.252528 0.196557 0.106051
v -0.252743 0.317648 0.100380
v -0.252743 0.317648 -0.129164
v 0.275018 -0.001742 0.051980
v 0.216869 -0.001742 0.054065
v 0.216869 -0.001742 -0.082849
v 0.275018 -0.001742 -0.080763
v 0.208699 0.174502 -0.147905
v -0.210823 0.193311 -0.156308
v -0.224044 0.258577 -0.156743
v -0.221520 0.296653 -0.156792
v 0.182910 0.280175 -0.154202
v 0.190982 0.037069 -0.154290
v 0.269705 0.016944 -0.154224
v -0.237527 0.195031 -0.148359
v -0.218635 0.022595 -0.156824
v -0.222789 0.096149 -0.156753
v 0.276109 0.190355 0.080817
v -0.253953 -0.001742 -0.097166
v -0.253953 -0.001742 0.068383
v 0.269705 0.298772 0.125441
v 0.264469 0.174502 0.117846
v 0.208699 0.174502 0.119121
v 0.182910 0.280320 0.125419
v 0.007089 0.296740 0.126512
v -0.233529 0.296653 0.128009
v -0.245789 0.174502 0.127875
v 0.269705 0.016944 0.125441
v 0.190982 0.037069 0.125507
v -0.230644 0.022595 0.128040
v 0.194689 0.303975 0.103418
v 0.248144 0.298283 0.125435
v -0.224044 0.258577 -0.156743
v -0.210823 0.193311 -0.156308
v -0.222789 0.096149 -0.156753
vn 0.0000 1.0000 0.0000
vn 0.9690 -0.0357 -0.2446
vn 0.9925 0.0084 -0.1220
vn 0.9961 0.0240 -0.0846
vn -1.0000 0.0070 -0.0000
vn -1.0000 -0.0018 -0.0000
vn 0.0000 -1.0000 -0.0000
vn 0.0086 -0.0114 -0.9999
vn 0.0077 -0.0039 -1.0000
vn 0.0160 -0.0481 -0.9987
vn 0.0465 0.8228 -0.5665
vn 0.0388 0.8507 -0.5242
vn 0.0381 0.8531 -0.5203
vn -0.1085 -0.9391 -0.3261
vn -0.1336 -0.9300 -0.3424
vn 0.0089 -0.9689 -0.2471
vn -0.6542 0.0367 -0.7554
vn -0.6665 0.0432 -0.7442
vn -0.6627 0.0402 -0.7478
vn 0.0063 0.0026 -1.0000
vn 0.0096 0.0117 -0.9999
vn 0.0183 0.0340 -0.9993
vn 1.0000 -0.0057 -0.0000
vn 1.0000 0.0008 -0.0000
vn -0.7125 -0.0584 -0.6992
vn -0.6712 -0.0372 -0.7403
vn -0.8032 -0.0905 -0.5888
vn 0.9944 0.0208 -0.1036
vn 0.9658 -0.0454 -0.2553
vn -1.0000 0.0072 0.0000
vn 0.0312 -0.8804 -0.4732
vn 0.0133 -0.9239 -0.3824
vn 0.0339 -0.8730 -0.4865
vn 1.0000 0.0074 0.0000
vn 0.0153 0.0475 -0.9988
vn 0.0197 0.0451 -0.9988
vn 0.0133 0.0486 -0.9987
vn -0.0980 0.9298 -0.3548
vn -0.0896 0.9329 -0.3489
vn 0.0257 0.9643 -0.2634
vn 0.0185 -0.0572 -0.9982
vn 0.0156 -0.0595 -0.9981
vn 0.0129 -0.0615 -0.9980
vn 0.9925 0.0084 0.1220
vn 0.9690 -0.0358 0.2447
vn 0.9961 0.0240 0.0846
vn 0.0146 -0.0292 0.9995
vn 0.0062 -0.0017 1.0000
vn 0.0102 -0.0100 0.9999
vn -0.1336 -0.9300 0.3424
vn -0.1085 -0.9391 0.3261
vn 0.0089 -0.9689 0.2471
vn -0.9098 0.0835 0.4065
vn -0.8259 0.0333 0.5629
vn -0.8114 0.0259 0.5839
vn 0.0166 0.0357 0.9992
vn 0.0087 0.0104 0.9999
vn 0.0060 0.0017 1.0000
vn -0.9595 -0.0492 0.2773
vn -0.9229 -0.0841 0.3758
vn -0.9145 -0.0907 0.3943
vn 0.9658 -0.0454 0.2553
vn 0.9944 0.0208 0.1036
vn 0.0304 -0.8802 0.4736
vn 0.0134 -0.9229 0.3847
vn 0.0114 -0.9274 0.3739
vn 0.0197 0.0451 0.9988
vn 0.0153 0.0475 0.9988
vn 0.0133 0.0486 0.9987
vn 0.0064 0.9579 0.2869
vn -0.0217 0.9539 0.2993
vn -0.0077 0.9612 0.2757
vn 0.0092 -0.0588 0.9982
vn 0.0151 -0.0557 0.9983
vn 0.0205 -0.0574 0.9981
vn 0.0087 0.8213 0.5704
vn 0.0300 0.9136 0.4055
vn 0.0089 0.9432 0.3321
vn 0.0175 -0.0552 -0.9983
vn 0.0200 -0.0026 -0.9998
vn 0.0472 0.8203 -0.5700
vn -0.2267 -0.8879 -0.4002
vn -0.6508 0.0379 -0.7583
vn -0.6462 0.0419 -0.7620
vn 0.0220 0.0436 -0.9988
vn 0.0061 0.0013 -1.0000
vn -0.8509 -0.0476 -0.5231
vn -0.8304 -0.0720 -0.5525
vn 0.9974 0.0362 -0.0629
vn 0.0113 -0.9282 -0.3719
vn 0.0228 0.0435 -0.9988
vn -0.1904 0.8881 -0.4184
vn 0.0228 -0.0539 -0.9983
vn 0.0083 -0.0467 0.9989
vn 0.0007 -0.0592 0.9982
vn -0.2267 -0.8879 0.4002
vn -0.9214 0.0921 0.3776
vn 0.0192 0.0439 0.9988
vn -0.9658 -0.0417 0.2561
vn 0.9974 0.0362 0.0629
vn 0.0329 -0.8732 0.4863
vn 0.0228 0.0435 0.9988
vn -0.0220 0.9654 0.2599
vn 0.0172 0.9615 0.2741
vn 0.0205 -0.0585 0.9981
vn 0.0011 -0.0610 0.9981
vn 0.0035 0.7974 0.6035
vn 0.0016 0.9505 0.3107
vn 0.0664 0.6616 0.7469
vn -0.1980 0.7186 0.6666
vn -0.2885 -0.0648 -0.9553
vn -0.2828 0.0392 -0.9584
usemtl Main.053
s 1
f 2//1 4//1 1//1
f 5//2 7//3 2//4
f 9//5 11//6 8//5
f 13//7 15//7 12//7
f 3//1 10//1 4//1
f 17//8 19//9 20//10
f 19//11 3//12 20//13
f 14//14 22//15 15//16
f 18//17 23//18 8//19
f 25//20 17//21 21//22
f 15//23 26//24 12//23
f 8//25 23//26 25//27
f 15//28 6//29 5//2
f 13//7 27//7 14//7
f 9//5 27//30 28//30
f 14//31 24//32 21//33
f 1//34 5//24 2//34
f 21//35 6//36 22//37
f 7//38 3//39 2//40
f 6//41 20//42 7//43
f 29//44 26//45 1//46
f 33//47 34//48 35//49
f 36//50 13//51 12//52
f 9//53 34//54 10//55
f 37//56 35//57 38//58
f 35//59 28//60 38//61
f 30//62 12//63 26//45
f 13//64 38//65 28//66
f 30//67 37//68 36//69
f 4//70 39//71 40//72
f 40//73 32//74 31//75
f 10//76 33//77 4//78
f 2//1 3//1 4//1
f 5//2 6//29 7//3
f 9//5 10//6 11//6
f 13//7 14//7 15//7
f 3//1 11//1 10//1
f 20//10 16//79 17//8
f 17//8 18//80 19//9
f 19//11 11//81 3//12
f 14//14 21//82 22//15
f 8//19 11//83 18//17
f 11//83 19//84 18//17
f 16//85 21//22 17//21
f 21//22 24//86 25//20
f 15//23 5//24 26//24
f 25//27 24//87 27//88
f 27//88 8//25 25//27
f 15//28 22//89 6//29
f 13//7 28//7 27//7
f 9//5 8//5 27//30
f 14//31 27//90 24//32
f 1//34 26//24 5//24
f 21//35 16//91 6//36
f 7//38 20//92 3//39
f 6//41 16//93 20//42
f 29//44 30//62 26//45
f 35//49 31//94 33//47
f 31//94 32//95 33//47
f 36//50 37//96 13//51
f 9//53 35//97 34//54
f 37//56 31//98 35//57
f 35//59 9//99 28//60
f 30//62 36//100 12//63
f 13//64 37//101 38//65
f 30//67 31//102 37//68
f 40//72 29//103 1//104
f 1//104 4//70 40//72
f 31//75 30//105 40//73
f 30//105 29//106 40//73
f 34//107 33//77 10//76
f 33//77 39//108 4//78
usemtl Highlights.045
f 32//109 39//109 33//109
f 40//110 39//110 32//110
f 41//111 42//111 23//111
f 42//112 43//112 23//112
