# Blender 3.5.1
# www.blender.org
mtllib Dart.mtl
o Dart_Cylinder.031
v 0.000820 0.012415 0.128627
v 0.000820 0.012415 -0.345758
v -0.009722 0.006329 -0.345758
v -0.009722 0.006329 0.128627
v -0.009722 -0.005844 -0.345758
v -0.009722 -0.005844 0.128627
v 0.000820 -0.011930 -0.345758
v 0.000820 -0.011930 0.128627
v 0.011362 -0.005844 -0.345758
v 0.011362 -0.005844 0.128627
v 0.011362 0.006329 -0.345758
v 0.011362 0.006329 0.128627
v 0.000820 -0.011930 0.149629
v -0.034413 -0.005844 0.149629
v 0.000820 0.012415 0.149629
v -0.034413 0.006329 0.149629
v -0.002881 0.002135 0.353931
v 0.000820 0.004027 0.353931
v 0.036053 0.006329 0.149629
v 0.036053 -0.005844 0.149629
v 0.004520 0.002135 0.353931
v 0.004520 -0.001650 0.353931
v 0.000820 -0.003542 0.353931
v -0.002881 -0.001650 0.353931
v 0.005098 0.002086 -0.323773
v 0.045325 -0.068192 -0.365190
v 0.036921 -0.073003 -0.365190
v -0.003306 -0.002724 -0.323773
v -0.003306 -0.002725 -0.188452
v 0.020592 -0.044475 -0.215945
v 0.014712 -0.034203 -0.172914
v -0.003306 -0.002725 -0.134762
v 0.023116 -0.029392 -0.172914
v 0.005098 0.002086 -0.134762
v 0.005098 0.002086 -0.289529
v 0.038063 -0.055506 -0.311192
v 0.005098 0.002086 -0.188452
v 0.029659 -0.060316 -0.311192
v 0.028996 -0.039664 -0.215945
v 0.010736 -0.027256 -0.213825
v 0.019140 -0.022446 -0.213825
v 0.023238 -0.049098 -0.237991
v 0.031642 -0.044287 -0.237991
v 0.028390 -0.058097 -0.291744
v 0.036793 -0.053287 -0.291744
v 0.012386 -0.030138 -0.284974
v 0.020789 -0.025328 -0.284974
v -0.003306 -0.002725 -0.289529
v -0.003306 -0.002725 -0.269314
v 0.005098 0.002086 -0.269314
v -0.003306 -0.002725 -0.249098
v 0.005098 0.002086 -0.249098
v -0.003306 -0.002725 -0.228883
v 0.005098 0.002086 -0.228883
v -0.003306 -0.002725 -0.208668
v 0.005098 0.002086 -0.208668
v -0.002915 0.003026 -0.323773
v 0.037834 0.073003 -0.365190
v 0.046201 0.068130 -0.365190
v 0.005452 -0.001847 -0.323773
v 0.005452 -0.001847 -0.188452
v 0.029660 0.039724 -0.215945
v 0.023704 0.029496 -0.172914
v 0.005452 -0.001847 -0.134762
v 0.015336 0.034369 -0.172914
v -0.002915 0.003026 -0.134762
v -0.002915 0.003026 -0.289529
v 0.030478 0.060370 -0.311192
v -0.002915 0.003026 -0.188452
v 0.038845 0.055498 -0.311192
v 0.021292 0.044597 -0.215945
v 0.019676 0.022580 -0.213825
v 0.011309 0.027453 -0.213825
v 0.032341 0.044328 -0.237991
v 0.023973 0.049200 -0.237991
v 0.037559 0.053289 -0.291744
v 0.029191 0.058161 -0.291744
v 0.021347 0.025449 -0.284974
v 0.012980 0.030322 -0.284974
v 0.005452 -0.001847 -0.289529
v 0.005452 -0.001847 -0.269314
v -0.002915 0.003026 -0.269314
v 0.005452 -0.001847 -0.249098
v -0.002915 0.003026 -0.249098
v 0.005452 -0.001847 -0.228883
v -0.002915 0.003026 -0.228883
v 0.005452 -0.001847 -0.208668
v -0.002915 0.003026 -0.208668
v 0.000277 -0.004384 -0.323773
v -0.080699 -0.004083 -0.365190
v -0.080663 0.005601 -0.365190
v 0.000313 0.005299 -0.323773
v 0.000313 0.005299 -0.188452
v -0.047792 0.005478 -0.215945
v -0.035957 0.005434 -0.172914
v 0.000313 0.005299 -0.134762
v -0.035993 -0.004249 -0.172914
v 0.000277 -0.004384 -0.134762
v 0.000277 -0.004384 -0.289529
v -0.066081 -0.004137 -0.311192
v 0.000277 -0.004384 -0.188452
v -0.066045 0.005546 -0.311192
v -0.047828 -0.004205 -0.215945
v -0.027953 0.005404 -0.213825
v -0.027989 -0.004279 -0.213825
v -0.053119 0.005498 -0.237991
v -0.053155 -0.004185 -0.237991
v -0.063489 0.005537 -0.291744
v -0.063525 -0.004146 -0.291744
v -0.031273 0.005417 -0.284974
v -0.031309 -0.004266 -0.284974
v 0.000313 0.005299 -0.289529
v 0.000313 0.005299 -0.269314
v 0.000277 -0.004384 -0.269314
v 0.000313 0.005299 -0.249098
v 0.000277 -0.004384 -0.249098
v 0.000313 0.005299 -0.228883
v 0.000277 -0.004384 -0.228883
v 0.000313 0.005299 -0.208668
v 0.000277 -0.004384 -0.208668
vn -0.5000 0.8660 -0.0000
vn -1.0000 -0.0000 -0.0000
vn -0.5000 -0.8660 -0.0000
vn 0.5000 -0.8660 -0.0000
vn -0.0000 -0.0000 -1.0000
vn 1.0000 -0.0000 -0.0000
vn 0.5000 0.8660 -0.0000
vn -0.3193 -0.9410 -0.1124
vn -0.2808 -0.9503 -0.1344
vn -0.1669 -0.9663 -0.1962
vn -0.1738 0.9837 0.0463
vn -0.4276 0.9032 0.0377
vn -0.4549 0.8898 0.0365
vn 0.3193 0.9410 -0.1124
vn 0.2808 0.9503 -0.1344
vn 0.1669 0.9662 -0.1962
vn 0.3193 -0.9410 -0.1124
vn 0.2808 -0.9503 -0.1344
vn -0.3193 0.9410 -0.1124
vn -0.2808 0.9503 -0.1344
vn 0.1738 0.9837 0.0463
vn 0.4277 0.9031 0.0377
vn 0.1700 0.9843 0.0465
vn 0.1738 -0.9837 0.0463
vn 0.4277 -0.9031 0.0377
vn 0.4550 -0.8898 0.0365
vn -0.1738 -0.9837 0.0463
vn -0.4276 -0.9032 0.0377
vn -0.1700 -0.9843 0.0464
vn -0.1700 0.9843 0.0464
vn 0.1669 -0.9663 -0.1962
vn -0.1669 0.9662 -0.1962
vn 0.4550 0.8898 0.0365
vn 0.1700 -0.9843 0.0465
vn -0.4549 -0.8898 0.0365
vn -0.6479 -0.0000 -0.7617
vn 0.6479 -0.0000 -0.7617
vn -0.0000 -0.0000 1.0000
vn -0.9883 -0.0000 0.1525
vn 0.9883 -0.0000 0.1525
vn -0.2262 0.3952 -0.8903
vn -0.8679 -0.4968 -0.0000
vn 0.3601 -0.6290 0.6890
vn 0.8679 0.4968 -0.0000
vn -0.4968 0.8679 -0.0000
vn 0.4795 -0.8377 0.2613
vn 0.4790 -0.8368 0.2652
vn -0.0528 0.0922 -0.9943
vn 0.3441 -0.6011 0.7213
vn 0.4878 -0.8521 0.1894
vn 0.4878 -0.8522 0.1894
vn -0.1022 0.1785 -0.9786
vn 0.2991 -0.5225 0.7985
vn -0.4967 0.8679 -0.0000
vn -0.2292 -0.3935 -0.8903
vn 0.8642 -0.5032 -0.0000
vn 0.3647 0.6263 0.6890
vn 0.3648 0.6263 0.6890
vn -0.8642 0.5032 -0.0000
vn -0.5033 -0.8641 -0.0000
vn 0.4858 0.8341 0.2613
vn 0.4857 0.8341 0.2613
vn 0.4852 0.8332 0.2652
vn -0.0535 -0.0918 -0.9943
vn 0.3486 0.5985 0.7213
vn 0.3485 0.5986 0.7213
vn 0.4940 0.8486 0.1894
vn -0.1035 -0.1777 -0.9786
vn 0.3030 0.5203 0.7985
vn 0.3030 0.5202 0.7985
vn 0.4554 -0.0017 -0.8903
vn 0.0037 1.0000 -0.0000
vn -0.7247 0.0027 0.6890
vn -0.0037 -1.0000 -0.0000
vn 1.0000 -0.0037 -0.0000
vn -0.9652 0.0036 0.2613
vn -0.9642 0.0036 0.2652
vn 0.1063 -0.0004 -0.9943
vn -0.6926 0.0026 0.7213
vn -0.9819 0.0037 0.1894
vn 0.2056 -0.0008 -0.9786
vn -0.6020 0.0022 0.7985
vn 0.4796 -0.8377 0.2613
vn 0.3029 0.5203 0.7985
s 1
usemtl LightWood.016
f 2//1 4//1 1//1
f 3//2 6//2 4//2
f 5//3 8//3 6//3
f 7//4 10//4 8//4
f 7//5 5//5 2//5
f 9//6 12//6 10//6
f 11//7 1//7 12//7
f 2//1 3//1 4//1
f 3//2 5//2 6//2
f 5//3 7//3 8//3
f 7//4 9//4 10//4
f 5//5 3//5 2//5
f 2//5 11//5 9//5
f 9//5 7//5 2//5
f 9//6 11//6 12//6
f 11//7 2//7 1//7
usemtl Steel.006
f 6//8 13//9 14//10
f 15//11 17//12 18//13
f 12//14 15//15 19//16
f 10//17 13//18 8//4
f 4//19 15//20 1//1
f 15//21 21//22 19//23
f 13//24 22//25 23//26
f 13//27 24//28 14//29
f 6//8 8//3 13//9
f 15//11 16//30 17//12
f 12//14 1//7 15//15
f 10//17 20//31 13//18
f 4//19 16//32 15//20
f 15//21 18//33 21//22
f 13//24 20//34 22//25
f 13//27 23//35 24//28
usemtl LightSteel.007
f 6//36 16//36 4//36
f 12//37 20//37 10//37
f 23//38 22//38 21//38
f 14//39 17//39 16//39
f 19//40 22//40 20//40
f 6//36 14//36 16//36
f 12//37 19//37 20//37
f 21//38 18//38 23//38
f 18//38 17//38 23//38
f 17//38 24//38 23//38
f 14//39 24//39 17//39
f 19//40 21//40 22//40
usemtl DarkRed.009
f 26//41 28//41 25//41
f 29//42 31//42 32//42
f 32//43 33//43 34//43
f 36//44 25//44 35//44
f 32//45 37//45 29//45
f 27//46 36//46 38//46
f 31//47 39//47 33//47
f 30//48 41//48 39//48
f 40//49 43//49 41//49
f 42//50 45//51 43//50
f 46//52 45//52 44//52
f 38//53 47//53 46//53
f 28//45 35//45 25//54
f 49//45 35//45 48//45
f 51//45 50//45 49//45
f 53//45 52//45 51//45
f 55//45 54//45 53//45
f 29//45 56//45 55//45
f 33//44 37//44 34//44
f 37//44 41//44 56//44
f 41//44 54//44 56//44
f 43//44 52//44 54//44
f 52//44 47//44 50//44
f 47//44 35//44 50//44
f 28//42 38//42 48//42
f 48//42 46//42 49//42
f 46//42 51//42 49//42
f 51//42 42//42 53//42
f 53//42 40//42 55//42
f 40//42 29//42 55//42
f 57//55 59//55 60//55
f 61//56 63//56 64//56
f 63//57 66//57 64//58
f 68//59 57//59 67//59
f 64//60 69//60 61//60
f 59//61 68//62 70//62
f 62//63 65//63 63//63
f 62//64 73//64 71//64
f 72//65 75//66 73//65
f 74//67 77//67 75//67
f 78//68 77//68 76//68
f 70//69 79//70 78//70
f 80//60 57//60 60//60
f 81//60 67//60 80//60
f 83//60 82//60 81//60
f 85//60 84//60 83//60
f 87//60 86//60 85//60
f 61//60 88//60 87//60
f 65//59 69//59 66//59
f 69//59 73//59 88//59
f 73//59 86//59 88//59
f 75//59 84//59 86//59
f 84//59 79//59 82//59
f 79//59 67//59 82//59
f 60//56 70//56 80//56
f 80//56 78//56 81//56
f 78//56 83//56 81//56
f 83//56 74//56 85//56
f 85//56 72//56 87//56
f 72//56 61//56 87//56
f 90//71 92//71 89//71
f 93//72 95//72 96//72
f 96//73 97//73 98//73
f 100//74 89//74 99//74
f 96//75 101//75 93//75
f 102//76 90//76 100//76
f 95//77 103//77 97//77
f 104//78 103//78 94//78
f 104//79 107//79 105//79
f 106//80 109//80 107//80
f 110//81 109//81 108//81
f 102//82 111//82 110//82
f 112//75 89//75 92//75
f 113//75 99//75 112//75
f 115//75 114//75 113//75
f 117//75 116//75 115//75
f 119//75 118//75 117//75
f 93//75 120//75 119//75
f 97//74 101//74 98//74
f 101//74 105//74 120//74
f 105//74 118//74 120//74
f 107//74 116//74 118//74
f 116//74 111//74 114//74
f 111//74 99//74 114//74
f 92//72 102//72 112//72
f 112//72 110//72 113//72
f 110//72 115//72 113//72
f 115//72 106//72 117//72
f 117//72 104//72 119//72
f 104//72 93//72 119//72
f 26//41 27//41 28//41
f 29//42 30//42 31//42
f 32//43 31//43 33//43
f 36//44 26//44 25//44
f 32//45 34//45 37//45
f 27//46 26//83 36//46
f 31//47 30//47 39//47
f 30//48 40//48 41//48
f 40//49 42//49 43//49
f 42//50 44//51 45//51
f 46//52 47//52 45//52
f 38//53 36//53 47//53
f 28//45 48//45 35//45
f 49//45 50//45 35//45
f 51//45 52//45 50//45
f 53//45 54//45 52//45
f 55//45 56//45 54//45
f 29//45 37//45 56//45
f 33//44 39//44 37//44
f 37//44 39//44 41//44
f 41//44 43//44 54//44
f 43//44 45//44 52//44
f 52//44 45//44 47//44
f 47//44 36//44 35//44
f 28//42 27//42 38//42
f 48//42 38//42 46//42
f 46//42 44//42 51//42
f 51//42 44//42 42//42
f 53//42 42//42 40//42
f 40//42 30//42 29//42
f 57//55 58//55 59//55
f 61//56 62//56 63//56
f 63//57 65//57 66//57
f 68//59 58//59 57//59
f 64//60 66//60 69//60
f 59//61 58//61 68//62
f 62//63 71//63 65//63
f 62//64 72//64 73//64
f 72//65 74//66 75//66
f 74//67 76//67 77//67
f 78//68 79//68 77//68
f 70//69 68//84 79//70
f 80//60 67//60 57//60
f 81//60 82//60 67//60
f 83//60 84//60 82//60
f 85//60 86//60 84//60
f 87//60 88//60 86//60
f 61//60 69//60 88//60
f 65//59 71//59 69//59
f 69//59 71//59 73//59
f 73//59 75//59 86//59
f 75//59 77//59 84//59
f 84//59 77//59 79//59
f 79//59 68//59 67//59
f 60//56 59//56 70//56
f 80//56 70//56 78//56
f 78//56 76//56 83//56
f 83//56 76//56 74//56
f 85//56 74//56 72//56
f 72//56 62//56 61//56
f 90//71 91//71 92//71
f 93//72 94//72 95//72
f 96//73 95//73 97//73
f 100//74 90//74 89//74
f 96//75 98//75 101//75
f 102//76 91//76 90//76
f 95//77 94//77 103//77
f 104//78 105//78 103//78
f 104//79 106//79 107//79
f 106//80 108//80 109//80
f 110//81 111//81 109//81
f 102//82 100//82 111//82
f 112//75 99//75 89//75
f 113//75 114//75 99//75
f 115//75 116//75 114//75
f 117//75 118//75 116//75
f 119//75 120//75 118//75
f 93//75 101//75 120//75
f 97//74 103//74 101//74
f 101//74 103//74 105//74
f 105//74 107//74 118//74
f 107//74 109//74 116//74
f 116//74 109//74 111//74
f 111//74 100//74 99//74
f 92//72 91//72 102//72
f 112//72 102//72 110//72
f 110//72 108//72 115//72
f 115//72 108//72 106//72
f 117//72 106//72 104//72
f 104//72 94//72 93//72
