# Blender v3.0.0 OBJ File: ''
# www.blender.org
mtllib Flag_Wall2.mtl
o Flag_Wall2_Cylinder.001
v -0.135066 -0.976412 0.001001
v -0.183597 -0.987410 0.001001
v -0.158067 -1.165526 0.001001
v -0.127718 -1.159424 0.001001
v -0.285094 -0.954603 -0.010784
v -0.288073 -1.159839 -0.011220
v -0.300678 -0.475425 -0.009242
v -0.450575 -0.489067 -0.013904
v -0.348916 -0.761309 -0.018864
v -0.278934 -0.781629 -0.013224
v -0.205369 -0.467140 0.001001
v -0.179147 -0.804410 0.001001
v 0.000000 -0.580266 0.009793
v -0.073543 -0.519869 0.009389
v -0.081732 -0.754578 0.010222
v 0.000000 -0.738585 0.010294
v -0.144194 0.008352 0.005650
v -0.216476 0.008352 0.001001
v -0.221166 -0.308059 0.001001
v -0.137150 -0.300208 0.001001
v -0.141110 -0.509910 0.001001
v -0.146120 -0.778750 0.001001
v -0.072544 -0.970161 0.010557
v 0.000000 -0.980685 0.010557
v -0.271971 -0.004773 -0.008577
v -0.293907 -0.314379 -0.008000
v -0.079885 -1.378473 0.010557
v 0.000000 -1.388212 0.010557
v 0.000000 -1.147672 0.010557
v -0.066120 -1.155359 0.010557
v -0.301469 -1.379961 -0.011730
v -0.169709 -1.386125 0.001001
v -0.433275 -1.371794 -0.013904
v -0.433275 -1.147561 -0.013904
v -0.433275 -0.889974 -0.013904
v -0.131758 -1.387273 0.001001
v -0.117203 -0.004773 0.010551
v -0.082634 -0.299458 0.009167
v 0.000000 -0.004773 0.010557
v 0.000000 -0.288540 0.009463
v -0.444103 -0.310471 -0.013904
v -0.442786 -0.004773 -0.013904
v -0.441359 -0.292953 -0.013904
v -0.445850 -0.780397 -0.013904
v -0.433275 -0.813823 -0.013904
v -0.229643 -1.752567 0.001001
v -0.301469 -1.723181 -0.011730
v -0.337774 -2.306799 -0.011730
v -0.276735 -2.244015 0.001001
v -0.143657 -1.585693 0.001001
v -0.089474 -1.580742 0.010557
v -0.301469 -1.574882 -0.011730
v -0.196183 -1.592806 0.001001
v -0.419992 -1.709811 -0.013904
v -0.409914 -2.042926 -0.013904
v -0.433275 -1.566714 -0.013904
v 0.000000 -1.742195 0.010557
v -0.089406 -1.732911 0.010557
v -0.080680 -1.967321 0.010557
v 0.000000 -1.810188 0.010557
v 0.000000 -1.586418 0.010557
v -0.143747 -1.741031 0.001001
v -0.142662 -2.068264 0.001001
v 0.135066 -0.976412 0.001001
v 0.127718 -1.159424 0.001001
v 0.158067 -1.165526 0.001001
v 0.183597 -0.987410 0.001001
v 0.288073 -1.159839 -0.011220
v 0.285094 -0.954603 -0.010784
v 0.300678 -0.475425 -0.009242
v 0.278934 -0.781629 -0.013224
v 0.348916 -0.761309 -0.018864
v 0.450575 -0.489067 -0.013904
v 0.205369 -0.467140 0.001001
v 0.179147 -0.804410 0.001001
v 0.081732 -0.754578 0.010222
v 0.073543 -0.519869 0.009389
v 0.144194 0.008352 0.005650
v 0.137150 -0.300208 0.001001
v 0.221166 -0.308059 0.001001
v 0.216476 0.008352 0.001001
v 0.141110 -0.509910 0.001001
v 0.146120 -0.778750 0.001001
v 0.072544 -0.970161 0.010557
v 0.293907 -0.314379 -0.008000
v 0.271971 -0.004773 -0.008577
v 0.079885 -1.378473 0.010557
v 0.066120 -1.155359 0.010557
v 0.301469 -1.379961 -0.011730
v 0.169709 -1.386125 0.001001
v 0.433275 -1.371794 -0.013904
v 0.433275 -1.147561 -0.013904
v 0.433275 -0.889974 -0.013904
v 0.131758 -1.387273 0.001001
v 0.117203 -0.004773 0.010551
v 0.082634 -0.299458 0.009167
v 0.444103 -0.310471 -0.013904
v 0.441359 -0.292953 -0.013904
v 0.442786 -0.004773 -0.013904
v 0.445850 -0.780397 -0.013904
v 0.433275 -0.813823 -0.013904
v 0.229643 -1.752567 0.001001
v 0.276735 -2.244015 0.001001
v 0.337774 -2.306799 -0.011730
v 0.301469 -1.723181 -0.011730
v 0.089474 -1.580742 0.010557
v 0.143657 -1.585693 0.001001
v 0.196183 -1.592806 0.001001
v 0.301469 -1.574882 -0.011730
v 0.409914 -2.042926 -0.013904
v 0.419992 -1.709811 -0.013904
v 0.433275 -1.566714 -0.013904
v 0.080680 -1.967321 0.010557
v 0.089406 -1.732911 0.010557
v 0.143747 -1.741031 0.001001
v 0.142662 -2.068264 0.001001
v 0.000000 0.000000 -0.025254
v 0.472832 0.000000 -0.025254
v 0.472832 -0.017857 -0.017857
v 0.000000 -0.017857 -0.017857
v 0.472832 -0.025254 -0.000000
v 0.000000 -0.025254 -0.000000
v 0.472832 -0.017857 0.017857
v 0.000000 -0.017857 0.017857
v 0.472832 -0.000000 0.025254
v 0.000000 -0.000000 0.025254
v 0.472832 0.017857 0.017857
v 0.000000 0.017857 0.017857
v 0.472832 0.025254 0.000000
v 0.000000 0.025254 0.000000
v 0.472832 0.017857 -0.017857
v 0.000000 0.017857 -0.017857
v 0.270074 0.000000 -0.274844
v 0.265944 0.009972 -0.274845
v 0.265944 0.009972 -0.012738
v 0.270074 0.000000 -0.012739
v 0.255972 -0.014102 -0.274844
v 0.265944 -0.009972 -0.274844
v 0.265944 -0.009972 -0.012738
v 0.255972 -0.014102 -0.012738
v 0.246000 -0.009972 -0.274844
v 0.246000 -0.009972 -0.012738
v 0.255972 0.014102 -0.274845
v 0.255972 0.014102 -0.012739
v 0.246000 0.009972 -0.274845
v 0.241870 0.000000 -0.274844
v 0.241870 0.000000 -0.012738
v 0.246000 0.009972 -0.012738
v -0.472832 -0.017857 -0.017857
v -0.472832 0.000000 -0.025254
v -0.472832 -0.025254 -0.000000
v -0.472832 -0.017857 0.017857
v -0.472832 -0.000000 0.025254
v -0.472832 0.017857 0.017857
v -0.472832 0.025254 0.000000
v -0.472832 0.017857 -0.017857
v -0.270074 0.000000 -0.274844
v -0.270074 0.000000 -0.012738
v -0.265944 0.009972 -0.012738
v -0.265944 0.009972 -0.274845
v -0.255972 -0.014102 -0.274844
v -0.255972 -0.014102 -0.012738
v -0.265944 -0.009972 -0.012738
v -0.265944 -0.009972 -0.274844
v -0.246000 -0.009972 -0.274844
v -0.246000 -0.009972 -0.012738
v -0.255972 0.014102 -0.012739
v -0.255972 0.014102 -0.274844
v -0.246000 0.009972 -0.274844
v -0.246000 0.009972 -0.012738
v -0.241870 0.000000 -0.012738
v -0.241870 0.000000 -0.274844
v 0.485133 -0.033601 -0.033601
v 0.485133 -0.047519 -0.000000
v 0.485133 0.000000 -0.047519
v 0.485133 0.033601 -0.033601
v 0.550148 0.033601 -0.033601
v 0.550148 0.000000 -0.047519
v 0.485133 0.047519 0.000000
v 0.485133 -0.000000 0.047519
v 0.485133 0.033601 0.033601
v 0.485133 -0.033601 0.033601
v 0.550148 -0.033601 -0.033601
v 0.550148 -0.047519 -0.000000
v 0.550148 -0.033601 0.033601
v 0.550148 0.047519 0.000000
v 0.550148 -0.000000 0.047519
v 0.550148 0.033601 0.033601
v 0.563343 0.000000 -0.035006
v 0.563343 -0.024753 -0.024753
v 0.563343 -0.035006 -0.000000
v 0.563343 -0.024753 0.024753
v 0.563343 -0.000000 0.035006
v 0.563343 0.024753 0.024753
v 0.563343 0.035007 0.000000
v 0.563343 0.024753 -0.024753
v -0.485133 -0.047519 -0.000000
v -0.485133 -0.033601 -0.033601
v -0.485133 0.000000 -0.047519
v -0.550148 0.000000 -0.047519
v -0.550148 0.033601 -0.033601
v -0.485133 0.033601 -0.033601
v -0.485133 0.047519 0.000000
v -0.485133 0.033601 0.033601
v -0.485133 -0.000000 0.047519
v -0.485133 -0.033601 0.033601
v -0.550148 -0.047519 -0.000000
v -0.550148 -0.033601 -0.033601
v -0.550148 -0.033601 0.033601
v -0.550148 0.047519 0.000000
v -0.550148 0.033601 0.033601
v -0.550148 -0.000000 0.047519
v -0.563343 -0.024753 -0.024753
v -0.563343 0.000000 -0.035006
v -0.563343 -0.035007 -0.000000
v -0.563343 -0.024753 0.024753
v -0.563343 -0.000000 0.035007
v -0.563343 0.024753 0.024753
v -0.563343 0.035006 0.000000
v -0.563343 0.024753 -0.024753
vn -0.0583 -0.0010 0.9983
vn -0.0794 0.0008 0.9968
vn -0.0759 -0.0035 0.9971
vn -0.0586 -0.0018 0.9983
vn -0.0440 -0.0018 0.9990
vn -0.0697 -0.0132 0.9975
vn -0.0234 0.0011 0.9997
vn -0.1094 0.0015 0.9940
vn -0.0556 -0.0060 0.9984
vn -0.0656 0.0015 0.9978
vn 0.0000 0.0029 1.0000
vn -0.0725 0.0012 0.9974
vn 0.0000 0.0023 1.0000
vn -0.1070 -0.0063 0.9942
vn -0.0781 -0.0054 0.9969
vn -0.1149 -0.0176 0.9932
vn -0.0696 -0.0010 0.9976
vn -0.0635 0.0007 0.9980
vn 0.0000 0.0007 1.0000
vn -0.0703 0.0084 0.9975
vn -0.1066 0.0026 0.9943
vn -0.0651 -0.0005 0.9979
vn -0.0000 -0.0000 1.0000
vn -0.0744 0.0007 0.9972
vn -0.0906 0.0031 0.9959
vn -0.0484 0.0022 0.9988
vn -0.0556 0.0005 0.9985
vn -0.0169 -0.0004 0.9999
vn -0.0191 -0.0006 0.9998
vn -0.0923 0.0033 0.9957
vn -0.1101 -0.0132 0.9938
vn -0.0729 -0.0058 0.9973
vn -0.0746 -0.0028 0.9972
vn -0.0620 0.0021 0.9981
vn 0.0000 -0.0022 1.0000
vn 0.0000 -0.0039 1.0000
vn -0.0801 -0.0005 0.9968
vn -0.0355 -0.0026 0.9994
vn -0.0210 -0.0116 0.9997
vn -0.0368 0.0032 0.9993
vn 0.0509 0.0008 0.9987
vn 0.0016 0.0182 0.9998
vn -0.0894 0.0100 0.9959
vn -0.1755 0.0112 0.9844
vn -0.0857 0.0123 0.9962
vn -0.0891 0.0028 0.9960
vn -0.0658 0.0025 0.9978
vn -0.0612 0.0062 0.9981
vn -0.0238 0.0013 0.9997
vn -0.1577 0.0098 0.9874
vn -0.0165 -0.0007 0.9999
vn -0.0877 -0.0015 0.9961
vn -0.0279 -0.0001 0.9996
vn -0.0857 -0.0015 0.9963
vn -0.1281 -0.0009 0.9918
vn -0.0179 -0.0006 0.9998
vn -0.0857 0.0024 0.9963
vn 0.0794 0.0008 0.9968
vn 0.0583 -0.0010 0.9983
vn 0.0759 -0.0035 0.9971
vn 0.0586 -0.0018 0.9983
vn 0.0703 0.0084 0.9975
vn 0.0697 -0.0132 0.9975
vn 0.0234 0.0011 0.9997
vn 0.0210 -0.0116 0.9997
vn 0.0556 -0.0060 0.9984
vn 0.1094 0.0015 0.9940
vn 0.0725 0.0012 0.9974
vn 0.0620 0.0021 0.9981
vn 0.0781 -0.0054 0.9969
vn 0.1070 -0.0063 0.9942
vn 0.1149 -0.0176 0.9932
vn 0.0696 -0.0010 0.9976
vn 0.0635 0.0007 0.9980
vn 0.0746 -0.0028 0.9972
vn 0.0656 0.0015 0.9978
vn 0.0651 -0.0005 0.9979
vn 0.1066 0.0026 0.9943
vn 0.0744 0.0007 0.9972
vn 0.0906 0.0031 0.9959
vn 0.0484 0.0022 0.9988
vn 0.0556 0.0005 0.9985
vn 0.0169 -0.0004 0.9999
vn 0.0191 -0.0006 0.9998
vn -0.0016 0.0182 0.9998
vn 0.0440 -0.0018 0.9990
vn 0.0923 0.0033 0.9957
vn 0.1101 -0.0132 0.9938
vn 0.0801 -0.0005 0.9968
vn 0.0355 -0.0026 0.9994
vn 0.0729 -0.0058 0.9973
vn 0.0368 0.0032 0.9993
vn 0.0312 -0.0002 0.9995
vn -0.0509 0.0008 0.9987
vn 0.1755 0.0112 0.9844
vn 0.0894 0.0100 0.9959
vn 0.0857 0.0123 0.9962
vn 0.0891 0.0028 0.9960
vn 0.0658 0.0025 0.9978
vn 0.0238 0.0013 0.9997
vn 0.0179 -0.0006 0.9998
vn 0.0165 -0.0007 0.9999
vn 0.0877 -0.0015 0.9961
vn 0.0279 -0.0001 0.9996
vn 0.0857 -0.0015 0.9963
vn 0.1281 -0.0009 0.9918
vn 0.0612 0.0062 0.9981
vn 0.0857 0.0024 0.9963
vn -0.0312 -0.0002 0.9995
vn 0.0587 -0.0000 0.9983
vn -0.0587 -0.0000 0.9983
vn 0.1577 0.0098 0.9874
vn 0.0000 0.0000 -1.0000
vn 0.0000 -0.7071 -0.7071
vn 0.0000 -1.0000 -0.0000
vn 0.0000 -0.7071 0.7071
vn 0.0000 0.7071 0.7071
vn 0.0000 1.0000 0.0000
vn 0.0000 0.7071 -0.7071
vn 0.7071 0.7071 0.0000
vn 1.0000 -0.0000 0.0000
vn 0.7071 -0.7071 -0.0000
vn -0.7071 -0.7071 -0.0000
vn -1.0000 0.0000 0.0000
vn -0.7071 0.7071 0.0000
vn 0.0000 -0.0001 -1.0000
vn 0.0001 -0.0001 -1.0000
vn -0.0001 -0.0001 -1.0000
vn 0.0002 -0.0002 -1.0000
vn -0.8753 -0.4836 -0.0000
vn -0.8753 -0.3419 -0.3419
vn 0.3425 0.0000 -0.9395
vn -0.8753 -0.0000 -0.4836
vn -0.8753 0.4836 0.0000
vn -0.8753 0.3419 -0.3419
vn -0.8753 0.0000 0.4836
vn -0.8753 0.3419 0.3419
vn -0.8753 -0.3419 0.3419
vn 0.3425 -0.9395 -0.0000
vn 0.3425 -0.6643 0.6643
vn 0.3425 0.6643 -0.6643
vn 0.3425 0.6643 0.6643
vn 0.3425 -0.6643 -0.6643
vn 0.3425 0.9395 0.0000
vn 0.3425 -0.0000 0.9395
vn 0.6881 -0.0000 -0.7256
vn 0.6881 -0.5131 -0.5131
vn 0.6881 -0.7256 -0.0000
vn 0.6881 -0.5131 0.5131
vn 0.6881 0.0000 0.7256
vn 0.6881 0.5131 0.5131
vn 0.6881 0.7256 0.0000
vn 0.6881 0.5131 -0.5131
vn 0.8753 -0.4836 -0.0000
vn 0.8753 -0.3419 -0.3419
vn -0.3425 -0.0000 -0.9395
vn 0.8753 0.0000 -0.4836
vn 0.8753 0.3419 -0.3419
vn 0.8753 0.4836 0.0000
vn 0.8753 0.3419 0.3419
vn 0.8753 -0.0000 0.4836
vn 0.8753 -0.3419 0.3419
vn -0.3425 -0.9395 -0.0000
vn -0.3425 -0.6643 0.6643
vn -0.3425 0.6643 -0.6643
vn -0.3425 0.6643 0.6643
vn -0.3425 -0.6643 -0.6643
vn -0.3425 0.9395 0.0000
vn -0.3425 0.0000 0.9395
vn -0.6881 -0.0000 -0.7256
vn -0.6881 -0.7256 -0.0000
vn -0.6881 0.0000 0.7256
vn -0.6881 0.7256 0.0000
vn -0.6881 -0.5131 -0.5131
vn -0.6881 -0.5131 0.5131
vn -0.6881 0.5131 0.5131
vn -0.6881 0.5131 -0.5131
usemtl Flag.007
s 1
f 2//1 4//2 1//3
f 2//1 6//4 3//5
f 7//6 9//7 10//8
f 11//9 10//8 12//10
f 13//11 15//12 16//13
f 18//14 20//15 17//16
f 11//9 22//17 21//18
f 15//12 24//19 16//13
f 5//20 12//10 10//8
f 25//21 19//22 18//14
f 28//23 30//24 27//25
f 32//26 6//4 31//27
f 33//28 6//4 34//29
f 5//20 34//29 6//4
f 36//30 3//5 32//26
f 12//10 1//3 22//17
f 37//31 20//15 38//32
f 1//3 30//24 23//33
f 24//19 30//24 29//23
f 21//18 15//12 14//34
f 37//31 40//35 39//36
f 27//25 4//2 36//30
f 22//17 23//33 15//12
f 14//34 40//35 38//32
f 11//9 26//37 7//6
f 7//6 41//38 8//39
f 11//9 20//15 19//22
f 21//18 38//32 20//15
f 25//21 43//40 26//37
f 9//7 5//20 10//8
f 9//7 8//39 44//41
f 9//7 35//42 5//20
f 47//43 49//44 46//45
f 36//30 51//46 27//25
f 32//26 52//47 53//48
f 47//43 55//49 48//50
f 31//27 56//51 52//47
f 58//52 60//23 57//23
f 28//23 51//46 61//23
f 46//45 63//53 62//54
f 62//54 59//55 58//52
f 54//56 52//47 56//51
f 58//52 61//23 51//46
f 47//43 53//48 52//47
f 58//52 50//57 62//54
f 62//54 53//48 46//45
f 32//26 50//57 36//30
f 65//58 67//59 64//60
f 67//59 68//61 69//62
f 70//63 72//64 73//65
f 74//66 71//67 70//63
f 13//11 76//68 77//69
f 79//70 81//71 78//72
f 83//73 74//66 82//74
f 76//68 24//19 84//75
f 75//76 69//62 71//67
f 80//77 86//78 81//71
f 88//79 28//23 87//80
f 68//61 90//81 89//82
f 91//83 68//61 89//82
f 69//62 92//84 93//85
f 66//86 94//87 90//81
f 75//76 64//60 67//59
f 95//88 79//70 78//72
f 88//79 64//60 84//75
f 24//19 88//79 84//75
f 76//68 82//74 77//69
f 40//35 95//88 39//36
f 65//58 87//80 94//87
f 83//73 84//75 64//60
f 77//69 40//35 13//11
f 85//89 74//66 70//63
f 97//90 70//63 73//65
f 74//66 79//70 82//74
f 82//74 96//91 77//69
f 86//78 98//92 99//93
f 72//64 71//67 69//62
f 72//64 100//94 73//65
f 93//85 72//64 69//62
f 103//95 105//96 102//97
f 106//98 94//87 87//80
f 90//81 109//99 89//82
f 105//96 110//100 111//101
f 89//82 112//102 91//83
f 60//23 114//103 57//23
f 28//23 106//98 87//80
f 116//104 102//97 115//105
f 113//106 115//105 114//103
f 111//101 109//99 105//96
f 114//103 61//23 57//23
f 105//96 108//107 102//97
f 107//108 114//103 115//105
f 108//107 115//105 102//97
f 107//108 90//81 94//87
f 2//1 3//5 4//2
f 2//1 5//20 6//4
f 7//6 8//39 9//7
f 11//9 7//6 10//8
f 13//11 14//34 15//12
f 18//14 19//22 20//15
f 11//9 12//10 22//17
f 15//12 23//33 24//19
f 5//20 2//1 12//10
f 25//21 26//37 19//22
f 28//23 29//23 30//24
f 32//26 3//5 6//4
f 33//28 31//27 6//4
f 5//20 35//42 34//29
f 36//30 4//2 3//5
f 12//10 2//1 1//3
f 37//31 17//16 20//15
f 1//3 4//2 30//24
f 24//19 23//33 30//24
f 21//18 22//17 15//12
f 37//31 38//32 40//35
f 27//25 30//24 4//2
f 22//17 1//3 23//33
f 14//34 13//11 40//35
f 11//9 19//22 26//37
f 7//6 26//37 41//38
f 11//9 21//18 20//15
f 21//18 14//34 38//32
f 25//21 42//109 43//40
f 9//7 45//110 35//42
f 47//43 48//50 49//44
f 36//30 50//57 51//46
f 32//26 31//27 52//47
f 47//43 54//56 55//49
f 31//27 33//28 56//51
f 58//52 59//55 60//23
f 28//23 27//25 51//46
f 46//45 49//44 63//53
f 62//54 63//53 59//55
f 54//56 47//43 52//47
f 58//52 57//23 61//23
f 47//43 46//45 53//48
f 58//52 51//46 50//57
f 62//54 50//57 53//48
f 32//26 53//48 50//57
f 65//58 66//86 67//59
f 67//59 66//86 68//61
f 70//63 71//67 72//64
f 74//66 75//76 71//67
f 13//11 16//13 76//68
f 79//70 80//77 81//71
f 83//73 75//76 74//66
f 76//68 16//13 24//19
f 75//76 67//59 69//62
f 80//77 85//89 86//78
f 88//79 29//23 28//23
f 68//61 66//86 90//81
f 91//83 92//84 68//61
f 69//62 68//61 92//84
f 66//86 65//58 94//87
f 75//76 83//73 64//60
f 95//88 96//91 79//70
f 88//79 65//58 64//60
f 24//19 29//23 88//79
f 76//68 83//73 82//74
f 40//35 96//91 95//88
f 65//58 88//79 87//80
f 83//73 76//68 84//75
f 77//69 96//91 40//35
f 85//89 80//77 74//66
f 97//90 85//89 70//63
f 74//66 80//77 79//70
f 82//74 79//70 96//91
f 86//78 85//89 98//92
f 93//85 101//111 72//64
f 103//95 104//112 105//96
f 106//98 107//108 94//87
f 90//81 108//107 109//99
f 105//96 104//112 110//100
f 89//82 109//99 112//102
f 60//23 113//106 114//103
f 28//23 61//23 106//98
f 116//104 103//95 102//97
f 113//106 116//104 115//105
f 111//101 112//102 109//99
f 114//103 106//98 61//23
f 105//96 109//99 108//107
f 107//108 106//98 114//103
f 108//107 107//108 115//105
f 107//108 108//107 90//81
usemtl Wood.024
f 118//113 120//114 117//113
f 119//114 122//115 120//114
f 121//115 124//116 122//115
f 123//116 126//23 124//116
f 125//23 128//117 126//23
f 127//117 130//118 128//117
f 129//118 132//119 130//118
f 131//119 117//113 132//119
f 134//120 136//121 133//121
f 138//122 140//115 137//115
f 137//115 142//123 141//123
f 134//120 144//118 135//120
f 146//124 148//125 145//125
f 138//122 136//121 139//122
f 145//125 144//118 143//118
f 141//123 147//124 146//124
f 137//113 146//113 143//126
f 120//114 150//113 117//113
f 122//115 149//114 120//114
f 124//116 151//115 122//115
f 126//23 152//116 124//116
f 128//117 153//23 126//23
f 130//118 154//117 128//117
f 132//119 155//118 130//118
f 117//113 156//119 132//119
f 157//124 159//125 160//125
f 162//115 164//123 161//115
f 166//122 161//115 165//122
f 159//125 168//118 160//125
f 170//120 172//121 169//120
f 163//123 157//124 164//123
f 167//118 169//120 168//118
f 171//121 165//122 172//121
f 168//113 172//113 161//113
f 118//113 119//114 120//114
f 119//114 121//115 122//115
f 121//115 123//116 124//116
f 123//116 125//23 126//23
f 125//23 127//117 128//117
f 127//117 129//118 130//118
f 129//118 131//119 132//119
f 131//119 118//113 117//113
f 134//120 135//120 136//121
f 138//122 139//122 140//115
f 137//115 140//115 142//123
f 134//120 143//118 144//118
f 146//124 147//124 148//125
f 138//122 133//121 136//121
f 145//125 148//125 144//118
f 141//123 142//123 147//124
f 133//113 138//113 137//113
f 137//113 141//113 146//113
f 146//113 145//127 143//126
f 143//126 134//128 133//113
f 133//113 137//113 143//126
f 120//114 149//114 150//113
f 122//115 151//115 149//114
f 124//116 152//116 151//115
f 126//23 153//23 152//116
f 128//117 154//117 153//23
f 130//118 155//118 154//117
f 132//119 156//119 155//118
f 117//113 150//113 156//119
f 157//124 158//124 159//125
f 162//115 163//123 164//123
f 166//122 162//115 161//115
f 159//125 167//118 168//118
f 170//120 171//121 172//121
f 163//123 158//124 157//124
f 167//118 170//120 169//120
f 171//121 166//122 165//122
f 161//113 164//113 157//113
f 157//113 160//129 168//113
f 168//113 169//113 172//113
f 172//113 165//113 161//113
f 161//113 157//113 168//113
usemtl Metal.025
f 121//130 173//131 174//130
f 176//119 178//132 175//113
f 118//133 173//131 119//131
f 129//134 176//135 131//135
f 125//136 181//137 127//137
f 121//130 182//138 123//138
f 118//133 176//135 175//133
f 129//134 181//137 179//134
f 125//136 182//138 180//136
f 173//114 184//139 174//115
f 174//115 185//140 182//116
f 179//118 177//141 176//119
f 180//23 188//142 181//117
f 175//113 183//143 173//114
f 181//117 186//144 179//118
f 182//116 187//145 180//23
f 183//143 189//146 190//147
f 183//143 191//148 184//139
f 184//139 192//149 185//140
f 185//140 193//150 187//145
f 188//142 193//150 194//151
f 188//142 195//152 186//144
f 177//141 195//152 196//153
f 177//141 189//146 178//132
f 189//121 195//121 193//121
f 151//154 198//155 149//155
f 200//156 202//119 199//113
f 198//155 150//157 149//155
f 202//158 155//159 156//158
f 204//160 153//161 154//160
f 206//162 151//154 152//162
f 150//157 202//158 156//158
f 155//159 204//160 154//160
f 153//161 206//162 152//162
f 207//163 198//114 197//115
f 209//164 197//115 206//116
f 201//165 203//118 202//119
f 211//166 205//23 204//117
f 208//167 199//113 198//114
f 210//168 204//117 203//118
f 212//169 206//116 205//23
f 208//167 214//170 200//156
f 215//171 208//167 207//163
f 209//164 215//171 207//163
f 217//172 209//164 212//169
f 211//166 217//172 212//169
f 219//173 211//166 210//168
f 201//165 219//173 210//168
f 214//170 201//165 200//156
f 219//124 220//124 214//124
f 121//130 119//131 173//131
f 176//119 177//141 178//132
f 118//133 175//133 173//131
f 129//134 179//134 176//135
f 125//136 180//136 181//137
f 121//130 174//130 182//138
f 118//133 131//135 176//135
f 129//134 127//137 181//137
f 125//136 123//138 182//138
f 173//114 183//143 184//139
f 174//115 184//139 185//140
f 179//118 186//144 177//141
f 180//23 187//145 188//142
f 175//113 178//132 183//143
f 181//117 188//142 186//144
f 182//116 185//140 187//145
f 183//143 178//132 189//146
f 183//143 190//147 191//148
f 184//139 191//148 192//149
f 185//140 192//149 193//150
f 188//142 187//145 193//150
f 188//142 194//151 195//152
f 177//141 186//144 195//152
f 177//141 196//153 189//146
f 191//121 190//121 189//121
f 189//121 196//121 195//121
f 195//121 194//121 193//121
f 193//121 192//121 191//121
f 191//121 189//121 193//121
f 151//154 197//154 198//155
f 200//156 201//165 202//119
f 198//155 199//157 150//157
f 202//158 203//159 155//159
f 204//160 205//161 153//161
f 206//162 197//154 151//154
f 150//157 199//157 202//158
f 155//159 203//159 204//160
f 153//161 205//161 206//162
f 207//163 208//167 198//114
f 209//164 207//163 197//115
f 201//165 210//168 203//118
f 211//166 212//169 205//23
f 208//167 200//156 199//113
f 210//168 211//166 204//117
f 212//169 209//164 206//116
f 208//167 213//174 214//170
f 215//171 213//174 208//167
f 209//164 216//175 215//171
f 217//172 216//175 209//164
f 211//166 218//176 217//172
f 219//173 218//176 211//166
f 201//165 220//177 219//173
f 214//170 220//177 201//165
f 214//124 213//124 215//124
f 215//124 216//124 214//124
f 216//124 217//124 214//124
f 217//124 218//124 214//124
f 218//124 219//124 214//124
