# Blender v3.0.0 OBJ File: ''
# www.blender.org
mtllib Flag_RoundArch.mtl
o Flag_RoundArch_Cylinder.001
v 0.896172 3.233761 -0.056482
v 0.895558 3.233761 0.183462
v 1.083555 3.088839 0.193852
v 1.084053 3.088839 -0.006104
v 0.748866 3.323076 -0.064944
v 0.748222 3.323076 0.193852
v 0.864464 3.256218 0.193852
v 0.865168 3.256218 -0.089083
v 0.597975 2.697261 0.183461
v 0.384814 2.539146 0.183461
v 0.521092 2.435064 0.193851
v 0.747733 2.580036 0.193851
v 0.537661 2.792719 0.193851
v 0.342326 2.645878 0.193851
v -0.208500 2.695072 0.193851
v -0.220015 2.563355 0.193851
v -0.082023 2.551819 0.193851
v -0.080625 2.680856 0.193851
v 0.205564 2.739823 0.193851
v 0.082023 2.710226 0.193851
v 0.082023 2.551818 0.193851
v 0.226728 2.578460 0.193851
v -0.230571 2.522354 0.183461
v -0.082033 2.508288 0.183461
v 0.464999 2.866661 0.193851
v 0.330489 2.792107 0.193851
v 0.381313 2.948852 0.203408
v 0.283932 2.900395 0.203408
v 0.315712 2.802353 0.203408
v 0.444421 2.885935 0.203408
v 0.570445 2.976655 0.193851
v 0.645897 2.898285 0.193851
v 0.263250 2.887355 0.203408
v 0.185753 2.859599 0.203408
v 0.200679 2.769362 0.203408
v 0.235605 2.505571 0.183461
v 0.388111 2.382234 0.193851
v 0.700987 2.841589 0.185073
v -0.896502 3.233761 -0.112633
v -1.084500 3.088839 -0.102242
v -1.083555 3.088839 0.193852
v -0.910256 3.222431 0.184275
v -0.749167 3.323076 -0.102242
v -0.865409 3.256218 -0.102242
v -0.864464 3.256218 0.193852
v -0.735142 3.330600 0.198503
v -0.614350 2.770874 0.183461
v -0.771689 2.595359 0.193851
v -0.447924 2.516523 0.188824
v -0.369865 2.603428 0.183461
v -0.590405 2.801593 0.193851
v -0.350562 2.640336 0.193851
v 0.082033 2.508288 0.183461
v 0.118196 2.380131 0.193851
v -0.405963 2.963967 0.203408
v -0.466010 2.930132 0.203408
v -0.334290 2.808259 0.203408
v -0.320805 2.911750 0.203408
v -0.654713 2.872642 0.193851
v -0.553554 2.961207 0.193851
v -0.495917 2.884318 0.193851
v -0.338391 2.732271 0.193851
v -0.206139 2.747923 0.203408
v -0.185753 2.859599 0.203408
v -0.707845 2.845913 0.183461
v 0.073632 2.738147 0.203408
v 0.082023 2.839832 0.203408
v -0.082023 2.839832 0.203408
v -0.082023 2.725560 0.203408
v 0.072297 2.389982 0.193851
v -0.131038 2.250355 0.193851
v -0.388111 2.382234 0.193851
v -0.721343 3.338536 0.203409
v -0.529087 2.998859 0.203408
v -0.737915 3.329548 -0.102242
v 0.736970 3.329548 0.203409
v 0.547091 2.998836 0.203408
v 0.737695 3.329548 -0.095251
v 0.653403 3.377778 0.084824
v 0.653115 3.377778 0.203409
v 0.485064 3.060674 0.203408
v -0.654060 3.377778 -0.102242
v -0.653115 3.377778 0.203409
v -0.469961 3.032175 0.203408
v 0.852650 2.690489 0.193851
v -0.848878 2.735892 0.193851
v -0.855900 2.907496 0.193851
v -0.521092 2.435064 0.193851
v -0.472361 2.415704 0.193851
vn 0.5974 0.8019 0.0015
vn 0.6105 0.7920 0.0015
vn 0.5950 0.8037 0.0015
vn 0.4987 0.8668 0.0012
vn 0.5388 0.8424 0.0014
vn 0.5327 0.8463 0.0013
vn -0.0365 0.0382 0.9986
vn -0.0319 0.0553 0.9980
vn -0.0361 0.0424 0.9984
vn 0.0266 -0.0396 0.9989
vn 0.0624 -0.0692 0.9957
vn 0.0340 -0.0365 0.9988
vn 0.0000 -0.0000 1.0000
vn 0.0177 -0.0693 0.9974
vn -0.0748 -0.2257 0.9713
vn -0.0097 -0.2329 0.9724
vn -0.0099 -0.2321 0.9726
vn 0.0480 -0.0869 0.9951
vn 0.0253 -0.1469 0.9888
vn -0.0259 0.0602 0.9979
vn -0.0162 0.0700 0.9974
vn 0.0523 -0.0354 0.9980
vn 0.2119 -0.1277 0.9689
vn 0.2238 -0.1366 0.9650
vn -0.6105 0.7920 0.0019
vn -0.6019 0.7985 0.0020
vn -0.5989 0.8008 0.0028
vn -0.4986 0.8668 0.0016
vn -0.5439 0.8391 0.0017
vn -0.4988 0.8667 0.0016
vn 0.0315 0.0365 0.9988
vn 0.0239 0.0413 0.9989
vn 0.0247 0.0394 0.9989
vn -0.1562 -0.1893 0.9694
vn -0.1310 -0.2053 0.9699
vn -0.1698 -0.1944 0.9661
vn -0.0039 0.0780 0.9969
vn 0.0005 0.0821 0.9966
vn 0.0021 -0.2187 0.9758
vn -0.0180 -0.0190 0.9997
vn -0.0024 -0.0025 1.0000
vn -0.0224 -0.0236 0.9995
vn -0.5471 0.8370 0.0027
vn -0.1301 -0.2055 0.9700
vn -0.1472 -0.0806 0.9858
vn -0.1412 -0.1211 0.9825
vn -0.1469 -0.0803 0.9859
vn -0.0021 -0.2322 0.9727
vn -0.0177 0.0645 0.9978
vn -0.0091 0.0516 0.9986
vn -0.0023 0.0448 0.9990
vn 0.0175 0.0438 0.9989
vn -0.2532 -0.1431 0.9568
vn -0.1875 -0.1263 0.9741
vn -0.2563 -0.1451 0.9556
vn -0.4987 0.8668 0.0016
vn 0.2422 -0.1633 0.9564
vn 0.5024 -0.2876 0.8154
vn 0.5142 -0.2952 0.8053
vn 0.0603 -0.2972 0.9529
vn 0.0839 -0.3056 0.9485
vn 0.0789 -0.2950 0.9522
vn -0.0391 -0.1800 0.9829
vn -0.0052 -0.2051 0.9787
vn -0.0436 -0.1671 0.9850
vn 0.4989 0.8667 0.0012
vn 0.4986 0.8668 0.0012
vn 0.1707 -0.3028 0.9377
vn 0.2419 -0.4370 0.8664
vn 0.1627 -0.2935 0.9420
vn -0.4986 0.8668 0.0015
vn -0.1294 -0.1194 0.9844
vn -0.0948 -0.1201 0.9882
vn -0.1360 -0.1232 0.9830
vn -0.0007 -0.2157 0.9764
vn 0.0646 -0.3057 0.9499
vn -0.0746 -0.1286 0.9889
vn 0.2213 -0.4521 0.8641
vn 0.0886 -0.0631 0.9941
vn -0.0385 0.0251 0.9989
vn 0.2358 -0.1680 0.9572
vn 0.2289 -0.2180 0.9487
vn 0.2318 -0.2222 0.9471
vn -0.0384 0.0199 0.9991
vn -0.0374 0.0224 0.9991
vn -0.0376 0.0228 0.9990
vn -0.1372 -0.1100 0.9844
vn 0.0398 0.0296 0.9988
vn 0.0322 0.0305 0.9990
vn -0.1725 -0.1268 0.9768
vn 0.0420 0.0376 0.9984
vn 0.0734 0.0430 0.9964
vn 0.0888 0.0456 0.9950
vn 0.0250 0.0392 0.9989
vn 0.0224 0.0469 0.9986
vn 0.4990 0.8666 0.0012
vn -0.0715 -0.2277 0.9711
vn -0.6105 0.7920 0.0020
vn 0.0014 0.0812 0.9967
vn 0.0000 0.0875 0.9962
vn 0.0373 0.0465 0.9982
vn 0.0281 0.0352 0.9990
vn 0.0180 0.0454 0.9988
usemtl Flag.005
s 1
f 2//1 4//2 1//3
f 5//4 7//5 8//6
f 9//7 11//8 12//9
f 14//10 9//11 13//12
f 16//13 18//13 15//13
f 20//13 22//14 19//13
f 16//15 24//16 17//17
f 26//13 13//12 25//13
f 27//13 29//13 30//13
f 31//13 7//13 6//13
f 7//5 1//3 8//6
f 33//13 35//13 29//13
f 10//18 22//14 36//19
f 10//20 37//21 11//8
f 32//22 2//23 7//24
f 40//25 42//26 39//27
f 43//28 45//29 46//30
f 47//31 49//32 50//33
f 47//34 52//35 51//36
f 36//37 54//38 37//21
f 21//39 36//19 22//14
f 56//13 58//13 55//13
f 45//40 60//41 46//42
f 51//13 62//13 61//13
f 44//43 42//26 45//29
f 57//13 64//13 58//13
f 50//44 16//15 52//35
f 42//45 59//46 45//47
f 66//13 68//13 69//13
f 21//39 24//16 53//48
f 70//49 24//50 71//51
f 23//52 71//51 24//50
f 21//13 18//13 17//13
f 52//13 15//13 62//13
f 46//53 74//54 73//55
f 75//28 46//30 73//56
f 14//10 19//13 22//14
f 77//57 6//58 76//59
f 66//60 19//61 35//62
f 15//63 69//64 63//65
f 76//66 5//4 78//4
f 79//67 76//66 78//4
f 30//68 26//69 25//70
f 63//13 68//13 64//13
f 67//13 35//13 34//13
f 81//13 76//13 80//13
f 82//71 73//56 83//71
f 61//72 57//73 56//74
f 73//13 84//13 83//13
f 66//60 18//75 20//76
f 62//77 63//65 57//73
f 29//78 19//61 26//69
f 77//13 27//13 30//13
f 38//79 13//12 9//11
f 85//80 9//7 12//9
f 32//22 25//13 13//12
f 31//81 30//82 25//83
f 38//84 3//85 2//86
f 56//13 84//13 74//13
f 47//34 59//46 65//87
f 47//31 86//88 48//89
f 61//13 59//13 51//13
f 56//74 60//90 61//72
f 42//91 87//92 65//93
f 49//32 23//52 50//33
f 49//32 48//89 88//94
f 49//32 72//95 23//52
f 2//1 3//2 4//2
f 5//4 6//96 7//5
f 9//7 10//20 11//8
f 14//10 10//18 9//11
f 16//13 17//13 18//13
f 20//13 21//13 22//14
f 16//15 23//97 24//16
f 26//13 14//10 13//12
f 27//13 28//13 29//13
f 31//13 32//22 7//13
f 7//5 2//1 1//3
f 33//13 34//13 35//13
f 10//18 14//10 22//14
f 10//20 36//37 37//21
f 32//22 38//79 2//23
f 40//25 41//98 42//26
f 43//28 44//43 45//29
f 47//31 48//89 49//32
f 47//34 50//44 52//35
f 36//37 53//99 54//38
f 21//39 53//48 36//19
f 56//13 57//13 58//13
f 45//40 59//13 60//41
f 51//13 52//13 62//13
f 44//43 39//27 42//26
f 57//13 63//13 64//13
f 50//44 23//97 16//15
f 42//45 65//87 59//46
f 66//13 67//13 68//13
f 21//39 17//17 24//16
f 70//49 53//100 24//50
f 23//52 72//95 71//51
f 21//13 20//13 18//13
f 52//13 16//13 15//13
f 46//53 60//90 74//54
f 75//28 43//28 46//30
f 14//10 26//13 19//13
f 77//57 31//81 6//58
f 66//60 20//76 19//61
f 15//63 18//75 69//64
f 76//66 6//96 5//4
f 79//67 80//67 76//66
f 30//68 29//78 26//69
f 63//13 69//13 68//13
f 67//13 66//13 35//13
f 81//13 77//13 76//13
f 82//71 75//28 73//56
f 61//72 62//77 57//73
f 73//13 74//13 84//13
f 66//60 69//64 18//75
f 62//77 15//63 63//65
f 29//78 35//62 19//61
f 77//13 81//13 27//13
f 38//79 32//22 13//12
f 85//80 38//84 9//7
f 32//22 31//13 25//13
f 31//81 77//57 30//82
f 38//84 85//80 3//85
f 56//13 55//13 84//13
f 47//34 51//36 59//46
f 47//31 65//101 86//88
f 61//13 60//41 59//13
f 56//74 74//54 60//90
f 42//91 41//102 87//92
f 49//32 89//103 72//95
