# Blender v3.0.0 OBJ File: ''
# www.blender.org
mtllib Floor_Hole_Straight.mtl
o Floor_Hole_Straight_Cube.001
v 0.988275 -0.081898 -0.026163
v 0.969020 0.005964 -0.047913
v 0.763081 0.011635 -0.042569
v 0.774832 -0.081898 -0.027151
v 0.945846 0.033989 -0.069831
v 0.740181 0.033989 -0.052398
v 0.977319 -0.038617 -0.499893
v 0.990580 -0.081898 -0.508284
v 0.527093 0.033989 -0.067072
v 0.500305 -0.026034 -0.041173
v 0.956313 0.018512 -0.493010
v 0.740181 0.019741 -0.469145
v 0.500305 -0.042436 -0.499752
v 0.521311 0.018512 -0.493010
v -0.529247 0.005964 -0.039480
v -0.523902 0.011635 -0.239342
v -0.533731 0.033989 -0.261945
v -0.551165 0.033989 -0.062354
v 0.756666 -0.013599 -0.500821
v 0.740181 0.002488 -0.487857
v -0.981085 -0.042436 -0.498708
v -0.974343 0.018512 -0.477975
v -0.548405 0.033989 -0.472268
v -0.522506 -0.026034 -0.498708
v -0.507496 -0.081898 -0.020475
v -0.508485 -0.081898 -0.227743
v -0.981227 -0.038617 -0.031289
v -0.974343 0.018512 -0.052023
v -0.950478 0.019741 -0.261945
v -0.989617 -0.081898 -0.018200
v -0.989617 -0.081898 -0.495141
v -0.989617 -0.081898 -0.234523
v -0.982154 -0.013599 -0.245673
v -0.969191 0.002488 -0.261945
v -0.508485 -0.081898 -0.517899
v -0.986637 -0.081898 -0.510233
v -0.979779 -0.042436 -0.519511
v -0.991509 -0.081898 -0.514074
v -0.698317 -0.081898 -0.510942
v -0.706279 -0.033757 -0.516203
v -0.492411 -0.038617 -0.519332
v -0.513417 0.018512 -0.526216
v -0.726099 0.002488 -0.520552
v -0.479150 -0.081898 -0.510942
v -0.703198 0.011635 -0.976657
v -0.691448 -0.081898 -0.992075
v -0.994628 -0.081898 -0.992279
v -0.975323 -0.026034 -0.978069
v -0.958708 0.018512 -0.526049
v -0.726099 0.033989 -0.966828
v -0.948788 0.033989 -0.951911
v -0.523884 0.033989 -0.949395
v -0.481455 -0.081898 -0.993063
v -0.500710 0.005964 -0.971313
v 0.467031 0.018512 -0.526216
v 0.456564 0.033989 -0.949395
v 0.254349 0.033989 -0.966828
v 0.488629 -0.081898 -0.505303
v 0.480862 -0.081898 -0.027151
v 0.036330 0.033989 -0.064541
v 0.009542 -0.026034 -0.038642
v 0.484069 0.005964 -0.039828
v 0.453244 0.033989 -0.061746
v 0.003305 -0.081898 -0.027915
v 0.484210 -0.081898 -0.022534
v 0.484069 -0.038617 -0.504900
v 0.480214 -0.081898 -0.510373
v 0.455412 0.018512 -0.490634
v 0.009542 -0.042436 -0.504758
v 0.030548 0.018512 -0.477956
v 0.025941 -0.081898 -0.510373
v 0.010929 -0.081898 -0.349843
v 0.767963 -0.081898 -0.508284
v 0.503919 -0.081898 -0.508284
v -0.014878 0.005964 -0.047913
v -0.038052 0.033989 -0.069831
v -0.240267 0.033989 -0.052398
v -0.217366 0.011635 -0.042569
v -0.006579 -0.038617 -0.499893
v 0.004377 -0.081898 -0.026163
v 0.006682 -0.081898 -0.508284
v -0.240267 0.019741 -0.469145
v -0.027585 0.018512 -0.493010
v -0.462956 0.033989 -0.067315
v -0.489491 -0.026034 -0.041157
v -0.493947 -0.042436 -0.499714
v -0.223781 -0.013599 -0.500821
v -0.212485 -0.081898 -0.508284
v -0.476529 -0.081898 -0.508284
v -0.240267 0.002488 -0.487857
v -0.472876 0.018512 -0.493177
v -0.205615 -0.081898 -0.027151
v -0.508796 -0.081898 -0.026947
v -0.505676 -0.081898 -0.505152
v -0.476290 -0.042436 -0.514468
v -0.476290 -0.026034 -0.980583
v -0.482528 -0.081898 -0.991311
v -0.474903 -0.081898 -0.669383
v -0.005618 -0.081898 -0.508852
v -0.001763 -0.038617 -0.514326
v -0.459891 -0.081898 -0.508852
v -0.449502 0.033989 -0.954685
v -0.032588 0.033989 -0.957480
v -0.001763 0.005964 -0.979398
v -0.001622 -0.081898 -0.996691
v -0.030420 0.018512 -0.528592
v -0.455284 0.018512 -0.541270
v 0.014473 -0.042436 -0.519474
v 0.002796 -0.081898 -0.513923
v 0.501297 -0.081898 -0.510942
v 0.488036 -0.038617 -0.519332
v 0.277249 0.011635 -0.976657
v 0.289000 -0.081898 -0.992075
v -0.004970 -0.081898 -0.992075
v 0.014473 -0.026034 -0.978053
v 0.035479 0.018512 -0.526216
v 0.041261 0.033989 -0.952154
v 0.498993 -0.081898 -0.993063
v 0.479738 0.005964 -0.971313
v 0.504158 -0.042436 -0.514468
v 0.504158 -0.026034 -0.980583
v 0.497920 -0.081898 -0.991311
v 0.505545 -0.081898 -0.669383
v 0.988907 -0.081898 -0.508852
v 0.992762 -0.038617 -0.514326
v 0.520556 -0.081898 -0.508852
v 0.530945 0.033989 -0.954685
v 0.961937 0.033989 -0.957480
v 0.992762 0.005964 -0.979398
v 0.992903 -0.081898 -0.996691
v 0.964106 0.018512 -0.528592
v 0.525164 0.018512 -0.541270
v -0.107117 -0.076547 0.107117
v -0.107117 0.060812 0.107117
v -0.107117 0.060812 -0.107117
v -0.107117 -0.076547 -0.107117
v 0.107117 0.060812 -0.107117
v 0.107117 -0.076547 -0.107117
v 0.107117 0.060812 0.107117
v 0.107117 -0.076547 0.107117
v 0.000000 -0.078871 0.072114
v 0.000000 0.046403 0.072114
v -1.000000 0.046403 0.072114
v -1.000000 -0.078871 0.072114
v -1.000000 0.046403 -0.072114
v -1.000000 -0.078871 -0.072114
v 0.000000 0.046403 -0.072114
v 0.000000 -0.078871 -0.072114
v 0.000000 -0.078871 -0.072114
v 0.000000 0.046403 -0.072114
v 1.000000 0.046403 -0.072114
v 1.000000 -0.078871 -0.072114
v 1.000000 0.046403 0.072114
v 1.000000 -0.078871 0.072114
v 0.000000 0.046403 0.072114
v 0.000000 -0.078871 0.072114
vn 0.0043 0.2210 0.9753
vn 0.0213 0.1852 0.9825
vn -0.0045 0.2394 0.9709
vn 0.0400 0.6245 0.7800
vn 0.0719 0.4793 0.8747
vn 0.0375 0.6347 0.7719
vn 0.9588 0.2840 0.0038
vn 0.9757 0.2190 -0.0026
vn 0.9564 0.2921 0.0046
vn -0.0608 0.4128 0.9088
vn -0.0487 0.3681 0.9285
vn -0.0624 0.4187 0.9060
vn 0.7999 0.5986 -0.0425
vn 0.9320 0.3624 0.0070
vn 0.9389 0.3440 0.0106
vn -0.0145 0.9854 -0.1698
vn -0.0015 0.9994 -0.0349
vn -0.0821 0.6252 -0.7761
vn -0.9426 0.3340 -0.0006
vn -0.9179 0.3966 -0.0132
vn -0.9455 0.3257 0.0010
vn 0.8738 0.4807 0.0739
vn 0.7800 0.6244 0.0413
vn 0.7716 0.6350 0.0387
vn 0.0231 0.1390 -0.9900
vn -0.0586 0.5358 -0.8423
vn -0.0689 0.5822 -0.8101
vn -0.0006 0.3301 -0.9439
vn -0.0131 0.3922 -0.9198
vn -0.0142 0.3979 -0.9173
vn 0.9824 0.1858 0.0216
vn 0.9754 0.2204 0.0047
vn 0.9709 0.2394 -0.0046
vn -0.0348 0.9994 -0.0016
vn -0.0342 0.9994 -0.0030
vn -0.1729 0.9848 -0.0152
vn 0.0037 0.2806 0.9598
vn -0.0025 0.2163 0.9763
vn -0.0031 0.2107 0.9775
vn 0.9284 0.3682 -0.0493
vn 0.9088 0.4127 -0.0615
vn 0.9059 0.4187 -0.0632
vn -0.9810 0.1928 -0.0234
vn -0.9930 0.1184 -0.0027
vn -0.9776 0.2088 -0.0279
vn 0.0069 0.3583 0.9336
vn -0.0422 0.5937 0.8036
vn 0.0105 0.3400 0.9404
vn -0.7340 0.6742 0.0819
vn -0.8427 0.5351 -0.0592
vn -0.9900 0.1394 0.0233
vn -0.8101 0.5822 -0.0698
vn -0.9842 0.1773 0.0029
vn -0.9925 0.1212 0.0152
vn -0.9817 0.1903 0.0000
vn -0.0357 0.9994 -0.0005
vn -0.0348 0.9994 0.0012
vn -0.0363 0.9993 -0.0017
vn 0.9849 0.1725 -0.0154
vn 0.9734 0.2292 -0.0031
vn 0.9869 0.1604 -0.0180
vn -0.0149 0.3195 -0.9475
vn -0.0105 0.2851 -0.9584
vn -0.0101 0.2816 -0.9595
vn -0.0142 0.1216 0.9925
vn -0.0149 0.1095 0.9939
vn -0.0167 0.1027 0.9946
vn 0.0168 0.1278 0.9917
vn 0.0173 0.1261 0.9919
vn 0.0168 0.1281 0.9916
vn 0.0021 0.1807 0.9835
vn 0.0150 0.1210 0.9925
vn 0.0000 0.1903 0.9817
vn -0.0147 0.1725 -0.9849
vn -0.0023 0.2322 -0.9727
vn -0.0171 0.1605 -0.9869
vn 0.0484 0.9977 0.0479
vn 0.0237 0.9979 0.0606
vn 0.0678 0.9970 0.0378
vn -0.0249 0.9978 0.0616
vn -0.0547 0.9974 0.0475
vn -0.0741 0.9965 0.0383
vn -0.9463 0.3232 0.0059
vn -0.9575 0.2886 0.0013
vn -0.9585 0.2850 0.0009
vn 0.9588 0.2840 -0.0038
vn 0.9757 0.2190 0.0026
vn 0.9770 0.2133 0.0031
vn -0.0156 0.1109 0.9937
vn 0.0730 0.4805 -0.8740
vn 0.0407 0.6246 -0.7799
vn 0.0381 0.6350 -0.7716
vn -0.0471 0.3693 -0.9281
vn -0.0591 0.4154 -0.9077
vn -0.0606 0.4212 -0.9050
vn 0.9320 0.3624 -0.0070
vn 0.7999 0.5986 0.0425
vn 0.9389 0.3440 -0.0106
vn -0.9425 0.3340 -0.0085
vn -0.9180 0.3966 0.0043
vn -0.9155 0.4023 0.0055
vn 0.0215 0.1855 -0.9824
vn 0.0045 0.2207 -0.9753
vn -0.0046 0.2393 -0.9709
vn -0.0030 0.9993 0.0361
vn -0.0032 0.9993 0.0366
vn -0.0024 0.9993 0.0366
vn 0.0011 0.9994 -0.0348
vn -0.0005 0.9994 -0.0357
vn -0.0017 0.9993 -0.0363
vn -0.9574 0.2886 -0.0106
vn -0.9462 0.3232 -0.0151
vn -0.9585 0.2850 -0.0102
vn -0.0085 0.4134 0.9105
vn -0.0358 0.5782 0.8151
vn -0.0061 0.3985 0.9172
vn -0.0106 0.1928 0.9812
vn -0.0109 0.1901 0.9817
vn -0.0110 0.1897 0.9818
vn 0.0795 0.6736 -0.7348
vn 0.9969 -0.0785 -0.0073
vn 1.0000 -0.0043 -0.0007
vn 0.9961 -0.0877 -0.0082
vn -0.0041 0.2539 -0.9672
vn -0.0246 0.3932 -0.9191
vn -0.0272 0.4102 -0.9116
vn -0.0004 0.9993 -0.0367
vn -0.0011 0.9993 -0.0361
vn -0.0030 0.2294 0.9733
vn -0.0152 0.1724 0.9849
vn -0.0178 0.1604 0.9869
vn -0.0014 0.1396 -0.9902
vn -0.0001 0.1263 -0.9920
vn 0.0000 0.1255 -0.9921
vn -0.9997 -0.0224 -0.0004
vn -0.9952 0.0952 -0.0215
vn -0.9995 -0.0309 0.0011
vn -0.0026 0.1183 -0.9930
vn -0.0232 0.1930 -0.9809
vn -0.0276 0.2088 -0.9776
vn 0.7134 0.6977 -0.0647
vn 0.8813 0.4723 -0.0161
vn 0.8926 0.4507 -0.0118
vn 0.0407 0.6246 0.7799
vn 0.0730 0.4805 0.8740
vn 0.0381 0.6350 0.7716
vn -0.0149 0.9851 -0.1714
vn -0.0016 0.9994 -0.0349
vn -0.0835 0.6244 -0.7766
vn -0.0591 0.4154 0.9077
vn -0.0471 0.3693 0.9281
vn -0.0606 0.4212 0.9050
vn -0.0025 0.1178 -0.9930
vn -0.0221 0.1891 -0.9817
vn -0.0255 0.2014 -0.9792
vn 0.0808 0.6743 -0.7340
vn 0.0226 0.1341 -0.9907
vn -0.0564 0.5402 -0.8396
vn -0.0657 0.5844 -0.8088
vn 0.0150 0.1210 -0.9925
vn 0.0028 0.1775 -0.9841
vn 0.0000 0.1903 -0.9817
vn -0.0004 0.9994 -0.0356
vn -0.0015 0.9993 -0.0363
vn 0.0045 0.2207 0.9753
vn 0.0215 0.1855 0.9824
vn -0.0046 0.2393 0.9709
vn -0.0023 0.2322 0.9727
vn -0.0147 0.1725 0.9849
vn -0.0171 0.1605 0.9869
vn -0.9575 0.2886 -0.0013
vn -0.9463 0.3232 -0.0059
vn -0.9585 0.2850 -0.0009
vn -0.9425 0.3340 0.0085
vn -0.9180 0.3966 -0.0043
vn -0.9454 0.3258 0.0102
vn -0.9174 0.3978 -0.0035
vn -0.9417 0.3362 -0.0109
vn -0.9438 0.3304 -0.0116
vn 0.0148 0.1208 -0.9926
vn 0.0027 0.1777 -0.9841
vn -0.9952 0.0952 0.0215
vn -0.9997 -0.0224 0.0004
vn -0.9995 -0.0309 -0.0011
vn -0.0001 0.1264 0.9920
vn -0.0014 0.1396 0.9902
vn 0.0000 0.1255 0.9921
vn -0.0358 0.5782 -0.8151
vn -0.0085 0.4133 -0.9105
vn -0.0061 0.3985 -0.9172
vn -0.0109 0.1901 -0.9817
vn -0.0106 0.1928 -0.9812
vn -0.0110 0.1898 -0.9818
vn -0.0041 0.2539 0.9672
vn -0.0246 0.3932 0.9191
vn -0.0022 0.2412 0.9705
vn 0.9969 -0.0785 0.0073
vn 1.0000 -0.0043 0.0007
vn 1.0000 0.0016 0.0002
vn 0.8813 0.4723 0.0161
vn 0.7134 0.6977 0.0647
vn 0.8926 0.4507 0.0118
vn -0.9417 0.3362 0.0109
vn -0.9174 0.3978 0.0035
vn -0.9438 0.3304 0.0116
vn -0.0004 0.9993 0.0367
vn 0.0003 0.9993 0.0374
vn -0.0017 0.1432 0.9897
vn -0.0057 0.1864 0.9825
vn -0.0014 0.1397 0.9902
vn -0.0152 0.1724 -0.9849
vn -0.0030 0.2294 -0.9733
vn -0.0178 0.1604 -0.9869
vn 0.0007 0.9994 0.0355
vn 0.0025 0.9993 0.0363
vn -0.9462 0.3232 0.0151
vn -0.9574 0.2886 0.0106
vn -0.9585 0.2850 0.0102
vn -0.0487 0.3681 -0.9285
vn -0.0608 0.4128 -0.9088
vn -0.0624 0.4187 -0.9060
vn 0.9389 0.3439 -0.0106
vn -0.9426 0.3340 0.0006
vn -0.9179 0.3966 0.0132
vn -0.9154 0.4023 0.0144
vn -0.0001 0.1263 0.9920
vn -0.0013 0.1396 0.9902
vn -0.0348 0.5792 -0.8144
vn -0.0082 0.4128 -0.9108
vn -0.0059 0.3984 -0.9172
vn -0.0106 0.1901 -0.9817
vn -0.0103 0.1928 -0.9812
vn -0.0107 0.1897 -0.9818
vn -0.0039 0.2535 0.9673
vn -0.0239 0.3935 0.9190
vn -0.0022 0.2413 0.9705
vn 0.8926 0.4507 0.0117
vn 0.0002 0.9993 0.0374
vn 0.0302 0.1663 0.9856
vn 0.0748 0.4646 0.8824
vn 0.9770 0.2133 -0.0031
vn -0.0469 0.3614 0.9312
vn 0.7873 0.6149 -0.0462
vn -0.1090 0.0793 -0.9909
vn -0.0029 0.9994 -0.0342
vn -0.9154 0.4023 -0.0144
vn 0.8817 0.4655 0.0770
vn 0.0307 0.0994 -0.9946
vn 0.0010 0.3220 -0.9468
vn 0.9856 0.1663 0.0311
vn -0.9906 0.0787 -0.1122
vn -0.7761 0.6249 -0.0846
vn 0.0045 0.2887 0.9574
vn 0.9312 0.3614 -0.0475
vn -0.9941 0.1086 0.0000
vn -0.0458 0.6099 0.7912
vn -0.9946 0.0994 0.0311
vn -0.9936 0.1114 0.0173
vn -0.0342 0.9994 0.0024
vn 0.9699 0.2434 0.0000
vn -0.0152 0.3214 -0.9468
vn -0.0106 0.1396 0.9902
vn 0.0174 0.1259 0.9919
vn 0.0171 0.1114 0.9936
vn 0.0007 0.2463 -0.9692
vn 0.0047 0.9975 0.0704
vn -0.0061 0.9975 0.0704
vn -0.9456 0.3252 0.0062
vn 0.9564 0.2921 -0.0046
vn -0.0158 0.1120 0.9936
vn 0.0760 0.4656 -0.8817
vn -0.0454 0.3628 -0.9308
vn 0.7873 0.6149 0.0462
vn -0.9454 0.3258 -0.0102
vn 0.0307 0.1663 -0.9856
vn 0.0024 0.9994 -0.0342
vn -0.9455 0.3252 -0.0154
vn -0.0377 0.5895 0.8069
vn -0.0106 0.1931 0.9811
vn 1.0000 0.0016 -0.0002
vn -0.0022 0.2412 -0.9705
vn 0.0003 0.9993 -0.0374
vn 0.0000 0.2435 0.9699
vn -0.0014 0.1403 -0.9901
vn -0.9940 0.1065 -0.0235
vn 0.0000 0.1086 -0.9941
vn 0.6973 0.7135 -0.0684
vn 0.0760 0.4656 0.8817
vn -0.1107 0.0787 -0.9907
vn -0.0454 0.3628 0.9308
vn 0.0294 0.0965 -0.9949
vn 0.0171 0.1114 -0.9936
vn 0.0023 0.9994 -0.0342
vn 0.0307 0.1663 0.9856
vn 0.0007 0.2463 0.9692
vn -0.9456 0.3252 -0.0062
vn -0.9155 0.4023 -0.0055
vn -0.9136 0.4067 -0.0024
vn 0.0168 0.1114 -0.9936
vn -0.9940 0.1065 0.0235
vn -0.0014 0.1403 0.9901
vn -0.0377 0.5895 -0.8069
vn -0.0106 0.1931 -0.9811
vn -0.0272 0.4102 0.9116
vn 0.9961 -0.0877 0.0082
vn 0.6973 0.7135 0.0684
vn -0.9136 0.4067 0.0024
vn -0.0011 0.9993 0.0361
vn -0.0059 0.1886 0.9820
vn 0.0000 0.2435 -0.9699
vn -0.9455 0.3252 0.0154
vn -0.0469 0.3614 -0.9312
vn -0.9455 0.3257 -0.0010
vn -0.0367 0.5903 -0.8064
vn -0.0103 0.1931 -0.9811
vn -0.0263 0.4100 0.9117
vn -0.0010 0.9993 0.0361
vn -0.1878 0.1911 -0.9634
vn 0.0696 0.7334 -0.6762
vn -0.6762 0.7334 0.0705
vn -0.9630 0.1910 -0.1901
vn -0.6748 0.7319 0.0952
vn 0.0926 0.7320 -0.6749
vn -0.9243 -0.3718 -0.0864
vn -0.1053 0.1664 -0.9804
vn 0.0660 0.7336 -0.6764
vn 0.0940 0.7319 -0.6749
vn -0.9243 -0.3718 0.0864
vn -0.0012 0.1185 0.9929
vn -0.0001 0.1109 0.9938
vn -0.0013 0.1192 0.9929
vn -1.0000 -0.0000 0.0000
vn 0.0000 0.0000 -1.0000
vn 1.0000 0.0000 0.0000
vn 0.0000 -0.0000 1.0000
vn 0.0000 1.0000 0.0000
vn 0.0000 0.1099 0.9939
usemtl Main.066
s 1
f 2//1 4//2 1//3
f 5//4 3//5 2//6
f 7//7 1//8 8//9
f 10//10 6//11 9//12
f 5//13 7//14 11//15
f 12//16 5//17 11//18
f 13//19 9//20 14//21
f 16//22 18//23 15//24
f 13//25 20//26 19//27
f 21//28 23//29 24//30
f 26//31 15//32 25//33
f 18//34 17//35 29//36
f 27//37 25//38 15//39
f 17//40 24//41 23//42
f 31//43 33//44 21//45
f 27//46 18//47 28//48
f 33//49 27//49 34//49
f 34//50 21//51 33//52
f 27//53 32//54 30//55
f 29//56 23//57 22//58
f 26//59 24//60 16//61
f 24//62 36//63 21//64
f 37//65 39//66 40//67
f 40//68 42//69 43//70
f 41//71 39//72 44//73
f 46//74 48//75 45//76
f 43//77 51//78 49//79
f 52//80 43//81 42//82
f 48//83 38//84 37//85
f 41//86 53//87 54//88
f 43//89 37//65 40//67
f 45//90 52//91 54//92
f 50//93 48//94 51//95
f 41//96 52//97 42//98
f 37//99 51//100 48//101
f 46//102 54//103 53//104
f 55//105 56//106 57//107
f 9//108 12//109 14//110
f 58//111 10//112 13//113
f 61//114 63//115 60//116
f 65//117 61//118 64//119
f 19//120 20//120 7//120
f 66//121 65//122 67//123
f 68//124 69//125 70//126
f 70//127 63//127 68//128
f 10//129 4//130 3//131
f 71//132 66//133 67//134
f 72//135 61//136 69//137
f 19//138 74//139 13//140
f 63//141 66//142 68//143
f 76//144 78//145 75//146
f 79//7 80//8 81//9
f 82//147 76//148 83//149
f 85//150 77//151 84//152
f 87//153 89//154 86//155
f 76//13 79//14 83//15
f 87//156 90//156 79//156
f 86//157 90//158 87//159
f 88//160 79//161 81//162
f 84//108 82//163 91//164
f 75//165 92//166 80//167
f 85//168 92//169 78//170
f 94//171 85//172 86//173
f 86//174 84//175 91//176
f 61//177 70//178 69//179
f 73//180 7//181 8//162
f 96//182 98//183 95//184
f 100//185 101//186 99//187
f 103//188 96//189 102//190
f 96//191 105//192 97//193
f 106//194 95//195 100//196
f 100//197 105//198 104//199
f 100//200 103//201 106//202
f 107//203 96//204 95//205
f 107//206 103//206 102//207
f 109//208 111//209 108//210
f 113//211 115//212 112//213
f 116//214 57//107 117//215
f 115//216 109//217 108//218
f 111//86 118//87 119//88
f 112//90 56//91 119//92
f 57//219 115//220 117//221
f 111//96 56//97 55//222
f 108//223 117//224 115//225
f 113//102 119//103 118//104
f 121//182 123//183 120//184
f 125//226 126//227 124//187
f 128//228 121//229 127//230
f 121//231 130//232 122//233
f 131//234 120//235 125//236
f 125//197 130//198 129//199
f 125//200 128//201 131//237
f 132//203 121//204 120//205
f 132//206 128//206 127//238
f 2//1 3//239 4//2
f 5//4 6//240 3//5
f 7//7 2//241 1//8
f 10//10 3//242 6//11
f 5//13 2//243 7//14
f 11//18 7//244 12//16
f 12//16 6//245 5//17
f 13//19 10//246 9//20
f 16//22 17//247 18//23
f 13//25 14//248 20//26
f 21//28 22//249 23//29
f 26//31 16//250 15//32
f 29//36 27//251 28//252
f 28//252 18//34 29//36
f 27//37 30//253 25//38
f 17//40 16//254 24//41
f 31//43 32//255 33//44
f 27//46 15//256 18//47
f 34//50 22//257 21//51
f 27//53 33//258 32//54
f 29//56 17//259 23//57
f 26//59 35//260 24//60
f 24//62 35//261 36//63
f 37//65 38//262 39//66
f 40//68 41//263 42//69
f 41//71 40//264 39//72
f 46//74 47//265 48//75
f 43//77 50//266 51//78
f 52//80 50//267 43//81
f 48//83 47//268 38//84
f 41//86 44//269 53//87
f 43//89 49//270 37//65
f 45//90 50//271 52//91
f 50//93 45//272 48//94
f 41//96 54//273 52//97
f 37//99 49//274 51//100
f 46//102 45//275 54//103
f 9//108 6//276 12//109
f 58//111 59//277 10//112
f 61//114 62//278 63//115
f 65//117 62//279 61//118
f 66//121 62//280 65//122
f 68//124 66//281 69//125
f 70//127 60//282 63//127
f 10//129 59//283 4//130
f 71//132 69//284 66//133
f 72//135 64//285 61//136
f 19//138 73//286 74//139
f 63//141 62//287 66//142
f 76//144 77//288 78//145
f 79//7 75//241 80//8
f 83//149 79//289 82//147
f 82//147 77//245 76//148
f 85//150 78//290 77//151
f 87//153 88//286 89//154
f 76//13 75//243 79//14
f 86//157 91//291 90//158
f 88//160 87//292 79//161
f 84//108 77//293 82//163
f 75//165 78//294 92//166
f 85//168 93//295 92//169
f 94//171 93//296 85//172
f 86//174 85//297 84//175
f 61//177 60//298 70//178
f 73//180 19//299 7//181
f 96//182 97//300 98//183
f 100//185 95//301 101//186
f 103//188 104//302 96//189
f 96//191 104//303 105//192
f 106//194 107//304 95//195
f 100//197 99//305 105//198
f 100//200 104//306 103//201
f 107//203 102//307 96//204
f 107//206 106//308 103//206
f 109//208 110//309 111//209
f 113//211 114//310 115//212
f 116//214 55//105 57//107
f 115//216 114//311 109//217
f 111//86 110//269 118//87
f 112//90 57//271 56//91
f 57//219 112//312 115//220
f 111//96 119//273 56//97
f 108//223 116//313 117//224
f 113//102 112//275 119//103
f 121//182 122//300 123//183
f 125//226 120//301 126//227
f 128//228 129//314 121//229
f 121//231 129//315 130//232
f 131//234 132//316 120//235
f 125//197 124//305 130//198
f 125//200 129//306 128//201
f 132//203 127//307 121//204
f 132//206 131//317 128//206
usemtl Highlights.056
f 74//318 58//318 13//318
f 14//319 12//319 20//319
f 22//320 34//320 29//320
f 31//321 21//321 36//321
f 34//322 27//322 29//322
f 20//323 12//323 7//323
f 71//324 72//324 69//324
f 89//325 94//325 86//325
f 91//326 82//326 90//326
f 90//327 82//327 79//327
f 101//328 95//328 98//328
f 55//329 108//330 111//331
f 126//328 120//328 123//328
f 134//332 136//332 133//332
f 135//333 138//333 136//333
f 137//334 140//334 138//334
f 139//335 133//335 140//335
f 135//336 139//336 137//336
f 142//335 144//335 141//335
f 143//332 146//332 144//332
f 142//336 145//336 143//336
f 145//333 148//333 146//333
f 150//333 152//333 149//333
f 151//334 154//334 152//334
f 150//336 153//336 151//336
f 153//335 156//335 154//335
f 55//329 116//337 108//330
f 134//332 135//332 136//332
f 135//333 137//333 138//333
f 137//334 139//334 140//334
f 139//335 134//335 133//335
f 135//336 134//336 139//336
f 142//335 143//335 144//335
f 143//332 145//332 146//332
f 142//336 147//336 145//336
f 145//333 147//333 148//333
f 150//333 151//333 152//333
f 151//334 153//334 154//334
f 150//336 155//336 153//336
f 153//335 155//335 156//335
