# Blender v3.0.0 OBJ File: ''
# www.blender.org
mtllib Grass.mtl
o Grass_Plane.001
v 0.073138 0.666307 0.015454
v 0.049776 -0.015862 0.018910
v 0.049776 -0.015862 -0.018910
v 0.073138 0.666307 -0.015454
v 0.049775 0.996921 0.000000
v -0.159212 0.479759 -0.009667
v -0.178443 -0.015862 -0.023376
v -0.152217 -0.015862 -0.050627
v -0.137780 0.479759 -0.031938
v -0.165330 0.689435 -0.037002
v -0.073182 0.666307 -0.001125
v -0.067546 -0.015862 -0.024060
v -0.032534 -0.015862 -0.009756
v -0.044570 0.666307 0.010564
v -0.050040 0.996921 -0.016908
v -0.061732 0.666307 -0.102999
v -0.044530 -0.015862 -0.119180
v -0.022927 -0.015862 -0.088137
v -0.044077 0.666307 -0.077629
v -0.033729 0.996921 -0.103659
v 0.060598 0.479759 -0.123759
v 0.083395 -0.015862 -0.117591
v 0.068280 -0.015862 -0.082922
v 0.048246 0.479759 -0.095427
v 0.075838 0.689435 -0.100256
v -0.014487 0.666307 0.057917
v -0.007457 -0.015862 0.080464
v -0.044822 -0.015862 0.086316
v -0.045023 0.666307 0.062700
v -0.026140 0.996921 0.083390
v 0.132867 0.479759 0.050473
v 0.152555 -0.015862 0.063516
v 0.127279 -0.015862 0.091650
v 0.112210 0.479759 0.073465
v 0.139917 0.689435 0.077583
v 0.045005 0.666307 0.128533
v 0.062180 -0.015862 0.112323
v 0.083835 -0.015862 0.143330
v 0.062703 0.666307 0.153874
v 0.073007 0.996921 0.127827
v -0.174100 0.666307 0.052046
v -0.154907 -0.015862 0.038285
v -0.137604 -0.015862 0.071916
v -0.159960 0.666307 0.079530
v -0.146256 0.996921 0.055100
v -0.095423 0.479759 0.135541
v -0.076230 -0.015862 0.121779
v -0.058927 -0.015862 0.155410
v -0.081282 0.479759 0.163025
v -0.067578 0.689435 0.138594
v 0.147462 0.666307 -0.054080
v 0.159185 -0.015862 -0.033578
v 0.123958 -0.015862 -0.019812
v 0.118674 0.666307 -0.042830
v 0.141571 0.996921 -0.026695
v -0.148098 0.666307 -0.164192
v -0.126433 -0.015862 -0.154793
v -0.146401 -0.015862 -0.122673
v -0.164417 0.666307 -0.137943
v -0.136417 0.996921 -0.138733
v 0.054453 0.666102 0.015454
v 0.054453 0.666102 -0.015454
v 0.031100 -0.015217 -0.018910
v 0.031101 -0.015217 0.018910
v 0.031136 0.995591 0.000000
v -0.177759 0.479492 -0.009954
v -0.156313 0.479000 -0.032225
v -0.170726 -0.014640 -0.050914
v -0.196952 -0.014640 -0.023662
v -0.183662 0.686573 -0.037286
v -0.055357 0.665404 -0.001828
v -0.026730 0.665815 0.009861
v -0.014756 -0.014237 -0.010456
v -0.049767 -0.014237 -0.024760
v -0.032475 0.993607 -0.017600
v -0.043121 0.665955 -0.103207
v -0.025464 0.666103 -0.077838
v -0.004329 -0.015079 -0.088345
v -0.025933 -0.015079 -0.119389
v -0.015184 0.995309 -0.103866
v 0.079255 0.479540 -0.123628
v 0.066898 0.479301 -0.095296
v 0.086913 -0.014895 -0.082791
v 0.102028 -0.014895 -0.117460
v 0.094358 0.687163 -0.100126
v 0.000007 0.665181 0.059407
v -0.030567 0.664552 0.064186
v -0.030515 -0.012665 0.087786
v 0.006851 -0.012665 0.081934
v -0.012463 0.990615 0.084795
v 0.151431 0.479502 0.050742
v 0.130763 0.479038 0.073734
v 0.145808 -0.014677 0.091918
v 0.171084 -0.014677 0.063784
v 0.158279 0.686658 0.077848
v 0.063615 0.665954 0.128324
v 0.081315 0.666103 0.153664
v 0.102432 -0.015078 0.143121
v 0.080777 -0.015078 0.112114
v 0.091552 0.995307 0.127618
v -0.155456 0.666004 0.051892
v -0.141314 0.666116 0.079376
v -0.118972 -0.015138 0.071761
v -0.136274 -0.015138 0.038130
v -0.127668 0.995430 0.054946
v -0.076783 0.479259 0.135386
v -0.062637 0.479539 0.162870
v -0.040307 -0.014866 0.155256
v -0.057610 -0.014866 0.121625
v -0.049077 0.687095 0.138441
v 0.165228 0.665794 -0.053348
v 0.136424 0.665370 -0.042099
v 0.141659 -0.014181 -0.019083
v 0.176886 -0.014181 -0.032849
v 0.159046 0.993496 -0.025975
v -0.129471 0.666109 -0.164006
v -0.145791 0.665976 -0.137757
v -0.127788 -0.015105 -0.122487
v -0.107820 -0.015105 -0.154607
v -0.117853 0.995361 -0.138547
vn 0.9994 -0.0342 0.0000
vn 0.9975 0.0705 0.0000
vn 0.7197 -0.0471 0.6926
vn 0.7197 -0.0471 0.6927
vn 0.7161 0.1107 0.6891
vn -0.3780 -0.0342 0.9252
vn -0.3773 0.0705 0.9234
vn -0.8203 -0.0342 0.5709
vn -0.8188 0.0705 0.5698
vn -0.9157 -0.0471 -0.3992
vn -0.9110 0.1107 -0.3972
vn -0.1546 -0.0342 -0.9874
vn -0.1547 -0.0342 -0.9874
vn -0.1544 0.0705 -0.9855
vn -0.7431 -0.0471 -0.6676
vn -0.7430 -0.0471 -0.6676
vn -0.7393 0.1107 -0.6642
vn -0.8194 -0.0342 0.5722
vn -0.8178 0.0705 0.5712
vn -0.8887 -0.0342 0.4572
vn -0.8870 0.0705 0.4563
vn -0.8882 -0.0471 0.4570
vn -0.8837 0.1107 0.4547
vn -0.3638 -0.0342 -0.9309
vn -0.3631 0.0705 -0.9291
vn -0.8488 -0.0342 -0.5277
vn -0.8471 0.0705 -0.5267
vn -0.9994 0.0343 0.0000
vn -0.9975 -0.0706 0.0000
vn -0.7190 0.0472 -0.6934
vn -0.7197 0.0472 -0.6927
vn -0.7171 -0.1113 -0.6881
vn 0.3774 0.0343 -0.9254
vn 0.3780 0.0343 -0.9252
vn 0.3779 -0.0707 -0.9231
vn 0.8202 0.0343 -0.5711
vn 0.8203 0.0343 -0.5709
vn 0.8189 -0.0706 -0.5696
vn 0.9155 0.0472 0.3996
vn 0.9156 0.0472 0.3992
vn 0.9154 0.0471 0.3997
vn 0.9113 -0.1112 0.3965
vn 0.1537 0.0344 0.9875
vn 0.1546 0.0344 0.9874
vn 0.1555 -0.0709 0.9853
vn 0.7424 0.0472 0.6683
vn 0.7430 0.0472 0.6676
vn 0.7402 -0.1112 0.6631
vn 0.8192 0.0343 -0.5724
vn 0.8194 0.0343 -0.5722
vn 0.8180 -0.0706 -0.5709
vn 0.8886 0.0343 -0.4574
vn 0.8887 0.0343 -0.4572
vn 0.8871 -0.0706 -0.4562
vn 0.8880 0.0472 -0.4575
vn 0.8882 0.0472 -0.4570
vn 0.8841 -0.1112 -0.4539
vn 0.3631 0.0343 0.9311
vn 0.3637 0.0343 0.9309
vn 0.3638 -0.0707 0.9288
vn 0.8487 0.0343 0.5278
vn 0.8488 0.0343 0.5277
vn 0.8473 -0.0706 0.5264
vn 0.0002 0.0051 1.0000
vn -0.0001 0.0051 1.0000
vn -0.0345 -0.9994 0.0000
vn 0.0002 0.0051 -1.0000
vn -0.0001 0.0051 -1.0000
vn -0.0032 0.0466 0.9989
vn -0.0006 0.0467 0.9989
vn -0.0005 0.0467 0.9989
vn -0.0032 0.0466 -0.9989
vn -0.0006 0.0467 -0.9989
vn -0.0033 0.0466 -0.9989
vn -0.0172 -0.0271 0.9995
vn -0.0151 -0.0271 0.9995
vn -0.0648 -0.9959 -0.0624
vn 0.0179 0.0373 -0.9991
vn 0.0140 0.0373 -0.9992
vn 0.0139 0.0373 -0.9992
vn -0.0182 0.1302 0.9913
vn -0.0344 0.1283 0.9911
vn -0.0172 0.1304 0.9913
vn 0.0188 -0.0219 -0.9996
vn 0.0165 -0.0220 -0.9996
vn 0.0189 -0.0219 -0.9996
vn -0.0378 0.0334 -0.9987
vn -0.0423 0.0332 -0.9986
vn -0.0424 0.0332 -0.9986
vn 0.0814 -0.9766 -0.1993
vn 0.0386 -0.0292 0.9988
vn 0.0419 -0.0290 0.9987
vn -0.0419 -0.0450 -0.9981
vn -0.0475 -0.0443 -0.9979
vn -0.0416 -0.0451 -0.9981
vn 0.0420 0.0841 0.9956
vn 0.0546 0.0836 0.9950
vn 0.0550 0.0836 0.9950
vn -0.0122 0.0234 -0.9997
vn -0.0108 0.0234 -0.9997
vn 0.0417 -0.9987 -0.0290
vn 0.0118 -0.0151 0.9998
vn 0.0111 -0.0151 0.9998
vn -0.0113 -0.0010 -0.9999
vn -0.0112 -0.0010 -0.9999
vn 0.0123 0.0784 0.9968
vn 0.0177 0.0779 0.9968
vn 0.0179 0.0779 0.9968
vn 0.0076 -0.0121 -0.9999
vn 0.0069 -0.0121 -0.9999
vn 0.0077 -0.0121 -0.9999
vn 0.0517 -0.9984 0.0225
vn -0.0083 0.0250 0.9997
vn -0.0064 0.0244 0.9997
vn 0.0199 0.1110 -0.9936
vn 0.0089 0.1108 -0.9938
vn 0.0083 0.1108 -0.9938
vn -0.0042 0.0238 0.9997
vn -0.0041 0.0238 0.9997
vn 0.0999 -0.0320 -0.9945
vn 0.1090 -0.0317 -0.9935
vn 0.1092 -0.0317 -0.9935
vn 0.1017 -0.7537 0.6493
vn -0.0982 0.0346 0.9946
vn -0.1096 0.0344 0.9934
vn -0.0980 0.0347 0.9946
vn 0.1089 0.0814 -0.9907
vn 0.1380 0.0809 -0.9871
vn 0.1082 0.0814 -0.9908
vn -0.1094 -0.0566 0.9924
vn -0.1266 -0.0548 0.9904
vn -0.1270 -0.0547 0.9904
vn 0.0161 -0.0257 -0.9995
vn 0.0142 -0.0257 -0.9996
vn 0.0629 -0.9964 0.0565
vn -0.0167 0.0363 0.9992
vn -0.0132 0.0363 0.9993
vn -0.0131 0.0363 0.9993
vn 0.0171 0.1291 -0.9915
vn 0.0326 0.1272 -0.9913
vn 0.0162 0.1292 -0.9915
vn -0.0170 -0.0176 0.9997
vn -0.0153 -0.0176 0.9997
vn -0.0171 -0.0175 0.9997
vn -0.0122 0.0235 -0.9996
vn -0.0108 0.0235 -0.9997
vn 0.0418 -0.9987 -0.0292
vn 0.0119 -0.0151 0.9998
vn -0.0114 -0.0012 -0.9999
vn -0.0113 -0.0012 -0.9999
vn 0.0123 0.0785 0.9968
vn 0.0178 0.0780 0.9968
vn 0.0180 0.0780 0.9968
vn -0.0091 0.0199 -0.9998
vn -0.0080 0.0149 -0.9999
vn 0.0387 -0.9991 -0.0199
vn 0.0087 -0.0109 0.9999
vn 0.0082 -0.0109 0.9999
vn 0.0081 -0.0109 0.9999
vn -0.0075 0.0099 -0.9999
vn -0.0080 0.0150 -0.9999
vn 0.0092 0.0736 0.9972
vn 0.0139 0.0731 0.9972
vn 0.0141 0.0731 0.9972
vn -0.0097 0.0275 -0.9996
vn -0.0067 0.0273 -0.9996
vn 0.0532 -0.9982 -0.0274
vn 0.0090 -0.0150 0.9998
vn 0.0082 -0.0150 0.9999
vn 0.0081 -0.0150 0.9999
vn -0.0064 0.0155 -0.9999
vn -0.0077 0.0216 -0.9997
vn 0.0104 0.1161 0.9932
vn 0.0220 0.1144 0.9932
vn 0.0227 0.1142 0.9932
vn 0.0404 -0.0294 -0.9988
vn 0.0438 -0.0293 -0.9986
vn 0.0439 -0.0293 -0.9986
vn 0.0836 -0.9733 0.2140
vn -0.0394 0.0335 0.9987
vn -0.0442 0.0333 0.9985
vn 0.0439 0.0840 -0.9955
vn 0.0569 0.0834 -0.9949
vn 0.0434 0.0840 -0.9955
vn -0.0438 -0.0460 0.9980
vn -0.0498 -0.0453 0.9977
vn -0.0500 -0.0452 0.9977
vn 0.0105 -0.0135 -0.9999
vn 0.0099 -0.0135 -0.9999
vn 0.0404 -0.9989 0.0251
vn -0.0109 0.0221 0.9997
vn -0.0096 0.0221 0.9997
vn 0.0110 0.0767 -0.9970
vn 0.0162 0.0762 -0.9970
vn 0.0108 0.0767 -0.9970
vn -0.0098 0.0032 0.9999
vn -0.0099 0.0032 0.9999
vn -0.0097 0.0032 0.9999
vn -0.7197 0.0472 -0.6926
vn 0.3638 0.0343 0.9309
vn -0.0033 0.0466 0.9989
vn -0.0005 0.0467 -0.9989
vn 0.0180 0.0373 -0.9991
vn -0.0354 0.1282 0.9911
vn 0.0164 -0.0220 -0.9996
vn -0.0377 0.0334 -0.9987
vn 0.0420 -0.0290 0.9987
vn -0.0477 -0.0443 -0.9979
vn 0.0416 0.0841 0.9956
vn -0.0107 0.0234 -0.9997
vn 0.0121 0.0784 0.9968
vn 0.0206 0.1110 -0.9936
vn 0.0997 -0.0320 -0.9945
vn -0.1097 0.0344 0.9934
vn 0.1387 0.0809 -0.9870
vn -0.1089 -0.0567 0.9924
vn 0.0141 -0.0257 -0.9996
vn -0.0168 0.0363 0.9992
vn 0.0335 0.1270 -0.9913
vn -0.0152 -0.0176 0.9997
vn 0.0121 0.0785 0.9968
vn 0.0090 0.0736 0.9972
vn 0.0091 -0.0150 0.9998
vn -0.0063 0.0155 -0.9999
vn 0.0096 0.1163 0.9932
vn 0.0403 -0.0294 -0.9988
vn -0.0443 0.0333 0.9985
vn 0.0573 0.0834 -0.9949
vn -0.0435 -0.0460 0.9980
vn 0.0098 -0.0135 -0.9999
vn 0.0164 0.0762 -0.9970
usemtl Green.010
s 1
f 2//1 4//1 1//1
f 1//2 4//2 5//2
f 6//3 8//4 9//3
f 6//5 9//5 10//5
f 12//6 14//6 11//6
f 11//7 14//7 15//7
f 17//8 19//8 16//8
f 16//9 19//9 20//9
f 22//10 24//10 21//10
f 21//11 24//11 25//11
f 27//12 29//13 26//13
f 26//14 29//14 30//14
f 32//15 34//16 31//16
f 31//17 34//17 35//17
f 37//18 39//18 36//18
f 36//19 39//19 40//19
f 42//20 44//20 41//20
f 41//21 44//21 45//21
f 47//22 49//22 46//22
f 46//23 49//23 50//23
f 51//24 53//24 54//24
f 51//25 54//25 55//25
f 57//26 59//26 56//26
f 56//27 59//27 60//27
f 62//28 64//28 61//28
f 61//29 65//29 62//29
f 67//30 69//31 66//30
f 66//32 70//32 67//32
f 71//33 73//34 74//34
f 71//35 75//35 72//35
f 76//36 78//37 79//37
f 76//38 80//38 77//38
f 82//39 84//40 81//41
f 81//42 85//42 82//42
f 87//43 89//44 86//43
f 86//45 90//45 87//45
f 92//46 94//47 91//46
f 91//48 95//48 92//48
f 96//49 98//50 99//50
f 96//51 100//51 97//51
f 101//52 103//53 104//53
f 101//54 105//54 102//54
f 106//55 108//56 109//56
f 106//57 110//57 107//57
f 112//58 114//59 111//58
f 111//60 115//60 112//60
f 117//61 119//62 116//61
f 116//63 120//63 117//63
f 2//64 61//65 64//64
f 3//66 64//66 63//66
f 3//67 62//68 4//68
f 5//69 61//70 1//71
f 5//72 62//73 65//74
f 7//75 66//76 69//75
f 7//77 68//77 8//77
f 8//78 67//79 9//80
f 6//81 70//82 66//83
f 10//84 67//85 70//86
f 11//87 74//88 12//89
f 13//90 74//90 73//90
f 14//91 73//92 72//91
f 11//93 75//94 71//95
f 14//96 75//97 15//98
f 17//99 76//100 79//99
f 18//101 79//101 78//101
f 18//102 77//103 19//103
f 20//104 76//105 16//105
f 19//106 80//107 20//108
f 22//109 81//110 84//111
f 22//112 83//112 23//112
f 23//113 82//114 24//114
f 25//115 81//116 21//117
f 25//118 82//114 85//119
f 26//120 89//121 27//122
f 27//123 88//123 28//123
f 29//124 88//125 87//126
f 26//127 90//128 86//129
f 29//130 90//131 30//132
f 32//133 91//134 94//133
f 32//135 93//135 33//135
f 33//136 92//137 34//138
f 31//139 95//140 91//141
f 35//142 92//143 95//144
f 37//145 96//146 99//145
f 38//147 99//147 98//147
f 38//148 97//103 39//103
f 40//149 96//150 36//150
f 39//151 100//152 40//153
f 42//154 101//155 104//154
f 43//156 104//156 103//156
f 43//157 102//158 44//159
f 45//160 101//155 41//161
f 44//162 105//163 45//164
f 47//165 106//166 109//165
f 48//167 109//167 108//167
f 48//168 107//169 49//170
f 50//171 106//166 46//172
f 49//173 110//174 50//175
f 51//176 114//177 52//178
f 52//179 113//179 53//179
f 54//180 113//181 112//180
f 51//182 115//183 111//184
f 54//185 115//186 55//187
f 57//188 116//189 119//188
f 57//190 118//190 58//190
f 58//191 117//192 59//192
f 56//193 120//194 116//195
f 60//196 117//197 120//198
f 2//1 3//1 4//1
f 6//3 7//4 8//4
f 12//6 13//6 14//6
f 17//8 18//8 19//8
f 22//10 23//10 24//10
f 27//12 28//12 29//13
f 32//15 33//15 34//16
f 37//18 38//18 39//18
f 42//20 43//20 44//20
f 47//22 48//22 49//22
f 51//24 52//24 53//24
f 57//26 58//26 59//26
f 62//28 63//28 64//28
f 67//30 68//199 69//31
f 71//33 72//33 73//34
f 76//36 77//36 78//37
f 82//39 83//40 84//40
f 87//43 88//44 89//44
f 92//46 93//47 94//47
f 96//49 97//49 98//50
f 101//52 102//52 103//53
f 106//55 107//55 108//56
f 112//58 113//200 114//59
f 117//61 118//62 119//62
f 2//64 1//65 61//65
f 3//66 2//66 64//66
f 3//67 63//67 62//68
f 5//69 65//201 61//70
f 5//72 4//202 62//73
f 7//75 6//76 66//76
f 7//77 69//77 68//77
f 8//78 68//203 67//79
f 6//81 10//204 70//82
f 10//84 9//205 67//85
f 11//87 71//206 74//88
f 13//90 12//90 74//90
f 14//91 13//207 73//92
f 11//93 15//208 75//94
f 14//96 72//209 75//97
f 17//99 16//210 76//100
f 18//101 17//101 79//101
f 18//102 78//102 77//103
f 20//104 80//104 76//105
f 19//106 77//211 80//107
f 22//109 21//110 81//110
f 22//112 84//112 83//112
f 23//113 83//113 82//114
f 25//115 85//212 81//116
f 25//118 24//114 82//114
f 26//120 86//213 89//121
f 27//123 89//123 88//123
f 29//124 28//214 88//125
f 26//127 30//215 90//128
f 29//130 87//216 90//131
f 32//133 31//217 91//134
f 32//135 94//135 93//135
f 33//136 93//218 92//137
f 31//139 35//219 95//140
f 35//142 34//220 92//143
f 37//145 36//146 96//146
f 38//147 37//147 99//147
f 38//148 98//148 97//103
f 40//149 100//149 96//150
f 39//151 97//221 100//152
f 42//154 41//161 101//155
f 43//156 42//156 104//156
f 43//157 103//157 102//158
f 45//160 105//160 101//155
f 44//162 102//222 105//163
f 47//165 46//172 106//166
f 48//167 47//167 109//167
f 48//168 108//223 107//169
f 50//171 110//224 106//166
f 49//173 107//225 110//174
f 51//176 111//226 114//177
f 52//179 114//179 113//179
f 54//180 53//227 113//181
f 51//182 55//228 115//183
f 54//185 112//229 115//186
f 57//188 56//230 116//189
f 57//190 119//190 118//190
f 58//191 118//191 117//192
f 56//193 60//231 120//194
f 60//196 59//197 117//197
