# Blender v3.0.0 OBJ File: ''
# www.blender.org
mtllib Pot2_Broken.mtl
o Pot2_Broken_Cube.001
v 0.166591 0.348286 0.073468
v 0.193092 0.321411 0.000000
v 0.173034 0.403731 0.000000
v 0.159072 0.405933 0.070152
v 0.125080 0.407540 0.125080
v 0.125036 0.366331 0.125036
v 0.073936 0.346315 -0.167651
v 0.000000 0.322608 -0.192462
v -0.001694 0.373992 -0.168034
v 0.071858 0.358091 -0.162940
v 0.125080 0.407540 -0.125080
v 0.125036 0.366331 -0.125036
v -0.093293 0.164118 0.211545
v 0.000000 0.159154 0.230821
v 0.000000 0.214675 0.214983
v -0.084024 0.241320 0.190526
v -0.211430 0.164056 -0.093243
v -0.188170 0.220127 -0.081758
v -0.161053 0.182091 -0.161053
v -0.166678 0.165974 -0.166679
v -0.206233 0.114810 -0.090950
v -0.163270 0.117148 -0.163270
v -0.157624 0.060832 -0.157624
v -0.198694 0.057508 -0.087626
v -0.214978 0.050223 0.000000
v -0.224154 0.109687 0.000000
v 0.211430 0.164056 0.093243
v 0.230875 0.159176 0.000000
v 0.215419 0.213387 0.000000
v 0.189213 0.244993 0.083445
v -0.152572 0.216309 0.147478
v -0.166679 0.165974 0.166678
v -0.090950 0.114810 0.206233
v -0.163270 0.117148 0.163270
v -0.157624 0.060832 0.157624
v -0.087626 0.057508 0.198694
v 0.000000 0.050223 0.214978
v 0.000000 0.109687 0.224154
v 0.093293 0.164118 -0.211545
v 0.000000 0.159154 -0.230821
v 0.000000 0.214675 -0.214983
v 0.084024 0.241320 -0.190526
v 0.140306 0.278249 0.140306
v 0.166678 0.165974 0.166679
v 0.206232 0.114810 0.090950
v 0.163270 0.117148 0.163270
v 0.157624 0.060832 0.157624
v 0.198694 0.057508 0.087626
v 0.214978 0.050223 0.000000
v 0.224154 0.109687 0.000000
v 0.211430 0.164056 -0.093243
v 0.166679 0.165974 -0.166678
v 0.140306 0.278249 -0.140306
v 0.189213 0.244993 -0.083445
v 0.090950 0.114810 -0.206233
v 0.163270 0.117148 -0.163270
v 0.157624 0.060832 -0.157624
v 0.087626 0.057508 -0.198694
v 0.000000 0.050223 -0.214978
v 0.000000 0.109687 -0.224154
v -0.211430 0.164056 0.093243
v -0.200919 0.195766 0.088607
v 0.206233 0.114810 -0.090950
v 0.198694 0.057508 -0.087626
v -0.093293 0.164118 -0.211545
v -0.084024 0.241320 -0.190526
v -0.221445 0.186058 0.000000
v -0.230875 0.159176 0.000000
v -0.206233 0.114810 0.090950
v -0.198694 0.057508 0.087626
v 0.165256 0.346853 -0.072879
v 0.150222 0.426735 -0.067141
v 0.093293 0.164118 0.211545
v 0.084024 0.241320 0.190526
v -0.090950 0.114810 -0.206233
v -0.087626 0.057508 -0.198694
v 0.090950 0.114810 0.206233
v 0.087626 0.057508 0.198694
v -0.054910 0.340214 -0.174036
v 0.073936 0.346315 0.167651
v 0.072385 0.355104 0.164135
v 0.005442 0.369161 0.167464
v 0.000000 0.322608 0.192462
v 0.000000 -0.001938 0.166687
v 0.067942 -0.001366 0.154061
v 0.122251 -0.000967 -0.122251
v 0.067942 -0.001366 -0.154061
v 0.000000 -0.001938 -0.166687
v -0.067942 -0.001366 -0.154061
v -0.122251 -0.000967 -0.122251
v -0.154061 -0.001366 -0.067942
v 0.122251 -0.000967 0.122251
v 0.166687 -0.001938 -0.000000
v 0.154061 -0.001366 -0.067942
v -0.166687 -0.001938 -0.000000
v -0.122251 -0.000967 0.122251
v -0.067942 -0.001366 0.154061
v 0.154061 -0.001366 0.067942
v -0.154061 -0.001366 0.067942
v -0.080631 0.233617 -0.178004
v -0.054170 0.330373 -0.155405
v 0.112410 0.356000 0.112523
v 0.117154 0.209053 0.117121
v 0.070800 0.204381 0.159440
v 0.065878 0.336455 0.151679
v -0.033702 0.333414 0.181153
v 0.147769 0.346622 -0.055116
v 0.158351 0.206768 -0.069516
v 0.179838 0.196701 0.000082
v 0.165419 0.336544 0.001451
v 0.150638 0.338396 0.065455
v 0.114215 0.401598 0.114372
v 0.145052 0.399822 0.064656
v 0.005367 0.362272 0.153706
v 0.000025 0.314086 0.173720
v -0.034534 0.319384 0.166228
v 0.067207 0.348979 0.150836
v 0.117741 0.010430 0.051939
v 0.093329 0.010702 0.093329
v 0.112370 0.137455 0.112284
v 0.150348 0.135885 0.067694
v 0.068754 0.315066 -0.158220
v 0.117903 0.330280 -0.118293
v 0.114060 0.401662 -0.114433
v 0.066613 0.352144 -0.149610
v 0.136156 0.420864 -0.061627
v -0.051939 0.010430 0.117741
v -0.093329 0.010702 0.093329
v -0.142768 0.211923 0.137990
v -0.080371 0.233321 0.178265
v 0.069950 0.224692 -0.159038
v 0.118903 0.228752 -0.118948
v 0.158472 0.206834 0.070455
v 0.000000 0.009941 -0.127325
v 0.051939 0.010430 -0.117741
v 0.067576 0.152320 -0.151352
v -0.000001 0.162703 -0.169564
v -0.000093 0.313625 -0.173572
v -0.000002 0.235391 -0.179252
v 0.093329 0.010702 -0.093329
v 0.117741 0.010430 -0.051939
v 0.150354 0.135931 -0.067676
v 0.115142 0.155874 -0.115005
v -0.117741 0.010430 0.051939
v -0.127325 0.009941 0.000000
v -0.207623 0.182106 0.000087
v -0.188113 0.191911 0.083506
v -0.093329 0.010702 -0.093329
v -0.051939 0.010430 -0.117741
v -0.151246 0.177647 -0.151346
v 0.157966 0.397526 0.000164
v -0.001643 0.367709 -0.153922
v 0.000000 0.009941 0.127325
v -0.032176 0.205035 0.179077
v -0.000001 0.150812 0.169132
v 0.051939 0.010430 0.117741
v 0.067893 0.133646 0.150939
v 0.127325 0.009941 0.000000
v 0.168427 0.126656 0.000019
v -0.034335 0.213585 -0.178878
v -0.000002 0.222336 0.179350
v -0.117741 0.010430 -0.051939
v -0.175726 0.215263 -0.076924
vn 0.8887 0.2027 0.4113
vn 0.9771 0.2089 -0.0408
vn 0.9132 0.1153 0.3910
vn 0.7114 0.1259 0.6914
vn 0.3716 0.3201 -0.8715
vn 0.0194 0.4274 -0.9039
vn 0.1472 0.3897 -0.9091
vn 0.5193 0.3106 -0.7961
vn 0.7248 0.1437 -0.6738
vn -0.3765 0.1008 0.9209
vn 0.0000 0.2499 0.9683
vn -0.3341 0.2585 0.9064
vn -0.9186 0.1538 -0.3640
vn -0.6422 0.4110 -0.6470
vn -0.6966 0.1758 -0.6956
vn -0.9238 -0.1291 -0.3605
vn -0.6999 -0.1424 -0.6999
vn -0.9258 -0.1442 -0.3496
vn -0.9899 -0.1418 -0.0000
vn 0.9274 0.0885 0.3635
vn 0.9679 0.2513 0.0000
vn 0.8895 0.2608 0.3751
vn -0.6409 0.3853 0.6639
vn -0.6917 0.1626 0.7036
vn -0.3602 -0.1301 0.9238
vn -0.6999 -0.1424 0.6999
vn -0.3496 -0.1442 0.9258
vn -0.0000 -0.1413 0.9900
vn 0.3630 0.0867 -0.9278
vn 0.0000 0.2499 -0.9683
vn 0.3727 0.2613 -0.8904
vn 0.7039 0.1044 0.7026
vn 0.9238 -0.1291 0.3605
vn 0.6999 -0.1424 0.6999
vn 0.9258 -0.1441 0.3496
vn 0.9899 -0.1418 0.0000
vn 0.7039 0.1044 -0.7025
vn 0.8881 0.2656 -0.3751
vn 0.9274 0.0885 -0.3635
vn 0.3602 -0.1301 -0.9238
vn 0.6999 -0.1424 -0.6999
vn 0.3496 -0.1442 -0.9258
vn 0.0000 -0.1413 -0.9900
vn -0.8658 0.3535 0.3542
vn -0.9253 0.1163 0.3609
vn 0.9978 0.0661 0.0000
vn 0.9258 -0.1442 -0.3496
vn 0.9238 -0.1291 -0.3605
vn 0.7020 -0.1220 -0.7017
vn -0.3693 0.0920 -0.9247
vn -0.2885 0.2536 -0.9233
vn -0.9378 0.3468 -0.0169
vn -0.9956 0.0939 -0.0000
vn -0.9258 -0.1442 0.3496
vn -0.9238 -0.1291 0.3605
vn -0.7020 -0.1220 0.7017
vn 0.9097 0.1613 -0.3826
vn 0.8829 0.2263 -0.4114
vn 0.9729 0.2310 -0.0070
vn 0.3727 0.2613 0.8904
vn 0.3630 0.0867 0.9278
vn -0.0000 0.0661 -0.9978
vn -0.3496 -0.1442 -0.9258
vn -0.3602 -0.1301 -0.9238
vn -0.7020 -0.1220 -0.7016
vn -0.0000 0.0661 0.9978
vn 0.3496 -0.1442 0.9258
vn 0.3602 -0.1301 0.9238
vn 0.7020 -0.1220 0.7016
vn -0.2139 0.3043 -0.9282
vn 0.0008 0.3028 -0.9531
vn 0.5217 0.3148 0.7929
vn 0.3670 0.3230 0.8723
vn 0.0579 0.4631 0.8844
vn -0.0024 0.3205 0.9473
vn -0.0000 -0.6614 0.7500
vn 0.2811 -0.6475 0.7083
vn 0.3084 -0.6338 0.7094
vn 0.3084 -0.6338 -0.7094
vn 0.5445 -0.6380 -0.5445
vn 0.2811 -0.6475 -0.7083
vn 0.0000 -0.6614 -0.7500
vn -0.2811 -0.6475 -0.7083
vn -0.3084 -0.6338 -0.7094
vn -0.7094 -0.6338 -0.3084
vn -0.5445 -0.6380 -0.5445
vn -0.7083 -0.6475 -0.2811
vn 0.5445 -0.6380 0.5445
vn 0.5496 -0.6292 0.5496
vn 0.0000 -0.6794 -0.7338
vn 0.7500 -0.6614 -0.0000
vn 0.7083 -0.6475 -0.2811
vn 0.7094 -0.6338 -0.3084
vn -0.5496 -0.6292 -0.5496
vn -0.7500 -0.6614 -0.0000
vn -0.7338 -0.6794 -0.0000
vn 0.5496 -0.6292 -0.5496
vn -0.3084 -0.6338 0.7094
vn -0.5445 -0.6380 0.5445
vn -0.2811 -0.6475 0.7083
vn 0.7094 -0.6338 0.3084
vn 0.7083 -0.6475 0.2811
vn -0.7083 -0.6475 0.2811
vn -0.7094 -0.6338 0.3084
vn 0.0000 -0.6794 0.7338
vn -0.5496 -0.6292 0.5496
vn 0.7338 -0.6794 -0.0000
vn -0.9254 0.1784 0.3342
vn -0.9514 0.2456 0.1859
vn -0.9525 0.2519 0.1709
vn -0.0000 -1.0000 -0.0045
vn -0.0000 -1.0000 0.0045
vn -0.0045 -1.0000 -0.0000
vn -0.7126 0.0133 -0.7014
vn -0.4180 -0.0846 -0.9045
vn -0.7304 -0.0061 -0.6830
vn -0.2017 0.3344 0.9206
vn -0.8479 0.4184 -0.3257
vn -0.8852 0.0014 0.4652
vn -0.9942 -0.1054 0.0227
vn -0.9262 -0.0927 0.3655
vn -0.9142 -0.0579 -0.4010
vn -0.9011 -0.0766 -0.4268
vn -0.0788 -0.3478 -0.9343
vn -0.0340 -0.1990 -0.9794
vn 0.1227 -0.2036 -0.9713
vn -0.0593 -0.0608 -0.9964
vn -0.6835 0.2672 -0.6793
vn -0.8644 0.1864 -0.4669
vn -0.8881 0.2972 -0.3507
vn -0.7662 -0.0578 0.6400
vn -0.4024 -0.2134 0.8903
vn -0.4255 -0.1209 0.8969
vn -0.8993 -0.0892 0.4282
vn 0.3292 0.2928 -0.8977
vn 0.5502 0.3024 -0.7784
vn 0.2001 0.1247 -0.9718
vn -0.7281 0.0010 0.6854
vn -0.8762 0.0126 -0.4818
vn -0.9579 0.0311 -0.2855
vn -0.0054 0.2603 0.9655
vn -0.4201 0.1788 0.8897
vn -0.0652 0.2177 0.9738
vn -0.1339 0.0208 0.9908
vn -0.0128 -0.2204 0.9753
vn -0.6780 0.2552 0.6893
vn -0.8668 0.1884 0.4617
vn -0.6908 0.1413 0.7091
vn 0.8527 0.4039 -0.3314
vn 0.8881 0.3928 -0.2389
vn 0.7971 0.3622 -0.4831
vn 0.6412 0.3456 -0.6851
vn 0.2778 0.3332 0.9010
vn 0.1819 0.2964 0.9376
vn 0.4608 0.4297 0.7765
vn -0.9910 -0.1168 0.0653
vn -0.9258 -0.1132 0.3606
vn 0.0107 -0.3412 0.9399
vn 0.2193 -0.2993 0.9286
vn 0.0637 0.1508 -0.9865
vn -0.0371 0.2287 -0.9728
vn -0.6488 0.0273 -0.7605
vn -0.4337 0.1981 -0.8790
vn -0.7046 0.1547 -0.6925
vn -0.9725 0.2328 0.0000
vn -0.9432 0.3322 0.0000
vn -0.0009 0.2836 -0.9590
vn -0.3341 0.2853 -0.8983
vn -0.8881 0.2971 0.3508
vn 0.1167 0.0942 0.9887
vn 0.0418 0.1390 0.9894
vn -0.4764 0.0366 -0.8785
vn -0.1328 0.0084 -0.9911
vn -0.0000 1.0000 -0.0050
vn 0.0000 1.0000 0.0050
vn 0.0050 1.0000 0.0000
vn 0.8614 0.3946 0.3198
vn 0.8473 0.3138 0.4285
vn 0.8933 0.4166 0.1688
vn 0.9283 0.3090 0.2070
vn 0.8990 0.2941 0.3246
vn 0.0187 0.9081 -0.4183
vn 0.1646 0.9431 -0.2889
vn 0.1723 0.9422 -0.2873
vn 0.1767 0.8759 0.4489
vn 0.2359 0.8587 0.4550
vn 0.1691 0.8779 0.4480
vn -0.8067 0.3673 -0.4630
vn -0.7945 0.4600 -0.3964
vn -0.8027 0.3611 -0.4747
vn -0.4444 0.8863 -0.1301
vn -0.5611 0.8190 -0.1203
vn -0.4289 0.8917 -0.1448
vn -0.7367 0.6761 0.0125
vn -0.6295 0.7564 0.1775
vn -0.7500 0.6613 -0.0126
vn -0.3197 0.7066 0.6313
vn -0.3579 0.7441 0.5641
vn -0.3613 0.7473 0.5576
vn -0.2311 0.8825 0.4096
vn -0.3274 0.8524 0.4076
vn -0.3441 0.8462 0.4068
vn 0.1674 0.8795 -0.4455
vn 0.1611 0.8727 -0.4609
vn 0.1689 0.8810 -0.4420
vn 0.2677 0.9490 -0.1667
vn 0.2720 0.9477 -0.1668
vn 0.0267 0.8471 -0.5308
vn 0.0118 0.9123 -0.4095
vn 0.1766 0.8959 0.4075
vn 0.1608 0.8798 0.4473
vn 0.1582 0.8771 0.4535
vn -0.3384 0.9263 -0.1656
vn -0.3774 0.9201 -0.1046
vn -0.3385 0.9262 -0.1663
vn -0.5352 0.7430 0.4018
vn -0.5315 0.7674 0.3585
vn -0.5302 0.7738 0.3464
vn -0.3013 0.9291 -0.2146
vn -0.2993 0.9302 -0.2125
vn 0.4558 0.8466 -0.2750
vn 0.5492 0.8106 -0.2034
vn 0.5587 0.8060 -0.1955
vn -0.7588 0.5065 -0.4096
vn -0.7027 0.6210 -0.3473
vn -0.7149 0.6992 -0.0060
vn -0.5544 0.8237 -0.1191
vn -0.3378 0.2520 0.9069
vn -0.4556 0.0496 0.8888
vn -0.9572 0.0262 0.2882
vn 0.7698 -0.0015 0.6382
vn 0.8329 -0.0015 -0.5534
vn -0.9883 -0.1525 -0.0000
vn -0.0000 -0.1525 0.9883
vn 0.6844 0.2644 0.6795
vn 0.9883 -0.1525 -0.0000
vn 0.6868 0.2676 -0.6758
vn 0.0000 -0.1525 -0.9883
vn 0.1268 0.3876 0.9130
vn -0.9201 0.1691 0.3533
vn 0.0110 -0.9999 -0.0110
vn 0.0045 -1.0000 -0.0000
vn 0.0110 -0.9999 0.0110
vn 0.0177 -0.9997 0.0177
vn -0.0110 -0.9999 0.0110
vn -0.0177 -0.9997 0.0177
vn -0.0110 -0.9999 -0.0110
vn -0.0177 -0.9997 -0.0177
vn 0.0177 -0.9997 -0.0177
vn -0.7859 0.0561 -0.6158
vn -0.5426 -0.0745 0.8367
vn 0.8932 0.4167 -0.1687
vn -0.0119 0.9999 -0.0119
vn -0.0050 1.0000 0.0000
vn -0.0119 0.9999 0.0119
vn -0.0160 0.9997 0.0160
vn 0.0119 0.9999 0.0119
vn 0.0160 0.9997 0.0160
vn 0.0119 0.9999 -0.0119
vn 0.0160 0.9997 -0.0160
vn -0.0160 0.9997 -0.0160
vn 0.7766 0.4296 0.4609
vn 0.2421 0.8567 0.4555
vn -0.6135 0.7643 0.1984
vn -0.3148 0.7016 0.6392
vn -0.2101 0.8878 0.4095
vn 0.1599 0.8715 -0.4636
vn 0.0318 0.8414 -0.5395
vn 0.1797 0.8989 0.3996
vn -0.3797 0.9192 -0.1044
vn -0.5359 0.7376 0.4109
vn 0.4428 0.8504 -0.2842
vn -0.6976 0.6422 -0.3178
vn -0.7286 0.6847 0.0188
usemtl Pot_Main.009
s 1
f 1//1 3//2 4//3
f 4//3 6//4 1//1
f 7//5 9//6 10//7
f 10//8 12//9 7//5
f 13//10 15//11 16//12
f 17//13 19//14 20//15
f 21//16 23//17 24//18
f 24//18 26//19 21//16
f 27//20 29//21 30//22
f 13//10 31//23 32//24
f 33//25 35//26 36//27
f 36//27 38//28 33//25
f 39//29 41//30 42//31
f 30//22 44//32 27//20
f 45//33 47//34 48//35
f 48//35 50//36 45//33
f 52//37 54//38 51//39
f 42//31 52//37 39//29
f 55//40 57//41 58//42
f 58//42 60//43 55//40
f 32//24 62//44 61//45
f 51//39 29//21 28//46
f 50//36 64//47 63//48
f 63//48 57//41 56//49
f 65//50 19//14 66//51
f 61//45 67//52 68//53
f 26//19 70//54 69//55
f 69//55 35//26 34//56
f 12//9 72//57 71//58
f 71//58 3//2 2//59
f 44//32 74//60 73//61
f 65//50 41//30 40//62
f 60//43 76//63 75//64
f 75//64 23//17 22//65
f 73//61 15//11 14//66
f 38//28 78//67 77//68
f 77//68 47//34 46//69
f 79//70 9//6 8//71
f 6//4 81//72 80//73
f 80//73 82//74 83//75
f 37//76 85//77 78//78
f 58//79 86//80 87//81
f 59//82 89//83 76//84
f 24//85 90//86 91//87
f 78//78 92//88 47//89
f 59//82 87//81 88//90
f 49//91 94//92 64//93
f 76//84 90//86 23//94
f 25//95 91//87 95//96
f 64//93 86//80 57//97
f 36//98 96//99 97//100
f 48//101 92//88 98//102
f 25//95 99//103 70//104
f 37//76 97//100 84//105
f 70//104 96//99 35//106
f 49//91 98//102 93//107
f 66//108 101//109 79//110
f 88//111 84//112 95//113
f 103//114 105//115 102//116
f 82//74 106//117 83//75
f 21//16 68//53 17//13
f 17//13 22//65 21//16
f 33//25 14//66 13//10
f 13//10 34//56 33//25
f 45//33 28//46 27//20
f 27//20 46//69 45//33
f 55//40 40//62 39//29
f 39//29 56//49 55//40
f 56//49 51//39 63//48
f 28//46 63//48 51//39
f 34//56 61//45 69//55
f 68//53 69//55 61//45
f 22//65 65//50 75//64
f 40//62 75//64 65//50
f 46//69 73//61 77//68
f 14//66 77//68 73//61
f 17//13 67//52 18//118
f 108//119 110//120 107//121
f 102//116 113//122 111//123
f 114//124 115//125 116//126
f 105//115 114//124 117//127
f 119//128 121//129 118//130
f 123//131 125//132 122//133
f 107//121 124//134 123//131
f 127//135 129//136 130//137
f 122//133 132//138 123//131
f 133//139 110//120 109//140
f 134//141 136//142 137//143
f 139//144 122//133 138//145
f 140//146 142//147 143//148
f 132//138 107//121 123//131
f 144//149 146//150 147//151
f 128//152 147//151 129//136
f 111//123 103//114 102//116
f 149//153 150//154 148//155
f 107//121 151//156 126//157
f 152//158 101//159 138//145
f 130//137 154//160 155//161
f 117//162 102//116 105//115
f 119//128 157//163 120//164
f 118//130 159//165 158//166
f 153//167 157//163 156//168
f 141//169 159//165 142//147
f 100//170 137//143 160//171
f 115//125 104//172 161//173
f 138//145 125//132 152//158
f 153//174 134//175 145//176
f 161//173 154//160 130//137
f 162//177 146//178 145//179
f 162//177 150//180 163//181
f 31//182 147//183 62//184
f 18//185 146//186 163//187
f 16//188 116//189 130//190
f 72//191 124//192 126//193
f 81//194 112//195 117//196
f 19//197 100//198 66//199
f 72//200 151//201 3//202
f 82//203 117//204 114//205
f 62//184 146//206 67//207
f 31//182 130//208 129//209
f 9//210 125//211 10//212
f 4//213 151//214 113//215
f 79//216 152//217 9//218
f 4//213 112//219 5//220
f 18//221 150//222 19//223
f 106//224 114//225 116//189
f 100//170 139//144 138//145
f 10//226 124//192 11//227
f 140//146 136//142 135//228
f 137//143 139//144 160//171
f 161//173 155//161 154//160
f 137//143 131//229 139//144
f 143//148 131//229 136//142
f 121//129 109//140 159//165
f 120//164 133//139 121//129
f 143//148 108//119 132//138
f 142//147 109//230 108//119
f 120//164 104//172 103//114
f 155//161 104//172 157//163
f 111//123 151//156 110//120
f 1//1 2//59 3//2
f 4//3 5//231 6//4
f 7//5 8//71 9//6
f 10//8 11//232 12//9
f 13//10 14//66 15//11
f 17//13 18//118 19//14
f 21//16 22//65 23//17
f 24//18 25//233 26//19
f 27//20 28//46 29//21
f 13//10 16//12 31//23
f 33//25 34//56 35//26
f 36//27 37//234 38//28
f 39//29 40//62 41//30
f 30//22 43//235 44//32
f 45//33 46//69 47//34
f 48//35 49//236 50//36
f 52//37 53//237 54//38
f 42//31 53//237 52//37
f 55//40 56//49 57//41
f 58//42 59//238 60//43
f 32//24 31//23 62//44
f 51//39 54//38 29//21
f 50//36 49//236 64//47
f 63//48 64//47 57//41
f 65//50 20//15 19//14
f 61//45 62//44 67//52
f 26//19 25//233 70//54
f 69//55 70//54 35//26
f 12//9 11//232 72//57
f 71//58 72//57 3//2
f 44//32 43//235 74//60
f 65//50 66//51 41//30
f 60//43 59//238 76//63
f 75//64 76//63 23//17
f 73//61 74//60 15//11
f 38//28 37//234 78//67
f 77//68 78//67 47//34
f 6//4 5//231 81//72
f 80//73 81//239 82//74
f 37//76 84//105 85//77
f 58//79 57//97 86//80
f 59//82 88//90 89//83
f 24//85 23//94 90//86
f 78//78 85//77 92//88
f 59//82 58//79 87//81
f 49//91 93//107 94//92
f 76//84 89//83 90//86
f 25//95 24//85 91//87
f 64//93 94//92 86//80
f 36//98 35//106 96//99
f 48//101 47//89 92//88
f 25//95 95//96 99//103
f 37//76 36//98 97//100
f 70//104 99//103 96//99
f 49//91 48//101 98//102
f 66//108 100//240 101//109
f 94//241 93//242 88//111
f 93//242 98//243 85//243
f 98//243 92//244 85//243
f 85//243 84//112 93//242
f 84//112 97//245 99//245
f 97//245 96//246 99//245
f 99//245 95//113 84//112
f 95//113 91//247 89//247
f 91//247 90//248 89//247
f 89//247 88//111 95//113
f 88//111 87//241 94//241
f 87//241 86//249 94//241
f 93//242 84//112 88//111
f 103//114 104//172 105//115
f 21//16 26//19 68//53
f 17//13 20//15 22//65
f 33//25 38//28 14//66
f 13//10 32//24 34//56
f 45//33 50//36 28//46
f 27//20 44//32 46//69
f 55//40 60//43 40//62
f 39//29 52//37 56//49
f 56//49 52//37 51//39
f 28//46 50//36 63//48
f 34//56 32//24 61//45
f 68//53 26//19 69//55
f 22//65 20//15 65//50
f 40//62 60//43 75//64
f 46//69 44//32 73//61
f 14//66 38//28 77//68
f 17//13 68//53 67//52
f 108//119 109//230 110//120
f 102//116 112//250 113//122
f 105//115 115//125 114//124
f 119//128 120//164 121//129
f 123//131 124//251 125//132
f 107//121 126//157 124//134
f 127//135 128//152 129//136
f 122//133 131//229 132//138
f 133//139 111//123 110//120
f 134//141 135//228 136//142
f 139//144 131//229 122//133
f 140//146 141//169 142//147
f 132//138 108//119 107//121
f 144//149 145//252 146//150
f 128//152 144//149 147//151
f 111//123 133//139 103//114
f 149//153 100//170 150//154
f 107//121 110//120 151//156
f 155//161 153//167 127//135
f 127//135 130//137 155//161
f 117//162 112//250 102//116
f 119//128 156//168 157//163
f 118//130 121//129 159//165
f 153//167 155//161 157//163
f 141//169 158//166 159//165
f 100//170 149//153 137//143
f 149//153 134//141 137//143
f 115//125 105//115 104//172
f 138//145 122//133 125//132
f 118//253 158//254 153//174
f 158//254 141//255 135//255
f 141//255 140//256 135//255
f 135//255 134//175 158//254
f 134//175 149//257 162//257
f 149//257 148//258 162//257
f 162//257 145//176 134//175
f 145//176 144//259 127//259
f 144//259 128//260 127//259
f 127//259 153//174 145//176
f 153//174 156//253 118//253
f 156//253 119//261 118//253
f 158//254 134//175 153//174
f 130//137 116//126 161//173
f 116//126 115//125 161//173
f 162//177 163//181 146//178
f 162//177 148//262 150//180
f 31//182 129//209 147//183
f 18//185 67//263 146//186
f 16//188 106//224 116//189
f 72//191 11//227 124//192
f 81//194 5//264 112//195
f 19//197 150//265 100//198
f 72//200 126//266 151//201
f 82//203 81//267 117//204
f 62//184 147//183 146//206
f 31//182 16//268 130//208
f 9//210 152//269 125//211
f 4//213 3//270 151//214
f 79//216 101//271 152//217
f 4//213 113//215 112//219
f 18//221 163//272 150//222
f 106//224 82//273 114//225
f 138//145 101//159 100//170
f 100//170 160//171 139//144
f 10//226 125//274 124//192
f 140//146 143//148 136//142
f 137//143 136//142 131//229
f 143//148 132//138 131//229
f 121//129 133//139 109//140
f 120//164 103//114 133//139
f 143//148 142//147 108//119
f 142//147 159//165 109//230
f 120//164 157//163 104//172
f 155//161 161//173 104//172
f 111//123 113//122 151//156
usemtl Pot_Detail.008
f 83//75 74//60 80//73
f 42//31 8//71 7//5
f 71//58 53//237 12//9
f 16//12 83//75 106//117
f 43//235 1//1 6//4
f 53//237 7//5 12//9
f 30//22 2//59 1//1
f 2//59 54//38 71//58
f 80//73 43//235 6//4
f 66//51 8//71 41//30
f 83//75 15//11 74//60
f 42//31 41//30 8//71
f 71//58 54//38 53//237
f 16//12 15//11 83//75
f 43//235 30//22 1//1
f 53//237 42//31 7//5
f 30//22 29//21 2//59
f 2//59 29//21 54//38
f 80//73 74//60 43//235
f 66//51 79//70 8//71
