# Blender v3.0.0 OBJ File: ''
# www.blender.org
mtllib Pot3_Broken.mtl
o Pot3_Broken_Cube.001
v 0.213057 0.165327 0.093960
v 0.199552 0.057541 0.088004
v 0.216354 0.050727 0.000000
v 0.231672 0.160520 0.000000
v 0.168638 0.167521 0.168638
v 0.158165 0.060634 0.158165
v 0.093960 0.165327 -0.213057
v 0.088004 0.057541 -0.199552
v 0.000000 0.050727 -0.216354
v 0.000000 0.160520 -0.231672
v 0.168638 0.167521 -0.168638
v 0.158165 0.060634 -0.158165
v -0.213057 0.165327 -0.093960
v -0.199552 0.057541 -0.088004
v -0.216354 0.050727 0.000000
v -0.231672 0.160520 0.000000
v -0.168638 0.167521 -0.168638
v -0.158165 0.060634 -0.158165
v -0.093960 0.165327 0.213057
v -0.088004 0.057541 0.199552
v 0.000000 0.050727 0.216354
v 0.000000 0.160520 0.231672
v -0.168638 0.167521 0.168638
v -0.158165 0.060634 0.158165
v -0.213057 0.165327 0.093960
v -0.199552 0.057541 0.088004
v 0.213057 0.165327 -0.093960
v 0.199552 0.057541 -0.088004
v 0.093960 0.165327 0.213057
v 0.088004 0.057541 0.199552
v -0.093960 0.165327 -0.213057
v -0.088004 0.057541 -0.199552
v -0.086411 0.312648 0.195940
v 0.000000 0.242676 0.221695
v 0.000070 0.247390 0.197942
v -0.077106 0.309885 0.174939
v 0.000000 0.301181 -0.214590
v -0.090208 0.238545 -0.204550
v -0.080498 0.243701 -0.182751
v 0.000070 0.299642 -0.191719
v 0.199166 0.284162 0.087834
v 0.222771 0.233981 0.000000
v 0.199035 0.239624 -0.000061
v 0.177952 0.284443 0.078386
v 0.086411 0.312648 0.195940
v 0.077247 0.309885 0.174939
v 0.153196 0.326759 -0.153196
v 0.088306 0.275678 -0.200236
v 0.078939 0.276865 -0.178898
v 0.136895 0.322487 -0.136885
v -0.160963 0.246661 -0.160963
v -0.195693 0.313871 -0.086302
v -0.174710 0.310977 -0.077141
v -0.143691 0.250949 -0.143823
v 0.157849 0.278779 0.157849
v 0.141050 0.279635 0.140919
v 0.199699 0.279602 -0.088069
v 0.178428 0.280370 -0.078719
v -0.195693 0.313871 0.086302
v -0.153196 0.326759 0.153196
v -0.136754 0.322487 0.136763
v -0.174710 0.310977 0.077018
v -0.214679 0.300774 0.000000
v -0.191666 0.299279 -0.000061
v 0.000000 -0.000378 -0.168544
v -0.068916 -0.000378 -0.156269
v -0.124277 -0.000378 0.124277
v -0.068916 -0.000378 0.156269
v 0.000000 -0.000378 0.168544
v 0.068916 -0.000378 0.156269
v 0.124277 -0.000378 0.124277
v 0.156269 -0.000378 0.068916
v -0.124277 -0.000378 -0.124277
v -0.168544 -0.000378 -0.000000
v -0.156269 -0.000378 0.068916
v 0.168544 -0.000378 -0.000000
v 0.124277 -0.000378 -0.124277
v 0.068916 -0.000378 -0.156269
v -0.156269 -0.000378 -0.068916
v 0.156269 -0.000378 -0.068916
v -0.149565 0.044520 -0.000173
v -0.136320 0.044520 0.060033
v -0.106673 0.044520 0.106699
v -0.060083 0.044520 0.136519
v 0.000199 0.044520 0.154486
v 0.060482 0.044520 0.136519
v 0.110318 0.044520 0.109945
v 0.139142 0.044520 0.061102
v 0.155609 0.044520 -0.000173
v 0.139514 0.044520 -0.061612
v 0.107072 0.044520 -0.107045
v 0.061803 0.044520 -0.139861
v 0.000199 0.044520 -0.149875
v -0.062732 0.044520 -0.142871
v -0.112092 0.044520 -0.112464
v -0.136320 0.044520 -0.060379
vn 0.9263 -0.1363 0.3514
vn 0.9999 -0.0121 -0.0000
vn 0.9330 -0.0030 0.3598
vn 0.7003 -0.1381 0.7003
vn 0.3514 -0.1363 -0.9263
vn 0.0001 -0.0109 -0.9999
vn 0.3585 -0.0036 -0.9335
vn 0.7003 -0.1381 -0.7003
vn -0.9263 -0.1363 -0.3514
vn -0.9999 -0.0121 -0.0000
vn -0.9330 -0.0035 -0.3599
vn -0.7003 -0.1381 -0.7003
vn -0.3514 -0.1363 0.9263
vn 0.0000 -0.0120 0.9999
vn -0.3590 -0.0042 0.9333
vn -0.7003 -0.1381 0.7003
vn -0.9332 -0.0042 0.3593
vn -0.7072 -0.0007 0.7070
vn -0.9263 -0.1363 0.3514
vn 0.9333 -0.0039 -0.3591
vn 0.7072 -0.0005 -0.7070
vn 0.9263 -0.1363 -0.3514
vn 0.3598 -0.0032 0.9330
vn 0.7071 0.0014 0.7071
vn 0.3514 -0.1363 0.9263
vn -0.3585 -0.0036 -0.9335
vn -0.7077 0.0007 -0.7065
vn -0.3514 -0.1363 -0.9263
vn 0.4161 0.9070 0.0650
vn 0.5924 0.7899 0.1585
vn 0.4217 0.9042 0.0679
vn -0.5651 0.8230 0.0571
vn 0.2085 0.8723 -0.4423
vn -0.5934 0.7899 0.1550
vn -0.4765 0.8411 -0.2560
vn 0.3407 0.7721 -0.5365
vn 0.3013 0.9195 -0.2525
vn 0.1473 0.9844 -0.0964
vn 0.2209 0.8750 0.4307
vn 0.2317 0.8590 0.4565
vn 0.2214 0.8744 0.4318
vn 0.0515 0.9806 -0.1893
vn 0.1333 0.9835 -0.1223
vn 0.0521 0.9808 -0.1879
vn 0.0648 0.9979 -0.0002
vn 0.0644 0.9844 0.1636
vn 0.2104 0.8895 0.4056
vn -0.0166 0.9976 0.0669
vn 0.1447 0.9850 -0.0938
vn 0.0648 0.9979 0.0003
vn 0.1334 0.9835 -0.1222
vn -0.0237 0.9752 -0.2201
vn 0.2673 0.9615 0.0639
vn 0.0000 -0.6609 -0.7504
vn -0.2764 -0.6443 -0.7131
vn -0.3081 -0.6266 -0.7158
vn -0.3081 -0.6266 0.7158
vn -0.5491 -0.6300 0.5491
vn -0.2764 -0.6443 0.7131
vn 0.0000 -0.6609 0.7504
vn 0.2764 -0.6443 0.7131
vn 0.3081 -0.6266 0.7158
vn 0.7158 -0.6266 0.3081
vn 0.5491 -0.6300 0.5491
vn 0.7131 -0.6443 0.2764
vn -0.5491 -0.6300 -0.5491
vn -0.5561 -0.6177 -0.5561
vn 0.0000 -0.6832 0.7303
vn -0.7504 -0.6609 -0.0000
vn -0.7131 -0.6443 0.2764
vn -0.7158 -0.6266 0.3081
vn 0.5561 -0.6177 0.5561
vn 0.7504 -0.6609 -0.0000
vn 0.7303 -0.6832 -0.0000
vn -0.5561 -0.6177 0.5561
vn 0.3081 -0.6266 -0.7158
vn 0.5491 -0.6300 -0.5491
vn 0.2764 -0.6443 -0.7131
vn -0.7158 -0.6266 -0.3081
vn -0.7131 -0.6443 -0.2764
vn 0.7131 -0.6443 -0.2764
vn 0.7158 -0.6266 -0.3081
vn 0.0000 -0.6832 -0.7303
vn 0.5561 -0.6177 -0.5561
vn -0.7303 -0.6832 -0.0000
vn -0.0000 -1.0000 -0.0000
vn 0.0000 1.0000 0.0000
vn -0.6467 0.1528 0.7473
vn -0.6996 0.1723 0.6934
vn -0.7050 0.1500 0.6932
vn -0.8530 0.1739 -0.4920
vn -0.9009 0.1903 -0.3901
vn -0.8477 0.1767 -0.5002
vn -0.4131 0.1583 -0.8968
vn -0.3811 0.1817 -0.9065
vn -0.4017 0.1560 -0.9024
vn -0.9255 0.1796 -0.3333
vn -0.8846 0.1743 -0.4326
vn -0.9293 0.1822 0.3211
vn -0.8839 0.1908 0.4270
vn -0.9457 0.2104 0.2477
vn 0.5007 0.1523 -0.8521
vn 0.6997 0.1568 -0.6970
vn 0.7017 0.1512 -0.6963
vn -0.8261 0.1631 0.5394
vn 0.2476 0.1922 0.9496
vn -0.0340 0.1845 0.9822
vn -0.0656 0.1615 0.9847
vn 0.3811 0.1626 -0.9101
vn 0.4234 0.1742 -0.8890
vn 0.5164 0.2110 0.8299
vn 0.3154 0.2133 0.9247
vn 0.9874 0.1583 -0.0001
vn 0.9121 0.1584 -0.3782
vn 0.9866 0.1630 0.0001
vn 0.9362 0.1599 0.3130
vn 0.9367 0.1745 0.3035
vn 0.8886 0.1988 0.4133
vn 0.9534 0.1537 0.2597
vn 0.8977 0.1532 -0.4131
vn -0.1194 0.1628 0.9794
vn -0.1580 0.1749 0.9718
vn -0.3809 0.1622 -0.9103
vn -0.2798 0.2009 -0.9388
vn -0.3312 0.1255 -0.9352
vn -0.0000 0.1234 0.9924
vn 0.6853 0.1315 0.7163
vn 0.3764 0.1259 0.9179
vn 0.9924 0.1234 0.0019
vn 0.9056 0.1295 -0.4039
vn -0.9923 0.1241 0.0000
vn -0.9188 0.1291 0.3730
vn -0.4060 0.1293 0.9047
vn -0.7373 0.1333 -0.6623
vn -0.9392 0.1263 -0.3194
vn 0.3664 0.1271 -0.9217
vn 0.9150 0.1267 0.3831
vn 0.9904 -0.1382 -0.0000
vn -0.0000 -0.1382 -0.9904
vn -0.9904 -0.1382 -0.0000
vn 0.0000 -0.1382 0.9904
vn -0.5777 0.1765 0.7969
vn -0.4633 0.1750 -0.8688
vn -0.9441 0.2103 -0.2537
vn 0.2798 0.2013 -0.9387
vn 0.5303 0.2061 0.8224
vn 0.0289 0.1205 -0.9923
vn 0.7037 0.1359 -0.6973
vn -0.7019 0.1359 0.6992
usemtl Pot_Main.011
s 1
f 2//1 4//2 1//3
f 1//3 6//4 2//1
f 8//5 10//6 7//7
f 7//7 12//8 8//5
f 14//9 16//10 13//11
f 13//11 18//12 14//9
f 20//13 22//14 19//15
f 19//15 24//16 20//13
f 25//17 24//16 23//18
f 16//10 26//19 25//17
f 27//20 12//8 11//21
f 4//2 28//22 27//20
f 29//23 6//4 5//24
f 22//14 30//25 29//23
f 31//26 18//12 17//27
f 10//6 32//28 31//26
f 33//29 35//30 36//31
f 37//32 39//32 40//32
f 41//33 43//33 44//33
f 45//34 35//34 34//34
f 48//35 50//35 47//35
f 52//36 54//36 51//36
f 45//37 56//38 46//37
f 57//39 50//40 58//41
f 59//42 61//43 62//44
f 63//45 53//46 52//46
f 57//39 43//47 42//47
f 41//48 56//38 55//49
f 63//45 62//44 64//50
f 33//29 61//43 60//51
f 38//52 54//52 39//52
f 37//53 49//53 48//53
f 9//54 66//55 32//56
f 20//57 67//58 68//59
f 21//60 70//61 30//62
f 2//63 71//64 72//65
f 32//56 73//66 18//67
f 21//60 68//59 69//68
f 15//69 75//70 26//71
f 30//62 71//64 6//72
f 3//73 72//65 76//74
f 26//71 67//58 24//75
f 8//76 77//77 78//78
f 14//79 73//66 79//80
f 3//73 80//81 28//82
f 9//54 78//78 65//83
f 28//82 77//77 12//84
f 15//69 79//80 74//85
f 69//86 65//86 76//86
f 91//87 93//87 86//87
f 49//88 91//89 50//90
f 56//91 88//92 87//93
f 56//94 86//95 46//96
f 43//97 88//92 44//98
f 43//99 90//100 89//101
f 36//102 83//103 61//104
f 58//105 91//89 90//100
f 39//106 93//107 40//108
f 35//109 84//110 36//102
f 39//106 95//111 94//112
f 64//113 82//114 81//115
f 54//116 96//117 95//118
f 64//113 96//117 53//119
f 62//120 83//103 82//114
f 49//121 93//107 92//122
f 35//123 86//95 85//124
f 38//125 10//6 31//26
f 17//27 38//125 31//26
f 29//23 34//126 22//14
f 29//23 55//127 45//128
f 27//20 42//129 4//2
f 11//21 57//130 27//20
f 25//17 63//131 16//10
f 23//18 59//132 25//17
f 33//133 23//18 19//15
f 19//15 34//126 33//133
f 13//11 51//134 17//27
f 13//11 63//131 52//135
f 48//136 11//21 7//7
f 10//6 48//136 7//7
f 1//3 55//127 5//24
f 1//3 42//129 41//137
f 2//1 3//138 4//2
f 1//3 5//24 6//4
f 8//5 9//139 10//6
f 7//7 11//21 12//8
f 14//9 15//140 16//10
f 13//11 17//27 18//12
f 20//13 21//141 22//14
f 19//15 23//18 24//16
f 25//17 26//19 24//16
f 16//10 15//140 26//19
f 27//20 28//22 12//8
f 4//2 3//138 28//22
f 29//23 30//25 6//4
f 22//14 21//141 30//25
f 31//26 32//28 18//12
f 10//6 9//139 32//28
f 33//29 34//30 35//30
f 37//32 38//32 39//32
f 41//33 42//33 43//33
f 45//34 46//34 35//34
f 48//35 49//35 50//35
f 52//36 53//36 54//36
f 45//37 55//49 56//38
f 57//39 47//40 50//40
f 59//42 60//51 61//43
f 63//45 64//50 53//46
f 57//39 58//41 43//47
f 41//48 44//48 56//38
f 63//45 59//42 62//44
f 33//29 36//31 61//43
f 38//52 51//52 54//52
f 37//53 40//53 49//53
f 9//54 65//83 66//55
f 20//57 24//75 67//58
f 21//60 69//68 70//61
f 2//63 6//72 71//64
f 32//56 66//55 73//66
f 21//60 20//57 68//59
f 15//69 74//85 75//70
f 30//62 70//61 71//64
f 3//73 2//63 72//65
f 26//71 75//70 67//58
f 8//76 12//84 77//77
f 14//79 18//67 73//66
f 3//73 76//74 80//81
f 9//54 8//76 78//78
f 28//82 80//81 77//77
f 15//69 14//79 79//80
f 75//86 74//86 69//86
f 74//86 79//86 66//86
f 79//86 73//86 66//86
f 66//86 65//86 74//86
f 65//86 78//86 80//86
f 78//86 77//86 80//86
f 80//86 76//86 65//86
f 76//86 72//86 70//86
f 72//86 71//86 70//86
f 70//86 69//86 76//86
f 69//86 68//86 75//86
f 68//86 67//86 75//86
f 74//86 65//86 69//86
f 96//87 81//87 82//87
f 82//87 83//87 84//87
f 84//87 85//87 86//87
f 86//87 87//87 88//87
f 88//87 89//87 90//87
f 90//87 91//87 88//87
f 91//87 92//87 93//87
f 93//87 94//87 96//87
f 94//87 95//87 96//87
f 96//87 82//87 86//87
f 82//87 84//87 86//87
f 86//87 88//87 91//87
f 96//87 86//87 93//87
f 49//88 92//142 91//89
f 56//91 44//98 88//92
f 56//94 87//143 86//95
f 43//97 89//144 88//92
f 43//99 58//105 90//100
f 36//102 84//110 83//103
f 58//105 50//90 91//89
f 39//106 94//112 93//107
f 35//109 85//145 84//110
f 39//106 54//146 95//111
f 64//113 62//120 82//114
f 54//116 53//119 96//117
f 64//113 81//115 96//117
f 62//120 61//104 83//103
f 49//121 40//108 93//107
f 35//123 46//96 86//95
f 38//125 37//147 10//6
f 17//27 51//134 38//125
f 29//23 45//128 34//126
f 29//23 5//24 55//127
f 27//20 57//130 42//129
f 11//21 47//148 57//130
f 25//17 59//132 63//131
f 23//18 60//149 59//132
f 33//133 60//149 23//18
f 19//15 22//14 34//126
f 13//11 52//135 51//134
f 13//11 16//10 63//131
f 48//136 47//148 11//21
f 10//6 37//147 48//136
f 1//3 41//137 55//127
f 1//3 4//2 42//129
