# Blender v3.0.0 OBJ File: ''
# www.blender.org
mtllib Rail_Corner.mtl
o Rail_Corner_Cylinder.001
v -0.044620 0.163644 1.000000
v -0.044620 0.322582 1.000000
v -0.044389 0.322582 0.234251
v -0.044389 0.163644 0.234251
v 1.000000 0.163644 -0.044620
v 1.000000 0.322582 -0.044620
v 1.000000 0.322582 0.044620
v 1.000000 0.163644 0.044620
v 0.623246 0.221961 -0.114159
v 0.367988 0.221961 -0.114159
v 0.367988 0.270471 -0.114159
v 0.623246 0.270471 -0.114159
v 0.334950 -0.002502 -0.147198
v 0.334950 -0.002502 0.174137
v 0.334950 0.115463 0.174137
v 0.334950 0.115463 -0.147198
v 0.656285 0.115463 0.174137
v 0.647607 0.134038 0.165459
v 0.343627 0.134038 0.165459
v 0.656285 -0.002502 0.174137
v 0.656285 -0.002502 -0.147198
v 0.656285 0.115463 -0.147198
v 0.367988 0.221961 0.141099
v 0.623246 0.221961 0.141099
v 0.623246 0.270471 0.141099
v 0.367988 0.270471 0.141099
v 0.343627 0.134038 -0.138520
v 0.647607 0.134038 -0.138520
v 0.626510 0.189354 -0.117423
v 0.364725 0.189354 -0.117423
v 0.635427 0.159387 -0.126340
v 0.355808 0.159387 -0.126340
v 0.626510 0.189354 0.144362
v 0.635427 0.159387 0.153279
v 0.364725 0.189354 0.144362
v 0.367795 0.159387 0.153279
v 0.355808 0.159387 0.145908
v 0.670002 0.475376 -0.160915
v 0.321232 0.475376 -0.160915
v 0.321232 0.475376 0.187855
v 0.670002 0.475376 0.187855
v 0.321232 0.328864 -0.160915
v 0.321232 0.328864 0.187855
v 0.670002 0.328864 0.187855
v 0.670002 0.328864 -0.160915
v 0.505191 0.450790 0.194761
v 0.505083 0.432241 0.192716
v 0.674864 0.432241 0.192716
v 0.676909 0.450790 0.194761
v 0.422319 0.485776 0.150457
v 0.314325 0.485776 0.150457
v 0.314325 0.485776 0.194761
v 0.424364 0.485776 0.194761
v 0.424364 0.450790 0.194761
v 0.314325 0.450790 0.194761
v 0.505191 0.450790 -0.167822
v 0.548288 0.485776 -0.167822
v 0.676909 0.485776 -0.167822
v 0.676909 0.450790 -0.167822
v 0.314325 0.450790 0.069477
v 0.314325 0.485776 0.069477
v 0.314325 0.485776 -0.167822
v 0.314325 0.450790 -0.167822
v 0.676909 0.450790 0.150457
v 0.670170 0.485776 0.150457
v 0.676909 0.485776 0.194761
v 0.425168 0.432241 0.148912
v 0.425168 0.432241 0.192716
v 0.316371 0.432241 0.192716
v 0.316371 0.432241 0.148912
v 0.424364 0.450790 -0.167822
v 0.425168 0.432241 -0.165777
v 0.316371 0.432241 -0.165777
v 0.314325 0.450790 0.150457
v 0.676909 0.450790 0.056751
v 0.674864 0.432241 0.056263
v 0.674864 0.432241 -0.165777
v 0.332161 0.338330 -0.149986
v 0.332161 0.338330 0.176926
v 0.659073 0.338330 0.176926
v 0.659073 0.338330 -0.149986
v 0.345919 0.262595 -0.136228
v 0.645315 0.262595 -0.136228
v 0.645315 0.262595 0.163168
v 0.345919 0.262595 0.163168
v 0.674864 0.432241 0.148912
v 0.314325 0.450790 0.125746
v 0.316371 0.432241 0.124479
v 0.425168 0.432241 0.119755
v 0.676909 0.450790 0.110003
v 0.676909 0.471486 0.110003
v 0.421496 0.485776 0.121093
v 0.314325 0.485776 0.125746
v 0.424364 0.485776 0.065615
v 0.676909 0.485776 0.056751
v 0.425168 0.432241 0.065027
v 0.316371 0.432241 0.068845
v 0.674864 0.432241 0.108913
v 0.424364 0.485776 -0.167822
v 0.667457 0.485776 0.110413
v 0.458579 0.485776 -0.156307
v 0.458579 0.485776 0.064414
v 0.505191 0.485776 0.062778
v 0.505083 0.432241 -0.165777
v 0.505083 0.432241 0.062222
v 0.458997 0.432241 0.063839
v 0.458997 0.432241 -0.165777
v 0.505083 0.432241 0.116285
v 0.458997 0.432241 0.118286
v 0.454818 0.485776 0.119646
v 0.500215 0.485776 0.117675
v 0.455898 0.485776 0.150457
v 0.501644 0.485776 0.150457
v 0.505083 0.432241 0.148912
v 0.458997 0.432241 0.148912
v 0.458579 0.450790 -0.167822
v 0.458997 0.432241 0.192716
v 0.458579 0.475936 -0.167822
v 0.505191 0.485776 0.194761
v 0.458579 0.485776 0.194761
v 0.458579 0.450790 0.194761
v 0.044588 0.322582 0.323191
v 0.044620 0.322582 1.000000
v 0.044588 0.163644 0.323191
v 0.044620 0.163644 1.000000
v -0.114159 0.221961 0.376754
v -0.114159 0.221961 0.632012
v -0.114159 0.270471 0.632012
v -0.114159 0.270471 0.376754
v -0.147198 -0.002503 0.665050
v 0.174137 -0.002503 0.665050
v 0.174137 0.115463 0.665050
v -0.147198 0.115463 0.665050
v 0.174137 0.115463 0.343715
v 0.165459 0.134038 0.352393
v 0.165459 0.134038 0.656373
v 0.174137 -0.002503 0.343715
v -0.147198 -0.002503 0.343715
v -0.147198 0.115463 0.343715
v 0.141099 0.221961 0.632012
v 0.141099 0.221961 0.376754
v 0.141099 0.270471 0.376754
v 0.141099 0.270471 0.632012
v -0.138520 0.134038 0.656373
v -0.138520 0.134038 0.352393
v -0.117423 0.189354 0.373490
v -0.117423 0.189354 0.635275
v -0.126340 0.159387 0.364573
v -0.126340 0.159387 0.644192
v 0.144362 0.189354 0.373490
v 0.153279 0.159387 0.364573
v 0.144362 0.189354 0.635275
v 0.153279 0.159387 0.632205
v 0.145908 0.159387 0.644192
v -0.160915 0.475375 0.329998
v -0.160915 0.475375 0.678768
v 0.187855 0.475375 0.678768
v 0.187855 0.475375 0.329998
v -0.160915 0.328863 0.678768
v 0.187855 0.328863 0.678768
v 0.187855 0.328863 0.329998
v -0.160915 0.328863 0.329998
v 0.194761 0.450790 0.494809
v 0.192716 0.432240 0.494917
v 0.192716 0.432240 0.325136
v 0.194761 0.450790 0.323091
v 0.150457 0.485776 0.577681
v 0.150457 0.485776 0.685675
v 0.194761 0.485776 0.685675
v 0.194761 0.485776 0.575636
v 0.194761 0.450790 0.575636
v 0.194761 0.450790 0.685675
v -0.167822 0.450790 0.494809
v -0.167822 0.485776 0.451712
v -0.167822 0.485776 0.323091
v -0.167822 0.450790 0.323091
v 0.069477 0.450790 0.685675
v 0.069477 0.485776 0.685675
v -0.167822 0.485776 0.685675
v -0.167822 0.450790 0.685675
v 0.150457 0.450790 0.323091
v 0.150457 0.485776 0.329830
v 0.194761 0.485776 0.323091
v 0.148912 0.432240 0.574832
v 0.192716 0.432240 0.574832
v 0.192716 0.432240 0.683629
v 0.148912 0.432240 0.683629
v -0.167822 0.450790 0.575636
v -0.165777 0.432240 0.574832
v -0.165777 0.432240 0.683629
v 0.150457 0.450790 0.685675
v 0.056751 0.450790 0.323091
v 0.056263 0.432240 0.325136
v -0.165777 0.432240 0.325136
v -0.149986 0.338330 0.667839
v 0.176926 0.338330 0.667839
v 0.176926 0.338330 0.340927
v -0.149986 0.338330 0.340927
v -0.136229 0.262594 0.654081
v -0.136229 0.262594 0.354685
v 0.163168 0.262594 0.354685
v 0.163168 0.262594 0.654081
v 0.148912 0.432240 0.325136
v 0.125746 0.450790 0.685675
v 0.124479 0.432240 0.683629
v 0.119755 0.432240 0.574832
v 0.110002 0.450790 0.323091
v 0.110002 0.471485 0.323091
v 0.121093 0.485776 0.578504
v 0.125746 0.485776 0.685675
v 0.065615 0.485776 0.575636
v 0.056751 0.485776 0.323091
v 0.065027 0.432240 0.574832
v 0.068845 0.432240 0.683629
v 0.108913 0.432240 0.325136
v -0.167822 0.485776 0.575636
v 0.110413 0.485776 0.332543
v -0.156307 0.485776 0.541421
v 0.064414 0.485776 0.541421
v 0.062778 0.485776 0.494809
v -0.165777 0.432240 0.494917
v 0.062222 0.432240 0.494917
v 0.063839 0.432240 0.541003
v -0.165777 0.432240 0.541003
v 0.116285 0.432240 0.494917
v 0.118286 0.432240 0.541003
v 0.119646 0.485776 0.545182
v 0.117675 0.485776 0.499785
v 0.150457 0.485776 0.544102
v 0.150457 0.485776 0.498356
v 0.148912 0.432240 0.494917
v 0.148912 0.432240 0.541003
v -0.167822 0.450790 0.541421
v 0.192716 0.432240 0.541003
v -0.167822 0.475936 0.541421
v 0.194761 0.485776 0.494809
v 0.194761 0.485776 0.541421
v 0.194761 0.450790 0.541421
v 0.234148 0.163644 -0.044298
v 0.234148 0.322582 -0.044298
v 0.323133 0.322582 0.044649
v 0.323133 0.163644 0.044649
v 0.065787 0.322582 0.216601
v -0.023161 0.322582 0.127691
v 0.126166 0.322582 0.126237
v 0.037227 0.322582 0.037336
v 0.216534 0.322582 0.065856
v 0.127582 0.322582 -0.023059
v -0.023161 0.163644 0.127691
v 0.065787 0.163644 0.216601
v 0.037227 0.163644 0.037336
v 0.126166 0.163644 0.126237
v 0.127582 0.163644 -0.023059
v 0.216534 0.163644 0.065856
vn -1.0000 0.0000 -0.0003
vn -0.9952 0.0000 -0.0983
vn 1.0000 -0.0000 0.0000
vn 0.0000 0.0514 -0.9987
vn 0.0000 0.0000 -1.0000
vn -1.0000 -0.0000 0.0000
vn 0.0000 0.4233 0.9060
vn 0.0000 0.4269 0.9043
vn 0.0000 0.4263 0.9046
vn 0.0000 -0.0000 1.0000
vn 0.0000 0.0514 0.9987
vn -0.9987 0.0514 0.0000
vn 0.9987 0.0514 0.0000
vn 0.0000 0.4233 -0.9060
vn 0.0000 0.4269 -0.9043
vn -0.9060 0.4232 0.0000
vn -0.9043 0.4269 0.0000
vn 0.9060 0.4233 0.0000
vn 0.9043 0.4269 0.0000
vn 0.0000 0.2038 -0.9790
vn 0.0000 0.3758 -0.9267
vn 0.9790 0.2038 0.0000
vn 0.9267 0.3758 0.0000
vn 0.0000 0.1933 0.9811
vn 0.0000 0.2038 0.9790
vn 0.0000 0.3717 0.9283
vn 0.0000 0.3758 0.9267
vn -0.9803 0.1977 0.0000
vn -0.9790 0.2038 0.0000
vn -0.9277 0.3734 0.0000
vn -0.3877 0.6725 0.6304
vn 0.0000 -1.0000 -0.0000
vn 0.0000 1.0000 0.0000
vn 0.0000 -0.0549 0.9985
vn 0.0000 -0.1096 0.9940
vn 0.0000 -0.0529 0.9986
vn 0.0000 -0.0529 -0.9986
vn 0.0000 -0.0549 -0.9985
vn -0.9986 -0.0529 0.0000
vn -0.9985 -0.0549 -0.0000
vn 1.0000 0.0057 -0.0046
vn 0.9946 0.0811 -0.0641
vn 0.9986 -0.0529 0.0000
vn 0.0000 -0.1096 -0.9940
vn -0.9940 -0.1096 0.0000
vn 0.9985 -0.0549 -0.0000
vn 0.9940 -0.1096 0.0000
vn 0.9839 -0.1787 -0.0000
vn -0.9839 -0.1787 -0.0000
vn 0.0000 -0.1787 0.9839
vn 0.0000 -0.1787 -0.9839
vn 0.9989 0.0415 0.0212
vn 0.8320 0.5519 -0.0564
vn 0.8336 0.5499 0.0528
vn 0.8339 0.5504 0.0413
vn 0.8271 0.5429 0.1457
vn 0.0603 0.7589 -0.6485
vn 0.2136 0.7427 -0.6347
vn 0.0580 0.7590 -0.6486
vn -0.0831 0.7576 -0.6474
vn -0.5137 0.1959 0.8353
vn -0.9045 0.4265 0.0000
vn 0.9952 -0.0000 0.0980
vn 0.9046 0.4263 0.0000
vn -0.9060 0.4233 0.0000
vn 0.0000 0.4232 0.9060
vn -0.9267 0.3758 0.0000
vn 0.9811 0.1933 0.0000
vn 0.9283 0.3717 0.0000
vn 0.0000 0.1977 0.9803
vn 0.0000 0.3734 0.9277
vn 0.6304 0.6725 0.3877
vn -0.0046 0.0057 -1.0000
vn -0.0641 0.0811 -0.9946
vn 0.0212 0.0415 -0.9989
vn -0.0564 0.5519 -0.8320
vn 0.0528 0.5498 -0.8336
vn 0.0413 0.5504 -0.8339
vn 0.1457 0.5428 -0.8271
vn -0.6485 0.7589 -0.0603
vn -0.6347 0.7427 -0.2136
vn -0.6486 0.7590 -0.0580
vn -0.6474 0.7576 0.0831
vn 0.8353 0.1959 0.5137
vn 0.0000 0.4265 0.9045
vn -0.0984 0.0000 -0.9951
vn -0.0004 0.0000 -1.0000
vn 0.0981 -0.0000 0.9952
vn 0.9239 -0.0000 0.3827
vn 0.7071 -0.0000 0.7071
vn 0.3827 -0.0000 0.9239
vn -0.3829 0.0000 -0.9238
vn -0.7071 0.0000 -0.7071
vn -0.9238 0.0000 -0.3829
vn 0.9811 0.1890 -0.0407
vn -0.0407 0.1890 -0.9811
usemtl Main.072
s 1
f 2//1 4//2 1//1
f 6//3 8//3 5//3
f 10//4 12//5 9//4
f 14//6 16//6 13//6
f 15//7 18//8 19//9
f 21//3 17//3 20//3
f 20//10 15//10 14//10
f 13//5 22//5 21//5
f 24//11 26//10 23//11
f 23//12 11//6 10//12
f 9//13 25//3 24//13
f 16//14 28//15 22//14
f 15//16 27//17 16//16
f 17//18 28//19 18//19
f 9//4 30//20 10//4
f 30//20 31//21 32//21
f 32//21 28//15 27//15
f 9//13 33//22 29//22
f 33//22 31//23 29//22
f 34//23 28//19 31//23
f 24//11 35//24 33//25
f 33//25 36//26 34//27
f 36//26 18//8 34//27
f 10//12 35//28 23//12
f 30//29 37//30 35//28
f 36//31 37//31 19//31
f 21//32 14//32 13//32
f 39//33 41//33 38//33
f 39//6 43//6 40//6
f 40//10 44//10 41//10
f 41//3 45//3 38//3
f 38//5 42//5 39//5
f 42//32 44//32 43//32
f 46//34 48//35 49//36
f 50//33 52//33 53//33
f 53//10 55//36 54//34
f 57//5 59//37 56//38
f 61//6 63//39 60//40
f 64//41 66//42 49//43
f 68//32 70//32 67//32
f 71//38 73//44 63//37
f 74//40 69//45 55//39
f 75//46 77//47 59//43
f 79//33 81//33 78//33
f 83//32 85//32 82//32
f 80//48 83//48 81//48
f 78//49 85//49 79//49
f 79//50 84//50 80//50
f 81//51 82//51 78//51
f 48//47 64//41 49//43
f 87//40 70//45 74//40
f 67//32 88//32 89//32
f 91//52 64//41 90//46
f 52//6 74//40 55//39
f 93//33 50//33 92//33
f 61//33 92//33 94//33
f 75//46 91//52 90//46
f 89//32 97//32 96//32
f 60//40 88//45 87//40
f 86//47 90//46 64//41
f 51//6 87//40 74//40
f 73//45 60//40 63//39
f 96//32 73//32 72//32
f 58//3 75//46 59//43
f 62//33 94//33 99//33
f 98//47 75//46 90//46
f 93//6 60//40 87//40
f 65//53 91//54 100//55
f 91//54 95//56 100//55
f 101//33 103//33 57//33
f 105//32 107//32 104//32
f 108//32 106//32 105//32
f 102//33 111//33 103//33
f 111//33 112//33 113//33
f 114//32 109//32 108//32
f 56//38 107//44 116//38
f 47//32 115//32 114//32
f 71//38 118//5 116//38
f 119//10 121//34 46//34
f 113//33 120//33 119//33
f 68//35 121//34 54//34
f 65//33 119//33 66//33
f 66//10 46//34 49//36
f 48//32 114//32 86//32
f 77//44 56//38 59//37
f 86//32 108//32 98//32
f 100//33 113//33 65//33
f 103//33 100//33 95//33
f 98//32 105//32 76//32
f 76//32 104//32 77//32
f 57//33 95//33 58//33
f 118//5 56//38 116//38
f 117//35 46//34 121//34
f 69//35 54//34 55//36
f 62//5 71//38 63//37
f 118//57 99//58 101//59
f 106//32 72//32 107//32
f 109//32 96//32 106//32
f 94//33 110//33 102//33
f 110//33 50//33 112//33
f 115//32 89//32 109//32
f 116//38 72//44 71//38
f 117//32 67//32 115//32
f 120//10 54//34 121//34
f 112//33 53//33 120//33
f 101//59 57//60 118//57
f 101//33 94//33 102//33
f 37//61 36//61 35//61
f 37//30 27//17 19//62
f 122//33 2//33 123//33
f 124//32 1//32 4//32
f 122//63 125//3 124//63
f 127//12 129//6 126//12
f 131//10 133//10 130//10
f 132//18 135//19 136//64
f 138//5 134//5 137//5
f 137//3 132//3 131//3
f 130//6 139//6 138//6
f 141//13 143//3 140//13
f 140//11 128//10 127//11
f 126//4 142//5 141//4
f 133//65 145//17 139//65
f 132//66 144//8 133//66
f 134//14 145//15 135//15
f 126//12 147//29 127//12
f 146//29 149//67 147//29
f 149//67 145//17 144//17
f 126//4 150//20 146//20
f 150//20 148//21 146//20
f 151//21 145//15 148//21
f 141//13 152//68 150//22
f 150//22 153//69 151//23
f 153//69 135//19 151//23
f 127//11 152//70 140//11
f 147//25 154//71 152//70
f 153//72 154//72 136//72
f 138//32 131//32 130//32
f 156//33 158//33 155//33
f 156//10 160//10 157//10
f 157//3 161//3 158//3
f 158//5 162//5 155//5
f 155//6 159//6 156//6
f 159//32 161//32 160//32
f 163//46 165//47 166//43
f 167//33 169//33 170//33
f 170//3 172//43 171//46
f 174//6 176//39 173//40
f 178//10 180//36 177//34
f 181//73 183//74 166//37
f 185//32 187//32 184//32
f 188//40 190//45 180//39
f 191//34 186//35 172//36
f 192//38 194//44 176//37
f 196//33 198//33 195//33
f 200//32 202//32 199//32
f 198//51 201//51 200//51
f 195//50 202//50 196//50
f 196//48 201//48 197//48
f 198//49 199//49 195//49
f 165//44 181//73 166//37
f 204//34 187//35 191//34
f 184//32 205//32 206//32
f 208//75 181//73 207//38
f 169//10 191//34 172//36
f 210//33 167//33 209//33
f 178//33 209//33 211//33
f 192//38 208//75 207//38
f 206//32 214//32 213//32
f 177//34 205//35 204//34
f 203//44 207//38 181//73
f 168//10 204//34 191//34
f 190//35 177//34 180//36
f 213//32 190//32 189//32
f 175//5 192//38 176//37
f 179//33 211//33 216//33
f 215//44 192//38 207//38
f 210//10 177//34 204//34
f 182//76 208//77 217//78
f 208//77 212//79 217//78
f 218//33 220//33 174//33
f 222//32 224//32 221//32
f 225//32 223//32 222//32
f 219//33 228//33 220//33
f 228//33 229//33 230//33
f 231//32 226//32 225//32
f 173//40 224//45 233//40
f 164//32 232//32 231//32
f 188//40 235//6 233//40
f 236//3 238//46 163//46
f 230//33 237//33 236//33
f 185//47 238//46 171//46
f 182//33 236//33 183//33
f 183//3 163//46 166//43
f 165//32 231//32 203//32
f 194//45 173//40 176//39
f 203//32 225//32 215//32
f 217//33 230//33 182//33
f 220//33 217//33 212//33
f 215//32 222//32 193//32
f 193//32 221//32 194//32
f 174//33 212//33 175//33
f 235//6 173//40 233//40
f 234//47 163//46 238//46
f 186//47 171//46 172//43
f 179//6 188//40 180//39
f 235//80 216//81 218//82
f 223//32 189//32 224//32
f 226//32 213//32 223//32
f 211//33 227//33 219//33
f 227//33 167//33 229//33
f 232//32 206//32 226//32
f 233//40 189//45 188//40
f 234//32 184//32 232//32
f 237//3 171//46 238//46
f 229//33 170//33 237//33
f 218//82 174//83 235//80
f 218//33 211//33 219//33
f 154//84 153//84 152//84
f 154//71 144//8 136//85
f 123//10 1//10 125//10
f 240//86 5//87 239//86
f 7//10 242//88 8//10
f 6//33 241//33 7//33
f 3//33 243//33 244//33
f 244//33 245//33 246//33
f 245//33 248//33 246//33
f 247//33 240//33 248//33
f 4//32 250//32 124//32
f 249//32 252//32 250//32
f 252//32 253//32 254//32
f 254//32 239//32 242//32
f 124//63 243//89 122//63
f 250//89 245//90 243//89
f 252//90 247//91 245//90
f 254//91 241//88 247//91
f 239//86 248//92 240//86
f 253//92 246//93 248//92
f 251//93 244//94 246//93
f 249//94 3//2 244//94
f 5//32 242//32 239//32
f 2//1 3//2 4//2
f 6//3 7//3 8//3
f 10//4 11//5 12//5
f 14//6 15//6 16//6
f 15//7 17//7 18//8
f 21//3 22//3 17//3
f 20//10 17//10 15//10
f 13//5 16//5 22//5
f 24//11 25//10 26//10
f 23//12 26//6 11//6
f 9//13 12//3 25//3
f 16//14 27//15 28//15
f 15//16 19//62 27//17
f 17//18 22//18 28//19
f 9//4 29//20 30//20
f 30//20 29//20 31//21
f 32//21 31//21 28//15
f 9//13 24//13 33//22
f 33//22 34//23 31//23
f 34//23 18//19 28//19
f 24//11 23//11 35//24
f 33//25 35//24 36//26
f 36//26 19//9 18//8
f 10//12 30//29 35//28
f 30//29 32//67 37//30
f 21//32 20//32 14//32
f 39//33 40//33 41//33
f 39//6 42//6 43//6
f 40//10 43//10 44//10
f 41//3 44//3 45//3
f 38//5 45//5 42//5
f 42//32 45//32 44//32
f 46//34 47//35 48//35
f 50//33 51//33 52//33
f 53//10 52//10 55//36
f 57//5 58//5 59//37
f 61//6 62//6 63//39
f 64//41 65//95 66//42
f 68//32 69//32 70//32
f 71//38 72//44 73//44
f 74//40 70//45 69//45
f 75//46 76//47 77//47
f 79//33 80//33 81//33
f 83//32 84//32 85//32
f 80//48 84//48 83//48
f 78//49 82//49 85//49
f 79//50 85//50 84//50
f 81//51 83//51 82//51
f 48//47 86//47 64//41
f 87//40 88//45 70//45
f 67//32 70//32 88//32
f 91//52 65//95 64//41
f 52//6 51//6 74//40
f 93//33 51//33 50//33
f 61//33 93//33 92//33
f 75//46 95//3 91//52
f 89//32 88//32 97//32
f 60//40 97//45 88//45
f 86//47 98//47 90//46
f 51//6 93//6 87//40
f 73//45 97//45 60//40
f 96//32 97//32 73//32
f 58//3 95//3 75//46
f 62//33 61//33 94//33
f 98//47 76//47 75//46
f 93//6 61//6 60//40
f 101//33 102//33 103//33
f 105//32 106//32 107//32
f 108//32 109//32 106//32
f 102//33 110//33 111//33
f 111//33 110//33 112//33
f 114//32 115//32 109//32
f 56//38 104//44 107//44
f 47//32 117//32 115//32
f 71//38 99//5 118//5
f 119//10 120//10 121//34
f 113//33 112//33 120//33
f 68//35 117//35 121//34
f 65//33 113//33 119//33
f 66//10 119//10 46//34
f 48//32 47//32 114//32
f 77//44 104//44 56//38
f 86//32 114//32 108//32
f 100//33 111//33 113//33
f 103//33 111//33 100//33
f 98//32 108//32 105//32
f 76//32 105//32 104//32
f 57//33 103//33 95//33
f 118//5 57//5 56//38
f 117//35 47//35 46//34
f 69//35 68//35 54//34
f 62//5 99//5 71//38
f 106//32 96//32 72//32
f 109//32 89//32 96//32
f 94//33 92//33 110//33
f 110//33 92//33 50//33
f 115//32 67//32 89//32
f 116//38 107//44 72//44
f 117//32 68//32 67//32
f 120//10 53//10 54//34
f 112//33 50//33 53//33
f 101//33 99//33 94//33
f 37//30 32//67 27//17
f 122//33 3//33 2//33
f 124//32 125//32 1//32
f 122//63 123//3 125//3
f 127//12 128//6 129//6
f 131//10 132//10 133//10
f 132//18 134//18 135//19
f 138//5 139//5 134//5
f 137//3 134//3 132//3
f 130//6 133//6 139//6
f 141//13 142//3 143//3
f 140//11 143//10 128//10
f 126//4 129//5 142//5
f 133//65 144//17 145//17
f 132//66 136//85 144//8
f 134//14 139//14 145//15
f 126//12 146//29 147//29
f 146//29 148//67 149//67
f 149//67 148//67 145//17
f 126//4 141//4 150//20
f 150//20 151//21 148//21
f 151//21 135//15 145//15
f 141//13 140//13 152//68
f 150//22 152//68 153//69
f 153//69 136//64 135//19
f 127//11 147//25 152//70
f 147//25 149//27 154//71
f 138//32 137//32 131//32
f 156//33 157//33 158//33
f 156//10 159//10 160//10
f 157//3 160//3 161//3
f 158//5 161//5 162//5
f 155//6 162//6 159//6
f 159//32 162//32 161//32
f 163//46 164//47 165//47
f 167//33 168//33 169//33
f 170//3 169//3 172//43
f 174//6 175//6 176//39
f 178//10 179//10 180//36
f 181//73 182//96 183//74
f 185//32 186//32 187//32
f 188//40 189//45 190//45
f 191//34 187//35 186//35
f 192//38 193//44 194//44
f 196//33 197//33 198//33
f 200//32 201//32 202//32
f 198//51 197//51 201//51
f 195//50 199//50 202//50
f 196//48 202//48 201//48
f 198//49 200//49 199//49
f 165//44 203//44 181//73
f 204//34 205//35 187//35
f 184//32 187//32 205//32
f 208//75 182//96 181//73
f 169//10 168//10 191//34
f 210//33 168//33 167//33
f 178//33 210//33 209//33
f 192//38 212//5 208//75
f 206//32 205//32 214//32
f 177//34 214//35 205//35
f 203//44 215//44 207//38
f 168//10 210//10 204//34
f 190//35 214//35 177//34
f 213//32 214//32 190//32
f 175//5 212//5 192//38
f 179//33 178//33 211//33
f 215//44 193//44 192//38
f 210//10 178//10 177//34
f 218//33 219//33 220//33
f 222//32 223//32 224//32
f 225//32 226//32 223//32
f 219//33 227//33 228//33
f 228//33 227//33 229//33
f 231//32 232//32 226//32
f 173//40 221//45 224//45
f 164//32 234//32 232//32
f 188//40 216//6 235//6
f 236//3 237//3 238//46
f 230//33 229//33 237//33
f 185//47 234//47 238//46
f 182//33 230//33 236//33
f 183//3 236//3 163//46
f 165//32 164//32 231//32
f 194//45 221//45 173//40
f 203//32 231//32 225//32
f 217//33 228//33 230//33
f 220//33 228//33 217//33
f 215//32 225//32 222//32
f 193//32 222//32 221//32
f 174//33 220//33 212//33
f 235//6 174//6 173//40
f 234//47 164//47 163//46
f 186//47 185//47 171//46
f 179//6 216//6 188//40
f 223//32 213//32 189//32
f 226//32 206//32 213//32
f 211//33 209//33 227//33
f 227//33 209//33 167//33
f 232//32 184//32 206//32
f 233//40 224//45 189//45
f 234//32 185//32 184//32
f 237//3 170//3 171//46
f 229//33 167//33 170//33
f 218//33 216//33 211//33
f 154//71 149//27 144//8
f 123//10 2//10 1//10
f 240//86 6//87 5//87
f 7//10 241//88 242//88
f 6//33 240//33 241//33
f 3//33 122//33 243//33
f 244//33 243//33 245//33
f 245//33 247//33 248//33
f 247//33 241//33 240//33
f 4//32 249//32 250//32
f 249//32 251//32 252//32
f 252//32 251//32 253//32
f 254//32 253//32 239//32
f 124//63 250//89 243//89
f 250//89 252//90 245//90
f 252//90 254//91 247//91
f 254//91 242//88 241//88
f 239//86 253//92 248//92
f 253//92 251//93 246//93
f 251//93 249//94 244//94
f 249//94 4//2 3//2
f 5//32 8//32 242//32
