# Blender v3.0.0 OBJ File: ''
# www.blender.org
mtllib Rail_Divider.mtl
o Rail_Divider_Cylinder.001
v -0.114159 0.221961 -0.123246
v -0.114159 0.221961 0.132012
v -0.114159 0.270471 0.132012
v -0.114159 0.270471 -0.123246
v -0.147198 -0.002502 0.165050
v 0.174137 -0.002502 0.165050
v 0.174137 0.115463 0.165050
v -0.147198 0.115463 0.165050
v 0.174137 0.115463 -0.156285
v 0.165459 0.134038 -0.147607
v 0.165459 0.134038 0.156373
v 0.174137 -0.002502 -0.156285
v -0.147198 -0.002502 -0.156285
v -0.147198 0.115463 -0.156285
v 0.141099 0.221961 0.132012
v 0.141099 0.221961 -0.123246
v 0.141099 0.270471 -0.123246
v 0.141099 0.270471 0.132012
v -0.138520 0.134038 0.156373
v -0.138520 0.134038 -0.147607
v -0.117423 0.189354 -0.126510
v -0.117423 0.189354 0.135275
v -0.126340 0.159387 -0.135427
v -0.126340 0.159387 0.144192
v 0.144362 0.189354 -0.126510
v 0.153279 0.159387 -0.135427
v 0.144362 0.189354 0.135275
v 0.153279 0.159387 0.132205
v 0.145908 0.159387 0.144192
v -0.160915 0.475376 -0.170002
v -0.160915 0.475376 0.178768
v 0.187855 0.475376 0.178768
v 0.187855 0.475376 -0.170002
v -0.160915 0.328864 0.178768
v 0.187855 0.328864 0.178768
v 0.187855 0.328864 -0.170002
v -0.160915 0.328864 -0.170002
v 0.194761 0.450790 -0.005191
v 0.192716 0.432241 -0.005083
v 0.192716 0.432241 -0.174864
v 0.194761 0.450790 -0.176909
v 0.150457 0.485776 0.077681
v 0.150457 0.485776 0.185675
v 0.194761 0.485776 0.185675
v 0.194761 0.485776 0.075636
v 0.194761 0.450790 0.075636
v 0.194761 0.450790 0.185675
v -0.167822 0.450790 -0.005191
v -0.167822 0.485776 -0.048288
v -0.167822 0.485776 -0.176909
v -0.167822 0.450790 -0.176909
v 0.069477 0.450790 0.185675
v 0.069477 0.485776 0.185675
v -0.167822 0.485776 0.185675
v -0.167822 0.450790 0.185675
v 0.150457 0.450790 -0.176909
v 0.150457 0.485776 -0.170170
v 0.194761 0.485776 -0.176909
v 0.148912 0.432241 0.074832
v 0.192716 0.432241 0.074832
v 0.192716 0.432241 0.183629
v 0.148912 0.432241 0.183629
v -0.167822 0.450790 0.075636
v -0.165777 0.432241 0.074832
v -0.165777 0.432241 0.183629
v 0.150457 0.450790 0.185675
v 0.056751 0.450790 -0.176909
v 0.056263 0.432241 -0.174864
v -0.165777 0.432241 -0.174864
v -0.149986 0.338330 0.167839
v 0.176926 0.338330 0.167839
v 0.176926 0.338330 -0.159073
v -0.149986 0.338330 -0.159073
v -0.136229 0.262595 0.154081
v -0.136229 0.262595 -0.145315
v 0.163168 0.262595 -0.145315
v 0.163168 0.262595 0.154081
v 0.148912 0.432241 -0.174864
v 0.125746 0.450790 0.185675
v 0.124479 0.432241 0.183629
v 0.119755 0.432241 0.074832
v 0.110002 0.450790 -0.176909
v 0.110002 0.471486 -0.176909
v 0.121093 0.485776 0.078504
v 0.125746 0.485776 0.185675
v 0.065615 0.485776 0.075636
v 0.056751 0.485776 -0.176909
v 0.065027 0.432241 0.074832
v 0.068845 0.432241 0.183629
v 0.108913 0.432241 -0.174864
v -0.167822 0.485776 0.075636
v 0.110413 0.485776 -0.167457
v -0.156307 0.485776 0.041421
v 0.064414 0.485776 0.041421
v 0.062778 0.485776 -0.005191
v -0.165777 0.432241 -0.005083
v 0.062222 0.432241 -0.005083
v 0.063839 0.432241 0.041003
v -0.165777 0.432241 0.041003
v 0.116285 0.432241 -0.005083
v 0.118286 0.432241 0.041003
v 0.119646 0.485776 0.045182
v 0.117675 0.485776 -0.000215
v 0.150457 0.485776 0.044102
v 0.150457 0.485776 -0.001644
v 0.148912 0.432241 -0.005083
v 0.148912 0.432241 0.041003
v -0.167822 0.450790 0.041421
v 0.192716 0.432241 0.041003
v -0.167822 0.475936 0.041421
v 0.194761 0.485776 -0.005191
v 0.194761 0.485776 0.041421
v 0.194761 0.450790 0.041421
vn -0.9987 0.0514 0.0000
vn -1.0000 0.0000 0.0000
vn 0.0000 -0.0000 1.0000
vn 0.9060 0.4233 0.0000
vn 0.9043 0.4269 0.0000
vn 0.9046 0.4263 0.0000
vn 0.0000 0.0000 -1.0000
vn 1.0000 -0.0000 0.0000
vn 0.9987 0.0514 0.0000
vn 0.0000 0.0514 0.9987
vn 0.0000 0.0514 -0.9987
vn -0.9060 0.4233 0.0000
vn -0.9043 0.4269 0.0000
vn 0.0000 0.4232 0.9060
vn 0.0000 0.4269 0.9043
vn 0.0000 0.4233 -0.9060
vn 0.0000 0.4269 -0.9043
vn -0.9790 0.2038 0.0000
vn -0.9267 0.3758 0.0000
vn 0.0000 0.2038 -0.9790
vn 0.0000 0.3758 -0.9267
vn 0.9811 0.1933 0.0000
vn 0.9790 0.2038 0.0000
vn 0.9283 0.3717 0.0000
vn 0.9267 0.3758 0.0000
vn 0.0000 0.1977 0.9803
vn 0.0000 0.2038 0.9790
vn 0.0000 0.3734 0.9277
vn 0.6304 0.6725 0.3877
vn 0.0000 -1.0000 -0.0000
vn 0.0000 1.0000 0.0000
vn 0.9985 -0.0549 0.0000
vn 0.9940 -0.1096 0.0000
vn 0.9986 -0.0529 0.0000
vn -0.9986 -0.0529 0.0000
vn -0.9985 -0.0549 0.0000
vn 0.0000 -0.0529 0.9986
vn 0.0000 -0.0549 0.9985
vn -0.0046 0.0057 -1.0000
vn -0.0641 0.0811 -0.9946
vn 0.0000 -0.0529 -0.9986
vn -0.9940 -0.1096 -0.0000
vn 0.0000 -0.1096 0.9940
vn -0.0000 -0.0549 -0.9985
vn 0.0000 -0.1096 -0.9940
vn 0.0000 -0.1787 -0.9839
vn 0.0000 -0.1787 0.9839
vn 0.9839 -0.1787 -0.0000
vn -0.9839 -0.1787 -0.0000
vn 0.0212 0.0415 -0.9989
vn -0.0564 0.5519 -0.8320
vn 0.0528 0.5499 -0.8336
vn 0.0413 0.5504 -0.8339
vn 0.1457 0.5429 -0.8271
vn -0.6485 0.7589 -0.0603
vn -0.6347 0.7427 -0.2136
vn -0.6486 0.7590 -0.0580
vn -0.6474 0.7576 0.0831
vn 0.8353 0.1959 0.5137
vn 0.0000 0.4265 0.9045
vn 0.0000 0.3758 0.9267
vn -0.0407 0.1890 -0.9811
usemtl Main.073
s 1
f 2//1 4//2 1//1
f 6//3 8//3 5//3
f 7//4 10//5 11//6
f 13//7 9//7 12//7
f 12//8 7//8 6//8
f 5//2 14//2 13//2
f 16//9 18//8 15//9
f 15//10 3//3 2//10
f 1//11 17//7 16//11
f 8//12 20//13 14//12
f 7//14 19//15 8//14
f 14//16 10//17 9//16
f 1//1 22//18 2//1
f 21//18 24//19 22//18
f 24//19 20//13 19//13
f 1//11 25//20 21//20
f 25//20 23//21 21//20
f 23//21 10//17 20//17
f 16//9 27//22 25//23
f 25//23 28//24 26//25
f 28//24 10//5 26//25
f 2//10 27//26 15//10
f 22//27 29//28 27//26
f 28//29 29//29 11//29
f 13//30 6//30 5//30
f 31//31 33//31 30//31
f 31//3 35//3 32//3
f 32//8 36//8 33//8
f 33//7 37//7 30//7
f 30//2 34//2 31//2
f 34//30 36//30 35//30
f 38//32 40//33 41//34
f 42//31 44//31 45//31
f 45//8 47//34 46//32
f 49//2 51//35 48//36
f 53//3 55//37 52//38
f 56//39 58//40 41//41
f 60//30 62//30 59//30
f 63//36 65//42 55//35
f 66//38 61//43 47//37
f 67//44 69//45 51//41
f 71//31 73//31 70//31
f 75//30 77//30 74//30
f 73//46 76//46 75//46
f 70//47 77//47 71//47
f 72//48 77//48 76//48
f 73//49 74//49 70//49
f 40//45 56//39 41//41
f 79//38 62//43 66//38
f 59//30 80//30 81//30
f 83//50 56//39 82//44
f 44//3 66//38 47//37
f 85//31 42//31 84//31
f 53//31 84//31 86//31
f 67//44 83//50 82//44
f 81//30 89//30 88//30
f 52//38 80//43 79//38
f 78//45 82//44 56//39
f 43//3 79//38 66//38
f 65//43 52//38 55//37
f 88//30 65//30 64//30
f 50//7 67//44 51//41
f 54//31 86//31 91//31
f 90//45 67//44 82//44
f 85//3 52//38 79//38
f 57//51 83//52 92//53
f 83//52 87//54 92//53
f 93//31 95//31 49//31
f 97//30 99//30 96//30
f 100//30 98//30 97//30
f 94//31 103//31 95//31
f 103//31 104//31 105//31
f 106//30 101//30 100//30
f 48//36 99//42 108//36
f 39//30 107//30 106//30
f 63//36 110//2 108//36
f 111//8 113//32 38//32
f 105//31 112//31 111//31
f 60//33 113//32 46//32
f 57//31 111//31 58//31
f 58//8 38//32 41//34
f 40//30 106//30 78//30
f 69//42 48//36 51//35
f 78//30 100//30 90//30
f 92//31 105//31 57//31
f 95//31 92//31 87//31
f 90//30 97//30 68//30
f 68//30 96//30 69//30
f 49//31 87//31 50//31
f 110//2 48//36 108//36
f 109//33 38//32 113//32
f 61//33 46//32 47//34
f 54//2 63//36 55//35
f 110//55 91//56 93//57
f 98//30 64//30 99//30
f 101//30 88//30 98//30
f 86//31 102//31 94//31
f 102//31 42//31 104//31
f 107//30 81//30 101//30
f 108//36 64//42 63//36
f 109//30 59//30 107//30
f 112//8 46//32 113//32
f 104//31 45//31 112//31
f 93//57 49//58 110//55
f 93//31 86//31 94//31
f 29//59 28//59 27//59
f 29//28 19//15 11//60
f 2//1 3//2 4//2
f 6//3 7//3 8//3
f 7//4 9//4 10//5
f 13//7 14//7 9//7
f 12//8 9//8 7//8
f 5//2 8//2 14//2
f 16//9 17//8 18//8
f 15//10 18//3 3//3
f 1//11 4//7 17//7
f 8//12 19//13 20//13
f 7//14 11//60 19//15
f 14//16 20//17 10//17
f 1//1 21//18 22//18
f 21//18 23//19 24//19
f 24//19 23//19 20//13
f 1//11 16//11 25//20
f 25//20 26//21 23//21
f 23//21 26//21 10//17
f 16//9 15//9 27//22
f 25//23 27//22 28//24
f 28//24 11//6 10//5
f 2//10 22//27 27//26
f 22//27 24//61 29//28
f 13//30 12//30 6//30
f 31//31 32//31 33//31
f 31//3 34//3 35//3
f 32//8 35//8 36//8
f 33//7 36//7 37//7
f 30//2 37//2 34//2
f 34//30 37//30 36//30
f 38//32 39//33 40//33
f 42//31 43//31 44//31
f 45//8 44//8 47//34
f 49//2 50//2 51//35
f 53//3 54//3 55//37
f 56//39 57//62 58//40
f 60//30 61//30 62//30
f 63//36 64//42 65//42
f 66//38 62//43 61//43
f 67//44 68//45 69//45
f 71//31 72//31 73//31
f 75//30 76//30 77//30
f 73//46 72//46 76//46
f 70//47 74//47 77//47
f 72//48 71//48 77//48
f 73//49 75//49 74//49
f 40//45 78//45 56//39
f 79//38 80//43 62//43
f 59//30 62//30 80//30
f 83//50 57//62 56//39
f 44//3 43//3 66//38
f 85//31 43//31 42//31
f 53//31 85//31 84//31
f 67//44 87//7 83//50
f 81//30 80//30 89//30
f 52//38 89//43 80//43
f 78//45 90//45 82//44
f 43//3 85//3 79//38
f 65//43 89//43 52//38
f 88//30 89//30 65//30
f 50//7 87//7 67//44
f 54//31 53//31 86//31
f 90//45 68//45 67//44
f 85//3 53//3 52//38
f 93//31 94//31 95//31
f 97//30 98//30 99//30
f 100//30 101//30 98//30
f 94//31 102//31 103//31
f 103//31 102//31 104//31
f 106//30 107//30 101//30
f 48//36 96//42 99//42
f 39//30 109//30 107//30
f 63//36 91//2 110//2
f 111//8 112//8 113//32
f 105//31 104//31 112//31
f 60//33 109//33 113//32
f 57//31 105//31 111//31
f 58//8 111//8 38//32
f 40//30 39//30 106//30
f 69//42 96//42 48//36
f 78//30 106//30 100//30
f 92//31 103//31 105//31
f 95//31 103//31 92//31
f 90//30 100//30 97//30
f 68//30 97//30 96//30
f 49//31 95//31 87//31
f 110//2 49//2 48//36
f 109//33 39//33 38//32
f 61//33 60//33 46//32
f 54//2 91//2 63//36
f 98//30 88//30 64//30
f 101//30 81//30 88//30
f 86//31 84//31 102//31
f 102//31 84//31 42//31
f 107//30 59//30 81//30
f 108//36 99//42 64//42
f 109//30 60//30 59//30
f 112//8 45//8 46//32
f 104//31 42//31 45//31
f 93//31 91//31 86//31
f 29//28 24//61 19//15
