# Blender v3.0.0 OBJ File: ''
# www.blender.org
mtllib Torch.mtl
o Torch_Cylinder.001
v -0.016575 0.166374 0.028709
v -0.019032 0.270785 0.032965
v -0.038064 0.270785 0.000000
v -0.033150 0.166374 0.000000
v 0.016575 0.166374 -0.028709
v 0.019032 0.270785 -0.032965
v 0.038064 0.270785 0.000000
v 0.033150 0.166374 0.000000
v 0.019032 0.270785 0.032965
v 0.016575 0.166374 0.028709
v -0.039810 0.292543 0.068954
v -0.079621 0.292543 0.000000
v -0.038064 -0.230985 -0.000000
v -0.024718 -0.160661 -0.000000
v -0.012359 -0.160661 -0.021406
v -0.019032 -0.230985 -0.032965
v -0.016575 0.166374 -0.028709
v -0.019032 0.270785 -0.032965
v -0.015802 -0.270785 -0.027370
v -0.031604 -0.270785 -0.000000
v 0.019032 -0.230985 -0.032965
v 0.015802 -0.270785 -0.027370
v 0.038064 -0.230985 -0.000000
v 0.031604 -0.270785 -0.000000
v 0.019032 -0.230985 0.032965
v 0.015802 -0.270785 0.027370
v -0.019032 -0.230985 0.032965
v -0.015802 -0.270785 0.027370
v 0.012359 -0.160661 -0.021406
v 0.012359 -0.160661 0.021406
v -0.012359 -0.160661 0.021406
v 0.024718 -0.160661 -0.000000
v 0.017183 -0.158816 0.029761
v -0.017183 -0.158816 0.029761
v -0.034365 -0.158816 -0.000000
v -0.017183 -0.158816 -0.029761
v 0.009865 -0.118742 0.017086
v -0.009865 -0.118742 0.017086
v -0.013715 -0.120588 0.023755
v 0.013715 -0.120587 0.023755
v 0.034365 -0.158816 -0.000000
v 0.017183 -0.158816 -0.029761
v -0.019729 -0.118742 -0.000000
v -0.027430 -0.120587 -0.000000
v -0.039810 0.319740 0.068954
v -0.079621 0.319740 0.000000
v 0.079621 0.292543 0.000000
v 0.039810 0.292543 0.068954
v -0.039810 0.292543 -0.068954
v 0.039810 0.292543 -0.068954
v 0.039810 0.319740 0.068954
v 0.051990 0.319740 0.090050
v -0.051990 0.319740 0.090050
v 0.079621 0.319740 0.000000
v -0.039810 0.319740 -0.068954
v 0.039810 0.319740 -0.068954
v -0.103981 0.319740 0.000000
v -0.069569 0.393172 0.120496
v -0.139137 0.393172 0.000000
v 0.051990 0.319740 -0.090050
v 0.103981 0.319740 0.000000
v -0.051990 0.319740 -0.090050
v 0.069569 0.393172 0.120496
v 0.052547 0.393172 0.091015
v -0.052547 0.393172 0.091015
v 0.139137 0.393172 0.000000
v -0.069569 0.393172 -0.120496
v 0.069569 0.393172 -0.120496
v -0.105095 0.393172 0.000000
v -0.044692 0.364456 0.077409
v -0.089384 0.364456 0.000000
v 0.052548 0.393172 -0.091015
v 0.105095 0.393172 0.000000
v -0.052548 0.393172 -0.091015
v 0.044692 0.364456 0.077409
v 0.032834 0.364456 0.056870
v -0.032834 0.364456 0.056870
v 0.089384 0.364456 0.000000
v -0.044692 0.364456 -0.077409
v 0.044692 0.364456 -0.077409
v 0.020990 0.384689 0.114548
v -0.013625 0.384689 0.114820
v -0.015007 0.384689 0.097985
v 0.019608 0.384689 0.097712
v 0.020990 0.572671 0.114548
v 0.019608 0.572671 0.097712
v -0.015007 0.572671 0.097985
v -0.013625 0.572671 0.114820
v -0.017099 0.438250 0.144104
v -0.018835 0.438250 0.122975
v 0.024608 0.438250 0.122633
v 0.026344 0.438250 0.143762
v 0.109696 0.384689 0.039096
v 0.092625 0.384689 0.069209
v 0.077354 0.384689 0.061989
v 0.094425 0.384689 0.031875
v 0.109696 0.572671 0.039096
v 0.094425 0.572671 0.031875
v 0.077354 0.572671 0.061989
v 0.092625 0.572671 0.069209
v 0.116248 0.438250 0.086861
v 0.097082 0.438250 0.077799
v 0.118508 0.438250 0.040005
v 0.137674 0.438250 0.049067
v 0.088706 0.384689 -0.075452
v 0.106249 0.384689 -0.045611
v 0.092361 0.384689 -0.035996
v 0.074818 0.384689 -0.065837
v 0.088706 0.572671 -0.075452
v 0.074818 0.572671 -0.065837
v 0.092361 0.572671 -0.035996
v 0.106249 0.572671 -0.045611
v 0.133347 0.438250 -0.057244
v 0.115917 0.438250 -0.045176
v 0.093899 0.438250 -0.082628
v 0.111330 0.438250 -0.094696
v -0.020990 0.384689 -0.114548
v 0.013624 0.384689 -0.114820
v 0.015007 0.384689 -0.097985
v -0.019608 0.384689 -0.097712
v -0.020990 0.572671 -0.114548
v -0.019608 0.572671 -0.097712
v 0.015007 0.572671 -0.097985
v 0.013624 0.572671 -0.114820
v 0.017099 0.438250 -0.144104
v 0.018835 0.438250 -0.122975
v -0.024609 0.438250 -0.122633
v -0.026344 0.438250 -0.143762
v -0.109696 0.384689 -0.039096
v -0.092625 0.384689 -0.069209
v -0.077354 0.384689 -0.061989
v -0.094425 0.384689 -0.031875
v -0.109696 0.572671 -0.039096
v -0.094425 0.572671 -0.031875
v -0.077354 0.572671 -0.061989
v -0.092625 0.572671 -0.069209
v -0.116248 0.438250 -0.086860
v -0.097082 0.438250 -0.077799
v -0.118508 0.438250 -0.040005
v -0.137674 0.438250 -0.049067
v -0.088706 0.384689 0.075452
v -0.106249 0.384689 0.045611
v -0.092361 0.384689 0.035996
v -0.074818 0.384689 0.065837
v -0.088706 0.572671 0.075452
v -0.074818 0.572671 0.065837
v -0.092361 0.572671 0.035996
v -0.106249 0.572671 0.045611
v -0.133347 0.438250 0.057244
v -0.115917 0.438250 0.045176
v -0.093899 0.438250 0.082628
v -0.111330 0.438250 0.094696
v 0.020284 0.163516 0.035132
v 0.040567 0.163516 0.000000
v 0.031789 0.137456 0.000000
v 0.015894 0.137456 -0.027530
v 0.019451 0.140314 -0.033690
v 0.038902 0.140314 0.000000
v -0.015894 0.137456 -0.027530
v -0.019451 0.140314 -0.033690
v -0.020284 0.163516 0.035132
v -0.031789 0.137456 0.000000
v -0.015894 0.137456 0.027530
v -0.019451 0.140314 0.033690
v -0.038902 0.140314 0.000000
v -0.040567 0.163516 0.000000
v -0.013715 -0.120587 -0.023755
v 0.009865 -0.118742 -0.017086
v 0.019729 -0.118742 -0.000000
v 0.015894 0.137456 0.027530
v -0.009865 -0.118742 -0.017086
v 0.027430 -0.120587 -0.000000
v 0.013715 -0.120587 -0.023755
v -0.020284 0.163516 -0.035132
v 0.020284 0.163516 -0.035132
v 0.020284 0.163516 -0.293543
v -0.020284 0.163516 -0.293543
v 0.013715 -0.120587 -0.282166
v -0.013715 -0.120587 -0.282166
v 0.019451 0.140314 0.033690
v -0.017183 -0.158816 -0.288172
v 0.017183 -0.158816 -0.288172
v -0.019451 0.140314 -0.292101
v 0.019451 0.140314 -0.292101
v 0.032834 0.364456 -0.056870
v 0.065667 0.364456 0.000000
v -0.065667 0.364456 0.000000
v -0.032834 0.364456 -0.056870
v 0.037876 0.467078 0.108954
v -0.048510 0.500193 0.108954
v -0.091702 0.516750 0.028834
v -0.032488 0.599356 0.060208
v -0.058075 0.593739 0.000386
v 0.037876 0.467078 -0.051287
v 0.081069 0.450521 0.028834
v -0.048510 0.500193 -0.051287
v 0.030339 0.584706 0.070359
v -0.002568 0.680848 0.042162
v -0.049626 0.689205 0.043420
v 0.067580 0.564439 0.020687
v -0.020834 0.573472 -0.049285
v 0.041993 0.558821 -0.039135
v 0.023745 0.697697 0.005973
v -0.003585 0.899651 0.088556
v 0.002999 0.722903 -0.028959
v -0.070371 0.714411 0.008489
v -0.044059 0.731260 -0.027701
vn -0.4994 -0.0470 0.8651
vn -0.7806 -0.6250 0.0000
vn -0.9989 -0.0470 -0.0000
vn 0.4994 -0.0470 -0.8651
vn 0.7806 -0.6250 0.0000
vn 0.9989 -0.0470 -0.0000
vn 0.4994 -0.0470 0.8651
vn 0.3903 -0.6250 0.6761
vn -0.3903 -0.6250 0.6761
vn -0.8901 -0.4557 0.0000
vn -0.9999 0.0126 0.0000
vn -0.4912 0.1865 -0.8508
vn -0.5000 0.0126 -0.8660
vn -0.3903 -0.6250 -0.6761
vn -0.4994 -0.0470 -0.8651
vn -0.4935 -0.1602 -0.8548
vn -0.9871 -0.1602 -0.0000
vn 0.5000 0.0126 -0.8660
vn 0.9999 0.0126 -0.0000
vn 0.4935 -0.1602 -0.8548
vn 0.4935 -0.1602 0.8548
vn 0.9871 -0.1602 -0.0000
vn -0.5000 0.0126 0.8660
vn 0.5000 0.0126 0.8660
vn -0.4935 -0.1602 0.8548
vn 0.0000 -1.0000 0.0000
vn 0.4912 0.1865 0.8508
vn 0.4912 0.1865 -0.8508
vn -0.4912 0.1865 0.8508
vn -0.0939 -0.9822 0.1627
vn 0.0939 -0.9822 0.1627
vn -0.1878 -0.9822 -0.0000
vn -0.0540 -0.9942 -0.0935
vn -0.0939 -0.9822 -0.1627
vn 0.1165 0.9725 0.2018
vn -0.3962 0.6099 0.6863
vn 0.3962 0.6100 0.6863
vn 0.1878 -0.9822 0.0000
vn 0.0540 -0.9942 -0.0935
vn -0.1165 0.9725 0.2019
vn -0.7924 0.6100 0.0000
vn -0.4451 -0.4557 0.7709
vn -1.0000 0.0000 0.0000
vn 0.8901 -0.4557 -0.0000
vn 0.4451 -0.4557 0.7709
vn 0.4451 -0.4557 -0.7709
vn 0.3903 -0.6250 -0.6761
vn -0.4451 -0.4557 -0.7709
vn 0.5000 -0.0000 0.8660
vn 0.5000 0.0000 -0.8660
vn -0.5000 -0.0000 0.8660
vn 1.0000 -0.0000 -0.0000
vn -0.5000 0.0000 -0.8660
vn -0.9020 -0.4318 -0.0000
vn -0.4510 -0.4318 0.7811
vn 0.0000 1.0000 0.0000
vn 0.1818 0.9315 -0.3149
vn 0.9020 -0.4318 -0.0000
vn 0.4510 -0.4318 0.7811
vn -0.4510 -0.4318 -0.7811
vn 0.4510 -0.4318 -0.7811
vn 0.3637 0.9315 -0.0000
vn 0.3071 0.7892 -0.5319
vn 0.6141 0.7892 -0.0000
vn -0.1818 0.9315 0.3149
vn -0.3637 0.9315 -0.0000
vn 0.1818 0.9315 0.3149
vn -0.1818 0.9315 -0.3149
vn -0.3071 0.7892 -0.5319
vn -0.3071 0.7892 0.5318
vn -0.6141 0.7892 -0.0000
vn 0.3071 0.7892 0.5318
vn 0.0040 -0.8613 0.5081
vn 0.0042 -0.8445 0.5355
vn -0.9957 0.0436 0.0817
vn -0.9959 -0.0377 0.0818
vn -0.9964 -0.0239 0.0819
vn -0.0078 0.1219 -0.9925
vn -0.0078 -0.1826 -0.9832
vn -0.0078 0.1211 -0.9926
vn 0.9965 -0.0191 -0.0819
vn 0.9964 0.0219 -0.0818
vn 0.9966 -0.0119 -0.0819
vn 0.0077 0.2127 0.9771
vn 0.0078 -0.1383 0.9904
vn 0.0078 -0.1366 0.9906
vn 0.4420 -0.8613 0.2506
vn 0.4659 -0.8445 0.2641
vn -0.4270 0.0436 0.9032
vn -0.4271 -0.0377 0.9034
vn -0.4273 -0.0239 0.9038
vn -0.8634 0.1219 -0.4895
vn -0.8553 -0.1826 -0.4849
vn -0.8635 0.1211 -0.4895
vn 0.4274 -0.0191 -0.9039
vn 0.4274 0.0219 -0.9038
vn 0.4274 -0.0120 -0.9040
vn 0.8500 0.2127 0.4819
vn 0.8616 -0.1383 0.4884
vn 0.8618 -0.1366 0.4886
vn 0.4380 -0.8613 -0.2575
vn 0.4617 -0.8445 -0.2714
vn 0.5687 0.0436 0.8214
vn 0.5688 -0.0377 0.8216
vn 0.5691 -0.0239 0.8219
vn -0.8556 0.1219 0.5030
vn -0.8476 -0.1826 0.4983
vn -0.8557 0.1211 0.5031
vn -0.5691 -0.0191 -0.8220
vn -0.5691 0.0219 -0.8220
vn -0.5692 -0.0119 -0.8221
vn 0.8423 0.2127 -0.4952
vn 0.8538 -0.1383 -0.5019
vn 0.8540 -0.1366 -0.5020
vn -0.0040 -0.8613 -0.5081
vn -0.0042 -0.8445 -0.5355
vn 0.9957 0.0436 -0.0818
vn 0.9959 -0.0377 -0.0818
vn 0.9964 -0.0239 -0.0819
vn 0.0078 0.1219 0.9925
vn 0.0078 -0.1826 0.9832
vn 0.0078 0.1211 0.9926
vn -0.9965 -0.0191 0.0818
vn -0.9964 0.0219 0.0818
vn -0.9966 -0.0120 0.0818
vn -0.0077 0.2127 -0.9771
vn -0.0078 -0.1383 -0.9904
vn -0.0078 -0.1366 -0.9906
vn -0.4420 -0.8613 -0.2506
vn -0.4659 -0.8445 -0.2641
vn 0.4270 0.0436 -0.9032
vn 0.4271 -0.0377 -0.9034
vn 0.4273 -0.0239 -0.9038
vn 0.8634 0.1219 0.4895
vn 0.8553 -0.1826 0.4849
vn 0.8635 0.1211 0.4895
vn -0.4274 -0.0191 0.9039
vn -0.4274 0.0219 0.9038
vn -0.4274 -0.0120 0.9040
vn -0.8500 0.2127 -0.4819
vn -0.8616 -0.1383 -0.4884
vn -0.8618 -0.1366 -0.4886
vn -0.4380 -0.8613 0.2575
vn -0.4617 -0.8445 0.2714
vn -0.5687 0.0436 -0.8214
vn -0.5688 -0.0377 -0.8216
vn -0.5691 -0.0239 -0.8219
vn 0.8556 0.1219 -0.5030
vn 0.8476 -0.1826 -0.4983
vn 0.8557 0.1211 -0.5031
vn 0.5691 -0.0191 0.8220
vn 0.5691 0.0219 0.8220
vn 0.5692 -0.0119 0.8221
vn -0.8423 0.2127 0.4952
vn -0.8538 -0.1383 0.5019
vn -0.8540 -0.1366 0.5020
vn 0.9951 -0.0549 -0.0817
vn -0.0071 0.4224 -0.9064
vn -0.9907 -0.1088 0.0813
vn 0.5684 -0.0549 0.8209
vn 0.7814 0.4224 -0.4594
vn -0.5658 -0.1088 -0.8173
vn -0.4268 -0.0549 0.9027
vn 0.7885 0.4224 0.4470
vn 0.4249 -0.1088 -0.8987
vn -0.9951 -0.0549 0.0817
vn 0.0071 0.4224 0.9064
vn 0.9907 -0.1088 -0.0814
vn 0.4268 -0.0549 -0.9027
vn -0.7885 0.4224 -0.4470
vn -0.4249 -0.1088 0.8987
vn -0.5684 -0.0549 -0.8209
vn -0.7814 0.4224 0.4594
vn 0.5658 -0.1088 0.8173
vn 0.3596 0.9331 0.0000
vn 0.1798 0.9331 0.3114
vn 0.7350 -0.6781 -0.0000
vn 0.6368 -0.7153 -0.2879
vn 0.8542 -0.5200 0.0000
vn -0.3675 -0.6781 -0.6365
vn 0.3675 -0.6781 -0.6365
vn -0.1798 0.9331 0.3114
vn -0.7350 -0.6781 -0.0000
vn -0.4271 -0.5200 0.7397
vn -0.8542 -0.5200 -0.0000
vn -0.3596 0.9331 0.0000
vn -0.9637 0.1245 -0.2361
vn -0.9839 0.1785 0.0000
vn -0.4995 -0.0470 0.8651
vn 0.4995 -0.0470 -0.8651
vn 0.4995 -0.0470 0.8651
vn -0.3675 -0.6781 0.6365
vn -0.4995 -0.0470 -0.8651
vn 0.7924 0.6100 0.0000
vn 0.2330 0.9725 -0.0000
vn -0.4920 0.1785 0.8521
vn 0.9637 0.1245 -0.2361
vn 0.9839 0.1785 -0.0000
vn 0.4920 0.1785 0.8521
vn 0.1051 0.9777 -0.1821
vn -0.1051 0.9777 -0.1821
vn -0.9669 -0.0503 -0.2503
vn -0.6368 -0.7153 -0.2879
vn 0.5913 0.7701 -0.2394
vn -0.5913 0.7701 -0.2394
vn 0.4987 -0.0716 0.8638
vn 0.4271 -0.5200 0.7397
vn 0.9669 -0.0503 -0.2503
vn -0.4987 -0.0716 0.8638
vn 0.3675 -0.6781 0.6365
vn 0.1798 0.9331 -0.3114
vn -0.1798 0.9331 -0.3114
vn -0.1165 0.9725 -0.2018
vn -0.2330 0.9725 -0.0000
vn 0.0939 -0.9822 -0.1627
vn 0.1165 0.9725 -0.2018
vn 0.0000 0.1552 -0.9879
vn 0.0000 -0.0620 -0.9981
vn 0.9994 -0.0359 -0.0000
vn -0.9959 0.0903 0.0000
vn -0.9994 -0.0359 -0.0000
vn 0.9959 0.0903 0.0000
vn -0.9825 0.1865 0.0000
vn 0.9825 0.1865 0.0000
vn -0.9974 -0.0716 0.0000
vn 0.9974 -0.0716 0.0000
vn -0.5312 -0.3708 0.7618
vn 0.4573 -0.0900 0.8848
vn -0.4929 0.0533 0.8684
vn -0.9922 0.1112 0.0570
vn -0.5187 0.3099 0.7968
vn -0.9684 0.1552 -0.1953
vn 0.9832 -0.1528 -0.0997
vn 0.5250 0.0606 -0.8490
vn 0.9963 -0.0567 0.0644
vn -0.9842 -0.1687 -0.0545
vn -0.5199 0.0736 -0.8511
vn -0.4629 -0.0123 -0.8863
vn 0.5056 -0.4167 0.7554
vn 0.4808 0.0241 -0.8765
vn 0.4007 0.1318 0.9067
vn -0.5805 -0.0491 0.8128
vn 0.9758 0.2141 0.0453
vn 0.4744 0.3560 0.8051
vn 0.6283 0.1129 -0.7697
vn -0.2700 0.1078 -0.9568
vn 0.9741 0.2191 0.0555
vn 0.0964 0.9154 0.3909
vn -0.4677 0.3444 -0.8141
vn -0.9924 0.1095 -0.0562
vn 0.4983 0.3335 -0.8003
usemtl DarkMetal.001
s 1
f 1//1 3//2 4//3
f 5//4 7//5 8//6
f 7//5 10//7 8//6
f 9//8 1//1 10//7
f 2//9 12//10 3//2
f 13//11 15//12 16//13
f 18//14 5//4 17//15
f 3//2 17//15 4//3
f 13//11 19//16 20//17
f 21//18 19//16 16//13
f 23//19 22//20 21//18
f 23//19 26//21 24//22
f 27//23 26//21 25//24
f 13//11 28//25 27//23
f 24//26 26//26 28//26
f 15//12 21//18 16//13
f 30//27 27//23 25//24
f 23//19 30//27 25//24
f 29//28 23//19 21//18
f 31//29 13//11 27//23
f 31//30 33//31 34//30
f 14//32 36//33 15//34
f 37//35 39//36 40//37
f 32//38 33//31 30//31
f 32//38 42//39 41//38
f 38//40 44//41 39//36
f 11//42 46//43 12//10
f 9//8 47//44 48//45
f 18//14 50//46 6//47
f 9//8 11//42 2//9
f 18//14 12//10 49//48
f 6//47 47//44 7//5
f 51//26 53//26 45//26
f 47//44 51//49 48//45
f 49//48 56//50 50//46
f 48//45 45//51 11//42
f 50//46 54//52 47//44
f 12//10 55//53 49//48
f 57//54 58//55 59//54
f 54//26 60//26 61//26
f 46//26 62//26 55//26
f 46//26 53//26 57//26
f 54//26 52//26 51//26
f 55//26 60//26 56//26
f 63//56 65//57 58//56
f 61//58 63//59 52//59
f 62//60 68//61 60//61
f 52//59 58//55 53//55
f 61//58 68//61 66//58
f 57//54 67//60 62//60
f 69//62 70//63 71//64
f 66//56 72//65 73//66
f 59//56 74//67 67//56
f 58//56 69//62 59//56
f 63//56 73//66 64//68
f 67//56 72//65 68//56
f 75//69 77//56 70//63
f 73//66 75//69 64//68
f 74//67 80//70 72//65
f 64//68 70//63 65//57
f 72//65 78//71 73//66
f 74//67 71//64 79//72
f 82//73 84//26 81//74
f 86//56 88//56 85//56
f 88//75 90//76 89//77
f 90//78 86//79 91//80
f 91//81 85//82 92//83
f 85//84 89//85 92//86
f 94//87 96//26 93//88
f 98//56 100//56 97//56
f 100//89 102//90 101//91
f 102//92 98//93 103//94
f 103//95 97//96 104//97
f 97//98 101//99 104//100
f 106//101 108//26 105//102
f 110//56 112//56 109//56
f 112//103 114//104 113//105
f 114//106 110//107 115//108
f 115//109 109//110 116//111
f 109//112 113//113 116//114
f 118//115 120//26 117//116
f 122//56 124//56 121//56
f 124//117 126//118 125//119
f 126//120 122//121 127//122
f 127//123 121//124 128//125
f 121//126 125//127 128//128
f 130//129 132//26 129//130
f 134//56 136//56 133//56
f 136//131 138//132 137//133
f 138//134 134//135 139//136
f 139//137 133//138 140//139
f 133//140 137//141 140//142
f 142//143 144//26 141//144
f 146//56 148//56 145//56
f 148//145 150//146 149//147
f 150//148 146//149 151//150
f 151//151 145//152 152//153
f 145//154 149//155 152//156
f 81//74 89//85 82//73
f 91//81 81//157 84//157
f 90//78 84//158 83//158
f 82//159 90//76 83//159
f 141//144 149//155 142//143
f 151//151 141//160 144//160
f 150//148 144//161 143//161
f 142//162 150//146 143//162
f 129//130 137//141 130//129
f 139//137 129//163 132//163
f 138//134 132//164 131//164
f 130//165 138//132 131//165
f 117//116 125//127 118//115
f 127//123 117//166 120//166
f 126//120 120//167 119//167
f 118//168 126//118 119//168
f 93//88 101//99 94//87
f 103//95 93//169 96//169
f 102//92 96//170 95//170
f 94//171 102//90 95//171
f 105//102 113//113 106//101
f 115//109 105//172 108//172
f 114//106 108//173 107//173
f 106//174 114//104 107//174
f 8//175 153//176 154//175
f 155//177 157//178 158//179
f 159//180 157//178 156//181
f 1//182 153//176 10//176
f 162//183 164//184 165//185
f 4//186 161//182 1//182
f 44//41 36//187 35//188
f 38//189 162//183 43//3
f 168//190 155//177 169//6
f 155//177 37//191 169//6
f 37//191 163//192 38//189
f 171//193 156//181 168//190
f 37//35 172//194 169//195
f 39//36 35//188 34//196
f 42//197 172//194 41//198
f 172//194 33//199 41//198
f 33//199 39//36 34//196
f 175//200 177//56 174//201
f 165//185 174//202 160//203
f 173//204 179//56 167//205
f 153//206 164//184 180//207
f 158//179 153//206 180//207
f 175//208 158//179 157//178
f 161//209 165//185 164//184
f 162//183 160//203 159//180
f 4//186 174//201 166//186
f 155//177 180//207 170//210
f 8//175 175//200 5//211
f 5//211 174//201 17//212
f 170//210 164//184 163//192
f 162//183 171//193 43//3
f 14//32 34//30 35//32
f 171//213 44//41 43//214
f 29//215 36//33 42//39
f 168//216 172//194 173//204
f 171//213 173//204 167//205
f 179//217 182//217 181//217
f 177//218 184//218 183//218
f 175//208 184//219 176//219
f 36//187 179//220 181//220
f 36//33 182//26 42//39
f 174//202 183//221 160//203
f 42//197 178//222 173//204
f 160//203 184//26 157//178
f 78//71 185//56 186//56
f 71//64 188//56 79//72
f 71//64 77//56 187//56
f 78//71 76//56 75//69
f 79//72 185//56 80//70
f 1//1 2//9 3//2
f 5//4 6//47 7//5
f 7//5 9//8 10//7
f 9//8 2//9 1//1
f 2//9 11//42 12//10
f 13//11 14//223 15//12
f 18//14 6//47 5//4
f 3//2 18//14 17//15
f 13//11 16//13 19//16
f 21//18 22//20 19//16
f 23//19 24//22 22//20
f 23//19 25//24 26//21
f 27//23 28//25 26//21
f 13//11 20//17 28//25
f 28//26 20//26 24//26
f 20//26 19//26 24//26
f 19//26 22//26 24//26
f 15//12 29//28 21//18
f 30//27 31//29 27//23
f 23//19 32//224 30//27
f 29//28 32//224 23//19
f 31//29 14//223 13//11
f 31//30 30//31 33//31
f 14//32 35//32 36//33
f 37//35 38//40 39//36
f 32//38 41//38 33//31
f 32//38 29//215 42//39
f 38//40 43//214 44//41
f 11//42 45//51 46//43
f 9//8 7//5 47//44
f 18//14 49//48 50//46
f 9//8 48//45 11//42
f 18//14 3//2 12//10
f 6//47 50//46 47//44
f 51//26 52//26 53//26
f 47//44 54//52 51//49
f 49//48 55//53 56//50
f 48//45 51//49 45//51
f 50//46 56//50 54//52
f 12//10 46//43 55//53
f 57//54 53//55 58//55
f 54//26 56//26 60//26
f 46//26 57//26 62//26
f 46//26 45//26 53//26
f 54//26 61//26 52//26
f 55//26 62//26 60//26
f 63//56 64//68 65//57
f 61//58 66//58 63//59
f 62//60 67//60 68//61
f 52//59 63//59 58//55
f 61//58 60//61 68//61
f 57//54 59//54 67//60
f 69//62 65//57 70//63
f 66//56 68//56 72//65
f 59//56 69//62 74//67
f 58//56 65//57 69//62
f 63//56 66//56 73//66
f 67//56 74//67 72//65
f 75//69 76//56 77//56
f 73//66 78//71 75//69
f 74//67 79//72 80//70
f 64//68 75//69 70//63
f 72//65 80//70 78//71
f 74//67 69//62 71//64
f 82//73 83//26 84//26
f 86//56 87//56 88//56
f 88//75 87//75 90//76
f 90//78 87//79 86//79
f 91//81 86//82 85//82
f 85//84 88//84 89//85
f 94//87 95//26 96//26
f 98//56 99//56 100//56
f 100//89 99//89 102//90
f 102//92 99//93 98//93
f 103//95 98//96 97//96
f 97//98 100//98 101//99
f 106//101 107//26 108//26
f 110//56 111//56 112//56
f 112//103 111//103 114//104
f 114//106 111//107 110//107
f 115//109 110//110 109//110
f 109//112 112//112 113//113
f 118//115 119//26 120//26
f 122//56 123//56 124//56
f 124//117 123//117 126//118
f 126//120 123//121 122//121
f 127//123 122//124 121//124
f 121//126 124//126 125//127
f 130//129 131//26 132//26
f 134//56 135//56 136//56
f 136//131 135//131 138//132
f 138//134 135//135 134//135
f 139//137 134//138 133//138
f 133//140 136//140 137//141
f 142//143 143//26 144//26
f 146//56 147//56 148//56
f 148//145 147//145 150//146
f 150//148 147//149 146//149
f 151//151 146//152 145//152
f 145//154 148//154 149//155
f 81//74 92//86 89//85
f 91//81 92//83 81//157
f 90//78 91//80 84//158
f 82//159 89//77 90//76
f 141//144 152//156 149//155
f 151//151 152//153 141//160
f 150//148 151//150 144//161
f 142//162 149//147 150//146
f 129//130 140//142 137//141
f 139//137 140//139 129//163
f 138//134 139//136 132//164
f 130//165 137//133 138//132
f 117//116 128//128 125//127
f 127//123 128//125 117//166
f 126//120 127//122 120//167
f 118//168 125//119 126//118
f 93//88 104//100 101//99
f 103//95 104//97 93//169
f 102//92 103//94 96//170
f 94//171 101//91 102//90
f 105//102 116//114 113//113
f 115//109 116//111 105//172
f 114//106 115//108 108//173
f 106//174 113//105 114//104
f 8//175 10//176 153//176
f 155//177 156//181 157//178
f 159//180 160//203 157//178
f 1//182 161//182 153//176
f 162//183 163//192 164//184
f 4//186 166//186 161//182
f 44//41 167//205 36//187
f 38//189 163//192 162//183
f 168//190 156//181 155//177
f 155//177 170//210 37//191
f 37//191 170//210 163//192
f 171//193 159//180 156//181
f 37//35 40//37 172//194
f 39//36 44//41 35//188
f 42//197 173//204 172//194
f 172//194 40//37 33//199
f 33//199 40//37 39//36
f 175//200 176//56 177//56
f 165//185 166//225 174//202
f 173//204 178//56 179//56
f 153//206 161//209 164//184
f 158//179 154//226 153//206
f 175//208 154//226 158//179
f 161//209 166//225 165//185
f 162//183 165//185 160//203
f 4//186 17//212 174//201
f 155//177 158//179 180//207
f 8//175 154//175 175//200
f 5//211 175//200 174//201
f 170//210 180//207 164//184
f 162//183 159//180 171//193
f 14//32 31//30 34//30
f 171//213 167//205 44//41
f 29//215 15//34 36//33
f 168//216 169//195 172//194
f 171//213 168//216 173//204
f 179//217 178//217 182//217
f 177//218 176//218 184//218
f 175//208 157//178 184//219
f 36//187 167//205 179//220
f 36//33 181//26 182//26
f 174//202 177//221 183//221
f 42//197 182//222 178//222
f 160//203 183//26 184//26
f 78//71 80//70 185//56
f 71//64 187//56 188//56
f 71//64 70//63 77//56
f 78//71 186//56 76//56
f 79//72 188//56 185//56
usemtl Fire.001
f 77//227 189//228 190//229
f 191//230 192//231 193//232
f 186//233 194//234 195//235
f 187//236 196//237 188//238
f 77//227 191//230 187//236
f 76//239 195//235 189//228
f 188//238 194//234 185//240
f 192//231 198//241 199//242
f 189//228 200//243 197//244
f 196//237 202//245 194//234
f 190//229 197//244 192//231
f 194//234 200//243 195//235
f 196//237 193//232 201//246
f 198//241 203//247 204//248
f 202//245 203//247 200//243
f 193//232 207//249 201//246
f 193//232 199//242 206//250
f 197//244 203//247 198//241
f 201//246 205//251 202//245
f 205//251 207//249 204//248
f 199//242 198//241 204//248
f 203//247 205//251 204//248
f 207//249 206//250 204//248
f 206//250 199//242 204//248
f 77//227 76//239 189//228
f 191//230 190//229 192//231
f 186//233 185//240 194//234
f 187//236 191//230 196//237
f 77//227 190//229 191//230
f 76//239 186//233 195//235
f 188//238 196//237 194//234
f 192//231 197//244 198//241
f 189//228 195//235 200//243
f 196//237 201//246 202//245
f 190//229 189//228 197//244
f 194//234 202//245 200//243
f 196//237 191//230 193//232
f 202//245 205//251 203//247
f 193//232 206//250 207//249
f 193//232 192//231 199//242
f 197//244 200//243 203//247
f 201//246 207//249 205//251
